<svg width="1973" height="800" viewBox="0 0 1973 800" fill="none" xmlns="http://www.w3.org/2000/svg">
<path d="M321.74 692.91H0V107.45H307.22C342.37 107.45 371.92 112.84 395.87 123.62C419.81 134.41 437.9 150.42 450.13 171.68C462.36 192.95 468.47 219.02 468.47 249.89C468.47 286.02 459.3 316.16 440.96 340.33C422.62 364.51 392.05 378.34 349.25 381.84V389.7C396.63 393.78 431.9 408.35 455.09 433.39C478.27 458.44 489.86 490.77 489.86 530.38C489.86 563.58 483.75 592.42 471.52 616.89C459.29 641.36 440.82 660.14 416.11 673.25C391.39 686.36 359.94 692.91 321.73 692.91H321.74ZM114.63 225.42V339.89H294.22C315.62 339.89 330.9 335.38 340.07 326.35C349.24 317.33 353.83 302.91 353.83 283.1C353.83 263.29 348.98 248.73 339.31 239.41C329.63 230.1 314.09 225.43 292.69 225.43H114.63V225.42ZM114.63 448.24V574.94H307.98C331.41 574.94 348.22 570.13 358.42 560.52C368.61 550.91 373.7 534.46 373.7 511.15C373.7 487.84 368.6 471.54 358.42 462.22C348.22 452.91 331.41 448.24 307.98 448.24H114.63Z" fill="white"/>
<path d="M1217.68 216.67C1234.8 286.65 1251.93 356.62 1269.05 426.6L1290.7 555.05H1298.38L1314.44 426.6L1371 94.55H1485.52L1374.49 680.01H1218.77C1199.3 597.3 1179.83 514.6 1160.36 431.89C1179.47 360.15 1198.57 288.41 1217.68 216.67Z" fill="white"/>
<path d="M1626.56 680.01H1521.82V94.55H1633.54L1801.13 371.55L1865.37 494.76H1873.05L1868.16 376.79V94.55H1972.9V680.01H1861.18L1688.71 400.39L1629.36 290.29H1622.38L1626.57 397.77V680.01H1626.56Z" fill="white"/>
<path d="M1205.94 106.36L1028.18 799.27H916.7L1103.5 106.36H1205.94Z" fill="#6D28D9"/>
<path d="M1047.67 0L866.89 692.91H755.41L939.2 0H1047.67Z" fill="#6D28D9"/>
<path d="M847.23 225.42H489.87V107.45C620.01 107.09 750.16 106.72 880.3 106.36C869.28 146.05 858.25 185.73 847.23 225.42ZM722.08 692.91C694.58 692.91 667.09 692.91 639.59 692.91V107.45H744.33V610C736.91 637.63 729.5 665.27 722.08 692.9V692.91Z" fill="white"/>
</svg>
