<?xml version="1.0" encoding="UTF-8"?>
<svg xmlns="http://www.w3.org/2000/svg" viewBox="0 0 4714.54 2500">
  <defs>
    <style>
      .cls-1 {
        fill: #654ea0;
      }

      .cls-2 {
        fill: #fff;
      }

      .cls-3 {
        fill: none;
        stroke: #654ea0;
        stroke-miterlimit: 10;
        stroke-width: 39px;
      }
    </style>
  </defs>
  <g id="border">
    <rect class="cls-3" x="19.5" y="288.91" width="2163.25" height="2163.25" rx="69.83" ry="69.83"/>
  </g>
  <g id="Layer_5" data-name="Layer 5">
    <path id="B" class="cls-2" d="M433.43,1676.16H111.69v-585.46h307.22c35.15,0,64.7,5.39,88.65,16.17,23.94,10.79,42.03,26.8,54.26,48.06,12.23,21.27,18.34,47.34,18.34,78.21,0,36.13-9.17,66.27-27.51,90.44-18.34,24.18-48.91,38.01-91.71,41.51v7.86c47.38,4.08,82.65,18.65,105.84,43.69,23.18,25.05,34.77,57.38,34.77,96.99,0,33.2-6.11,62.04-18.34,86.51-12.23,24.47-30.7,43.25-55.41,56.36-24.72,13.11-56.17,19.66-94.38,19.66ZM226.32,1208.67v114.47h179.59c21.4,0,36.68-4.51,45.85-13.54,9.17-9.02,13.76-23.44,13.76-43.25s-4.85-34.37-14.52-43.69c-9.68-9.31-25.22-13.98-46.62-13.98h-178.06ZM226.32,1431.49v126.7h193.35c23.43,0,40.24-4.81,50.44-14.42,10.19-9.61,15.28-26.06,15.28-49.37s-5.1-39.61-15.28-48.93c-10.2-9.31-27.01-13.98-50.44-13.98h-193.35Z"/>
    <path id="W" class="cls-2" d="M1329.37,1199.92c17.12,69.98,34.25,139.95,51.37,209.93l21.65,128.45h7.68l16.06-128.45,56.56-332.05h114.52l-111.03,585.46h-155.72c-19.47-82.71-38.94-165.41-58.41-248.12,19.11-71.74,38.21-143.48,57.32-215.22Z"/>
    <path id="N" class="cls-2" d="M1738.25,1663.26h-104.74v-585.46h111.72l167.59,277,64.24,123.21h7.68l-4.89-117.97v-282.24h104.74v585.46h-111.72l-172.47-279.62-59.35-110.1h-6.98l4.19,107.48v282.24Z"/>
    <polygon class="cls-1" points="1317.63 1089.61 1139.87 1782.52 1028.39 1782.52 1215.19 1089.61 1317.63 1089.61"/>
    <polygon class="cls-1" points="1159.36 983.25 978.58 1676.16 867.1 1676.16 1050.89 983.25 1159.36 983.25"/>
    <path id="t" class="cls-2" d="M958.92,1208.67h-357.36v-117.97c130.14-.36,260.29-.73,390.43-1.09-11.02,39.69-22.05,79.37-33.07,119.06ZM833.77,1676.16c-27.5,0-54.99,0-82.49,0v-585.46h104.74v502.55c-7.42,27.63-14.83,55.27-22.25,82.9Z"/>
  </g>
</svg>