<svg width="800" height="200" viewBox="0 0 800 200" fill="none" xmlns="http://www.w3.org/2000/svg">
<g clip-path="url(#clip0_6_21)">
<path d="M108 178.672C114.664 185.473 122.704 190.92 131.671 194.562C124.139 197.075 116.209 198.716 108 199.366V178.672ZM88 198.969C38.4294 193.04 0 150.851 0 99.6836C0 48.5163 38.4294 6.3258 88 0.397461V198.969ZM108 0C149.616 3.29413 184.06 32.0652 195.738 70.7178C184.849 63.7338 171.897 59.6836 158 59.6836C138.413 59.6836 120.705 67.7287 108 80.6943V0Z" fill="#1A1A1A"/>
<mask id="path-2-outside-1_6_21" maskUnits="userSpaceOnUse" x="249" y="37" width="513" height="120" fill="black">
<rect fill="white" x="249" y="37" width="513" height="120"/>
<path d="M313.45 156H250.1V38.75H311.7C318.817 38.75 324.942 39.8583 330.075 42.075C335.325 44.2917 339.35 47.6167 342.15 52.05C345.067 56.3667 346.525 61.6167 346.525 67.8C346.525 74.45 344.6 80.1667 340.75 84.95C336.9 89.6167 330.95 92.5917 322.9 93.875V94.925C332 96.4417 338.825 99.7667 343.375 104.9C347.925 109.917 350.2 116.158 350.2 123.625C350.2 130.392 348.683 136.225 345.65 141.125C342.617 145.908 338.358 149.583 332.875 152.15C327.392 154.717 320.917 156 313.45 156ZM262.525 100.525V144.625H312.4C320.683 144.625 326.925 142.817 331.125 139.2C335.442 135.583 337.6 129.983 337.6 122.4C337.6 114.817 335.442 109.275 331.125 105.775C326.808 102.275 320.567 100.525 312.4 100.525H262.525ZM262.525 50.125V89.85H309.6C317.65 89.85 323.717 88.2167 327.8 84.95C332 81.6833 334.1 76.725 334.1 70.075C334.1 63.1917 332.175 58.175 328.325 55.025C324.475 51.7583 318.583 50.125 310.65 50.125H262.525ZM417.297 156H404.872V38.75H417.297V156ZM465.422 50.125H356.572V38.75H465.422V50.125ZM522.57 156H504.02L470.07 38.75H483.895L507.17 119.6L513.295 143.575H514.345L521.345 119.6L548.645 38.75H566.145L596.245 119.6L604.12 143.575H604.995L610.42 119.6L630.895 38.75H644.545L614.27 156H595.72L567.195 79.7L557.92 52.4H556.695L548.47 79.7L522.57 156ZM670.492 156H658.067V38.75H671.542L733.142 118.375L747.317 137.975H748.367L748.017 118.725V38.75H760.442V156H746.792L685.717 77.25L671.017 57.475H670.142L670.492 77.075V156Z"/>
</mask>
<path d="M313.45 156H250.1V38.75H311.7C318.817 38.75 324.942 39.8583 330.075 42.075C335.325 44.2917 339.35 47.6167 342.15 52.05C345.067 56.3667 346.525 61.6167 346.525 67.8C346.525 74.45 344.6 80.1667 340.75 84.95C336.9 89.6167 330.95 92.5917 322.9 93.875V94.925C332 96.4417 338.825 99.7667 343.375 104.9C347.925 109.917 350.2 116.158 350.2 123.625C350.2 130.392 348.683 136.225 345.65 141.125C342.617 145.908 338.358 149.583 332.875 152.15C327.392 154.717 320.917 156 313.45 156ZM262.525 100.525V144.625H312.4C320.683 144.625 326.925 142.817 331.125 139.2C335.442 135.583 337.6 129.983 337.6 122.4C337.6 114.817 335.442 109.275 331.125 105.775C326.808 102.275 320.567 100.525 312.4 100.525H262.525ZM262.525 50.125V89.85H309.6C317.65 89.85 323.717 88.2167 327.8 84.95C332 81.6833 334.1 76.725 334.1 70.075C334.1 63.1917 332.175 58.175 328.325 55.025C324.475 51.7583 318.583 50.125 310.65 50.125H262.525ZM417.297 156H404.872V38.75H417.297V156ZM465.422 50.125H356.572V38.75H465.422V50.125ZM522.57 156H504.02L470.07 38.75H483.895L507.17 119.6L513.295 143.575H514.345L521.345 119.6L548.645 38.75H566.145L596.245 119.6L604.12 143.575H604.995L610.42 119.6L630.895 38.75H644.545L614.27 156H595.72L567.195 79.7L557.92 52.4H556.695L548.47 79.7L522.57 156ZM670.492 156H658.067V38.75H671.542L733.142 118.375L747.317 137.975H748.367L748.017 118.725V38.75H760.442V156H746.792L685.717 77.25L671.017 57.475H670.142L670.492 77.075V156Z" fill="#1A1A1A"/>
<path d="M250.1 156H249.1V157H250.1V156ZM250.1 38.75V37.75H249.1V38.75H250.1ZM330.075 42.075L329.679 42.9931L329.686 42.9962L330.075 42.075ZM342.15 52.05L341.305 52.584L341.313 52.597L341.321 52.6099L342.15 52.05ZM340.75 84.95L341.521 85.5864L341.529 85.577L340.75 84.95ZM322.9 93.875L322.743 92.8875L321.9 93.0218V93.875H322.9ZM322.9 94.925H321.9V95.7721L322.736 95.9114L322.9 94.925ZM343.375 104.9L342.627 105.563L342.634 105.572L343.375 104.9ZM345.65 141.125L346.495 141.661L346.5 141.651L345.65 141.125ZM332.875 152.15L333.299 153.056L333.299 153.056L332.875 152.15ZM262.525 100.525V99.525H261.525V100.525H262.525ZM262.525 144.625H261.525V145.625H262.525V144.625ZM331.125 139.2L330.483 138.433L330.472 138.442L331.125 139.2ZM331.125 105.775L331.755 104.998L331.755 104.998L331.125 105.775ZM262.525 50.125V49.125H261.525V50.125H262.525ZM262.525 89.85H261.525V90.85H262.525V89.85ZM327.8 84.95L327.186 84.1606L327.175 84.1691L327.8 84.95ZM328.325 55.025L327.678 55.7875L327.685 55.7933L327.692 55.799L328.325 55.025ZM313.45 156V155H250.1V156V157H313.45V156ZM250.1 156H251.1V38.75H250.1H249.1V156H250.1ZM250.1 38.75V39.75H311.7V38.75V37.75H250.1V38.75ZM311.7 38.75V39.75C318.716 39.75 324.7 40.843 329.679 42.9931L330.075 42.075L330.471 41.1569C325.184 38.8736 318.917 37.75 311.7 37.75V38.75ZM330.075 42.075L329.686 42.9962C334.765 45.1407 338.623 48.3384 341.305 52.584L342.15 52.05L342.995 51.516C340.077 46.8949 335.885 43.4426 330.464 41.1537L330.075 42.075ZM342.15 52.05L341.321 52.6099C344.107 56.7322 345.525 61.7782 345.525 67.8H346.525H347.525C347.525 61.4552 346.027 56.0011 342.979 51.4901L342.15 52.05ZM346.525 67.8H345.525C345.525 74.2422 343.666 79.7325 339.971 84.323L340.75 84.95L341.529 85.577C345.534 80.6008 347.525 74.6578 347.525 67.8H346.525ZM340.75 84.95L339.979 84.3136C336.331 88.7355 330.636 91.629 322.743 92.8875L322.9 93.875L323.057 94.8625C331.264 93.5543 337.469 90.4979 341.521 85.5864L340.75 84.95ZM322.9 93.875H321.9V94.925H322.9H323.9V93.875H322.9ZM322.9 94.925L322.736 95.9114C331.688 97.4034 338.274 100.652 342.627 105.563L343.375 104.9L344.123 104.237C339.376 98.881 332.312 95.4799 323.064 93.9386L322.9 94.925ZM343.375 104.9L342.634 105.572C347 110.385 349.2 116.379 349.2 123.625H350.2H351.2C351.2 115.937 348.85 109.448 344.116 104.228L343.375 104.9ZM350.2 123.625H349.2C349.2 130.239 347.719 135.883 344.8 140.599L345.65 141.125L346.5 141.651C349.647 136.567 351.2 130.545 351.2 123.625H350.2ZM345.65 141.125L344.806 140.589C341.881 145.201 337.774 148.753 332.451 151.244L332.875 152.15L333.299 153.056C338.942 150.414 343.352 146.616 346.495 141.661L345.65 141.125ZM332.875 152.15L332.451 151.244C327.128 153.736 320.804 155 313.45 155V156V157C321.03 157 327.656 155.697 333.299 153.056L332.875 152.15ZM262.525 100.525H261.525V144.625H262.525H263.525V100.525H262.525ZM262.525 144.625V145.625H312.4V144.625V143.625H262.525V144.625ZM312.4 144.625V145.625C320.808 145.625 327.325 143.792 331.778 139.958L331.125 139.2L330.472 138.442C326.525 141.841 320.559 143.625 312.4 143.625V144.625ZM331.125 139.2L331.767 139.967C336.383 136.1 338.6 130.171 338.6 122.4H337.6H336.6C336.6 129.796 334.501 135.067 330.483 138.433L331.125 139.2ZM337.6 122.4H338.6C338.6 114.632 336.383 108.751 331.755 104.998L331.125 105.775L330.495 106.552C334.5 109.799 336.6 115.002 336.6 122.4H337.6ZM331.125 105.775L331.755 104.998C327.193 101.3 320.692 99.525 312.4 99.525V100.525V101.525C320.442 101.525 326.424 103.25 330.495 106.552L331.125 105.775ZM312.4 100.525V99.525H262.525V100.525V101.525H312.4V100.525ZM262.525 50.125H261.525V89.85H262.525H263.525V50.125H262.525ZM262.525 89.85V90.85H309.6V89.85V88.85H262.525V89.85ZM309.6 89.85V90.85C317.761 90.85 324.091 89.198 328.425 85.7309L327.8 84.95L327.175 84.1691C323.343 87.2353 317.539 88.85 309.6 88.85V89.85ZM327.8 84.95L328.414 85.7393C332.918 82.2366 335.1 76.9486 335.1 70.075H334.1H333.1C333.1 76.5014 331.082 81.1301 327.186 84.1606L327.8 84.95ZM334.1 70.075H335.1C335.1 63.013 333.12 57.6563 328.958 54.251L328.325 55.025L327.692 55.799C331.23 58.6937 333.1 63.3703 333.1 70.075H334.1ZM328.325 55.025L328.972 54.2625C324.863 50.7761 318.692 49.125 310.65 49.125V50.125V51.125C318.475 51.125 324.087 52.7406 327.678 55.7875L328.325 55.025ZM310.65 50.125V49.125H262.525V50.125V51.125H310.65V50.125ZM417.297 156V157H418.297V156H417.297ZM404.872 156H403.872V157H404.872V156ZM404.872 38.75V37.75H403.872V38.75H404.872ZM417.297 38.75H418.297V37.75H417.297V38.75ZM465.422 50.125V51.125H466.422V50.125H465.422ZM356.572 50.125H355.572V51.125H356.572V50.125ZM356.572 38.75V37.75H355.572V38.75H356.572ZM465.422 38.75H466.422V37.75H465.422V38.75ZM417.297 156V155H404.872V156V157H417.297V156ZM404.872 156H405.872V38.75H404.872H403.872V156H404.872ZM404.872 38.75V39.75H417.297V38.75V37.75H404.872V38.75ZM417.297 38.75H416.297V156H417.297H418.297V38.75H417.297ZM465.422 50.125V49.125H356.572V50.125V51.125H465.422V50.125ZM356.572 50.125H357.572V38.75H356.572H355.572V50.125H356.572ZM356.572 38.75V39.75H465.422V38.75V37.75H356.572V38.75ZM465.422 38.75H464.422V50.125H465.422H466.422V38.75H465.422ZM522.57 156V157H523.286L523.516 156.321L522.57 156ZM504.02 156L503.059 156.278L503.268 157H504.02V156ZM470.07 38.75V37.75H468.739L469.109 39.0281L470.07 38.75ZM483.895 38.75L484.856 38.4734L484.647 37.75H483.895V38.75ZM507.17 119.6L508.138 119.352L508.135 119.338L508.131 119.323L507.17 119.6ZM513.295 143.575L512.326 143.823L512.518 144.575H513.295V143.575ZM514.345 143.575V144.575H515.094L515.304 143.855L514.345 143.575ZM521.345 119.6L520.397 119.28L520.39 119.3L520.385 119.32L521.345 119.6ZM548.645 38.75V37.75H547.927L547.697 38.4301L548.645 38.75ZM566.145 38.75L567.082 38.4011L566.839 37.75H566.145V38.75ZM596.245 119.6L597.195 119.288L597.189 119.269L597.182 119.251L596.245 119.6ZM604.12 143.575L603.169 143.887L603.395 144.575H604.12V143.575ZM604.995 143.575V144.575H605.794L605.97 143.796L604.995 143.575ZM610.42 119.6L609.45 119.355L609.447 119.367L609.444 119.379L610.42 119.6ZM630.895 38.75V37.75H630.116L629.925 38.5045L630.895 38.75ZM644.545 38.75L645.513 39L645.836 37.75H644.545V38.75ZM614.27 156V157H615.044L615.238 156.25L614.27 156ZM595.72 156L594.783 156.35L595.026 157H595.72V156ZM567.195 79.7L566.248 80.0217L566.253 80.036L566.258 80.0502L567.195 79.7ZM557.92 52.4L558.866 52.0783L558.636 51.4H557.92V52.4ZM556.695 52.4V51.4H555.951L555.737 52.1115L556.695 52.4ZM548.47 79.7L549.416 80.0214L549.422 80.005L549.427 79.9885L548.47 79.7ZM522.57 156V155H504.02V156V157H522.57V156ZM504.02 156L504.98 155.722L471.03 38.4719L470.07 38.75L469.109 39.0281L503.059 156.278L504.02 156ZM470.07 38.75V39.75H483.895V38.75V37.75H470.07V38.75ZM483.895 38.75L482.934 39.0266L506.209 119.877L507.17 119.6L508.131 119.323L484.856 38.4734L483.895 38.75ZM507.17 119.6L506.201 119.848L512.326 143.823L513.295 143.575L514.263 143.327L508.138 119.352L507.17 119.6ZM513.295 143.575V144.575H514.345V143.575V142.575H513.295V143.575ZM514.345 143.575L515.304 143.855L522.304 119.88L521.345 119.6L520.385 119.32L513.385 143.295L514.345 143.575ZM521.345 119.6L522.292 119.92L549.592 39.0699L548.645 38.75L547.697 38.4301L520.397 119.28L521.345 119.6ZM548.645 38.75V39.75H566.145V38.75V37.75H548.645V38.75ZM566.145 38.75L565.207 39.0989L595.307 119.949L596.245 119.6L597.182 119.251L567.082 38.4011L566.145 38.75ZM596.245 119.6L595.294 119.912L603.169 143.887L604.12 143.575L605.07 143.263L597.195 119.288L596.245 119.6ZM604.12 143.575V144.575H604.995V143.575V142.575H604.12V143.575ZM604.995 143.575L605.97 143.796L611.395 119.821L610.42 119.6L609.444 119.379L604.019 143.354L604.995 143.575ZM610.42 119.6L611.389 119.845L631.864 38.9955L630.895 38.75L629.925 38.5045L609.45 119.355L610.42 119.6ZM630.895 38.75V39.75H644.545V38.75V37.75H630.895V38.75ZM644.545 38.75L643.576 38.5L613.301 155.75L614.27 156L615.238 156.25L645.513 39L644.545 38.75ZM614.27 156V155H595.72V156V157H614.27V156ZM595.72 156L596.656 155.65L568.131 79.3498L567.195 79.7L566.258 80.0502L594.783 156.35L595.72 156ZM567.195 79.7L568.141 79.3783L558.866 52.0783L557.92 52.4L556.973 52.7217L566.248 80.0217L567.195 79.7ZM557.92 52.4V51.4H556.695V52.4V53.4H557.92V52.4ZM556.695 52.4L555.737 52.1115L547.512 79.4115L548.47 79.7L549.427 79.9885L557.652 52.6885L556.695 52.4ZM548.47 79.7L547.523 79.3786L521.623 155.679L522.57 156L523.516 156.321L549.416 80.0214L548.47 79.7ZM670.492 156V157H671.492V156H670.492ZM658.067 156H657.067V157H658.067V156ZM658.067 38.75V37.75H657.067V38.75H658.067ZM671.542 38.75L672.333 38.1381L672.033 37.75H671.542V38.75ZM733.142 118.375L733.953 117.789L733.943 117.776L733.933 117.763L733.142 118.375ZM747.317 137.975L746.507 138.561L746.806 138.975H747.317V137.975ZM748.367 137.975V138.975H749.386L749.367 137.957L748.367 137.975ZM748.017 118.725H747.017V118.734L747.018 118.743L748.017 118.725ZM748.017 38.75V37.75H747.017V38.75H748.017ZM760.442 38.75H761.442V37.75H760.442V38.75ZM760.442 156V157H761.442V156H760.442ZM746.792 156L746.002 156.613L746.302 157H746.792V156ZM685.717 77.25L684.915 77.8466L684.921 77.8548L684.927 77.8628L685.717 77.25ZM671.017 57.475L671.82 56.8784L671.52 56.475H671.017V57.475ZM670.142 57.475V56.475H669.124L669.143 57.4929L670.142 57.475ZM670.492 77.075H671.492V77.0661L671.492 77.0571L670.492 77.075ZM670.492 156V155H658.067V156V157H670.492V156ZM658.067 156H659.067V38.75H658.067H657.067V156H658.067ZM658.067 38.75V39.75H671.542V38.75V37.75H658.067V38.75ZM671.542 38.75L670.751 39.3619L732.351 118.987L733.142 118.375L733.933 117.763L672.333 38.1381L671.542 38.75ZM733.142 118.375L732.332 118.961L746.507 138.561L747.317 137.975L748.128 137.389L733.953 117.789L733.142 118.375ZM747.317 137.975V138.975H748.367V137.975V136.975H747.317V137.975ZM748.367 137.975L749.367 137.957L749.017 118.707L748.017 118.725L747.018 118.743L747.368 137.993L748.367 137.975ZM748.017 118.725H749.017V38.75H748.017H747.017V118.725H748.017ZM748.017 38.75V39.75H760.442V38.75V37.75H748.017V38.75ZM760.442 38.75H759.442V156H760.442H761.442V38.75H760.442ZM760.442 156V155H746.792V156V157H760.442V156ZM746.792 156L747.583 155.387L686.508 76.6372L685.717 77.25L684.927 77.8628L746.002 156.613L746.792 156ZM685.717 77.25L686.52 76.6534L671.82 56.8784L671.017 57.475L670.215 58.0716L684.915 77.8466L685.717 77.25ZM671.017 57.475V56.475H670.142V57.475V58.475H671.017V57.475ZM670.142 57.475L669.143 57.4929L669.493 77.0928L670.492 77.075L671.492 77.0571L671.142 57.4571L670.142 57.475ZM670.492 77.075H669.492V156H670.492H671.492V77.075H670.492Z" fill="#1A1A1A" fill-opacity="0.9" mask="url(#path-2-outside-1_6_21)"/>
</g>
<defs>
<clipPath id="clip0_6_21">
<rect width="800" height="200" fill="white"/>
</clipPath>
</defs>
</svg>
