<svg viewBox="102.00000000000011 102.00000000000011 765.0000000000001 828.7499999999999" xmlns="http://www.w3.org/2000/svg" xmlns:xlink="http://www.w3.org/1999/xlink" overflow="visible" width="765.0000000000001px" height="828.7499999999999px"><defs><polygon id="masterspot-illustrationbrowsing-path-1" points="0.788923017 0.381 328.99029 0.381 328.99029 507 0.788923017 507"/><polygon id="masterspot-illustrationbrowsing-path-3" points="0 0.971969833 42.3311467 0.971969833 42.3311467 76.5646 0 76.5646"/></defs><g id="Master/Spot Illustration/Browsing" stroke="none" stroke-width="1" fill="none" fill-rule="evenodd"><path d="M442.110214,296.765039 L368.564333,140.330556 C366.027536,134.93677 357.989172,136.357907 357.456657,142.295645 L340.274063,333.763599 C340.002905,336.777389 337.479176,339.085511 334.453968,339.085511 L161.853756,339.085511 C155.95362,339.085511 153.771289,346.833156 158.804046,349.912286 L288.491059,429.263987 C291.552204,431.1376 292.225199,435.294833 289.897487,438.027663 C266.791888,465.179542 161.156259,589.543706 164.895299,589.543706 C168.529796,589.543706 302.222107,545.493368 338.03946,533.668531 C342.114997,532.322535 346.177466,535.690792 345.644951,539.949302 L322.712501,723.413152 C321.985602,729.225111 329.3085,732.372847 333.026305,727.844812 L456.584495,577.372569 C459.055953,574.362046 463.724444,574.567866 465.92311,577.782575 L560.699353,716.395677 C564.105162,721.374556 571.905037,718.555151 571.338219,712.547173 L552.984418,517.998457 C552.696926,514.94873 554.813918,512.194665 557.834226,511.686649 L723.877642,483.811134 C729.681402,482.837574 730.565116,474.86124 725.115821,472.639693 L576.433048,412.022494 C571.465631,409.996966 571.624078,402.909251 576.676437,401.109145 L755.116346,337.460188 C761.101423,335.325216 759.858344,326.520702 753.515534,326.127031 L561.921197,314.225419 C558.938459,314.040835 556.574811,311.63307 556.4474,308.643782 L547.94186,110.597762 C547.677236,104.436236 539.284407,102.833782 536.768845,108.467691 L452.732745,296.662129 C450.69416,301.226102 444.237007,301.289808 442.110214,296.765039" id="Fill-21" fill="#FFE2E9" opacity=".5"/><g id="Phone Screen" transform="translate(367.000000, 101.000000) scale(1 1)"><defs><polygon id="phone-screensocial-media-path-1" points="0.788923017 0.381 328.99029 0.381 328.99029 507 0.788923017 507"/><polygon id="phone-screensocial-media-path-3" points="0 0.971969833 42.3311467 0.971969833 42.3311467 76.5646 0 76.5646"/></defs><g id="Phone Screen/Social Media" stroke="none" stroke-width="1" fill="none" fill-rule="evenodd"><g id="Group-57" transform="translate(97.000000, 73.000000)"><g id="Group-3" transform="translate(29.000000, 0.619000)"><mask id="phone-screensocial-media-mask-2" fill="#fff"><use xlink:href="#phone-screensocial-media-path-1"/></mask><g id="Clip-2"/><path d="M81.8883,1.0597 C81.8883,1.0597 45.6413,-0.2703 41.9833,32.5397 C37.8763,69.3797 3.4093,419.6187 1.1923,457.3057 C-1.0257,494.9947 5.1823,506.5227 37.9923,506.9657 C70.8033,507.4097 250.8193,503.4177 250.8193,503.4177 C250.8193,503.4177 281.7453,503.0857 284.9593,476.3717 C289.0873,442.0667 325.3083,69.7857 328.4113,39.1917 C331.5153,8.5977 322.6483,1.8547 289.3943,0.7917 C256.1393,-0.2703 81.8883,1.0597 81.8883,1.0597" id="Fill-1" fill="#AFDCFD" mask="url(#phone-screensocial-media-mask-2)"/></g><path d="M202.6861,466.2939 L148.6481,466.2939 C148.6481,466.2939 134.1821,465.6289 133.3511,472.4459 C132.5201,479.2639 138.3391,482.0899 148.4821,482.2559 C158.6241,482.4229 202.6861,482.2559 202.6861,482.2559 C202.6861,482.2559 220.8091,482.7989 220.8091,474.9399 C220.8091,466.2169 202.6861,466.2939 202.6861,466.2939" id="Fill-4" fill="#70A0E6"/><polygon id="Fill-6" fill="#70A0E6" points="68.9879 443.8476 281.4819 445.8426 320.3889 37.8156 108.2279 37.8156"/><path d="M209.5416,19.414 C209.1876,26.986 220.7546,27.139 220.8486,19.635 C220.9436,11.991 209.9036,11.689 209.5416,19.414" id="Fill-8" fill="#70A0E6"/><polygon id="Fill-10" fill="#3164CF" points="178.814 379.5058 267.613 380.6018 267.613 370.9598 178.814 369.5348"/><polygon id="Fill-12" fill="#3164CF" points="178.814 362.5224 267.613 363.9474 267.613 354.1954 181.012 353.2344"/><polygon id="Fill-14" fill="#3164CF" points="181.1588 346.1963 268.3458 347.6523 268.3458 337.1013 182.0378 335.7863"/><polygon id="Fill-16" fill="#3164CF" points="178.814 431.5488 267.613 432.6448 267.613 423.0018 178.814 421.5778"/><polygon id="Fill-18" fill="#3164CF" points="178.814 414.5654 267.613 415.9894 267.613 406.2374 181.012 405.2774"/><polygon id="Fill-20" fill="#3164CF" points="181.1588 398.2382 268.3458 399.6952 268.3458 389.1442 182.0378 387.8292"/><path d="M137.5797,237.0068 C137.5797,237.0068 135.9167,227.1968 126.9377,229.3588 C117.9597,231.5208 115.7977,246.6508 138.4107,261.1158 C138.4107,261.1158 169.6697,237.2158 151.7127,229.0478 C151.7127,229.0478 142.7337,226.0328 137.5797,237.0068" id="Fill-22" fill="#FE5C4F"/><path d="M257.1275,232.6835 L180.8105,231.8525 C180.8105,231.8525 168.5055,230.8555 166.5105,242.6605 C164.5155,254.4655 168.3395,261.4495 179.6465,261.9475 C190.9515,262.4465 260.2865,263.4445 260.2865,263.4445 C260.2865,263.4445 273.0895,264.7745 274.2535,252.1375 C275.4175,239.5005 274.0815,232.8695 257.1275,232.6835" id="Fill-24" fill="#FEF864"/><polygon id="Fill-26" fill="#F8FBF8" points="118.1392 270.6074 116.9612 285.7244 270.2632 288.2184 271.2612 273.7534"/><polygon id="Fill-28" fill="#F8FBF8" points="116.1304 296.1992 116.1304 312.6602 268.2954 315.3202 269.4324 299.0262"/><g id="Group-32" transform="translate(0.000000, 179.619000)"><mask id="phone-screensocial-media-mask-4" fill="#fff"><use xlink:href="#phone-screensocial-media-path-3"/></mask><g id="Clip-31"/><path d="M15.2047,76.5646 C15.2047,76.5646 40.0587,46.5556 42.1407,26.6276 C45.7747,-8.1724 -3.8513,-8.5804 0.2397,31.6166 C3.3997,62.6726 15.2047,76.5646 15.2047,76.5646" id="Fill-30" fill="#FF71DB" mask="url(#phone-screensocial-media-mask-4)"/></g><path d="M13.3756,204.9169 C12.4246,215.1169 28.3936,216.6049 28.6726,205.6519 C28.9486,194.7749 14.3206,194.7749 13.3756,204.9169" id="Fill-33" fill="#FF00BF"/><path d="M184.8004,173.4921 C198.4344,201.4251 212.7344,174.1571 212.7344,174.1571 C212.7344,174.1571 232.0214,123.9431 254.9664,123.9431 C267.7924,123.9431 276.7824,142.9921 282.6264,162.4901 C286.5394,126.8391 291.2134,83.5421 291.2134,83.5421 C291.2134,83.5421 294.2064,71.0691 277.5794,70.0711 C260.9514,69.0741 150.5484,71.7341 150.5484,71.7341 C150.5484,71.7341 138.5504,71.3971 136.2494,83.5421 C133.9474,95.6871 123.1274,201.7421 123.1274,201.7421 L151.8784,168.8361 C151.8784,168.8361 171.1654,145.5581 184.8004,173.4921" id="Fill-35" fill="#3164CF"/><path d="M136.5816,215.0595 L265.2746,218.0525 C265.2746,218.0525 275.9166,220.3795 277.5796,207.4115 C278.2026,202.5445 280.2776,183.8965 282.6266,162.4905 C276.7826,142.9925 267.7926,123.9435 254.9666,123.9435 C232.0206,123.9435 212.7336,174.1575 212.7336,174.1575 C212.7336,174.1575 198.4346,201.4245 184.8006,173.4925 C171.1656,145.5585 151.8786,168.8355 151.8786,168.8355 L123.1276,201.7425 C123.1276,201.7425 120.2876,215.0595 136.5816,215.0595" id="Fill-37" fill="#00DEB8"/><path d="M211.7359,106.6513 C213.7309,123.9433 238.8929,120.6193 237.5629,103.8803 C236.2849,87.7933 209.6949,88.9633 211.7359,106.6513" id="Fill-39" fill="#FEF864"/><path d="M16.357,338.0449 C12.568,341.3799 9.339,346.3099 8.221,353.6179 C5.161,373.6089 4.073,400.2439 3.919,404.3739 C16.863,395.2439 35.922,381.6529 49.655,371.8439 L16.357,338.0449 Z" id="Fill-41" fill="#D5E1D5"/><path d="M141.5758,401.7177 C143.4278,384.2247 147.2908,349.3767 147.2908,349.3767 C147.2908,349.3767 148.4068,341.9327 144.6898,335.7857 C135.1148,345.1137 118.8908,360.8417 105.6058,373.3367 L141.5758,401.7177 Z" id="Fill-43" fill="#D5E1D5"/><path d="M22.1881,424.2275 C42.1401,423.8955 120.5631,422.5655 120.5631,422.5655 C120.5631,422.5655 139.5751,420.9025 141.2371,404.9405 C141.3401,403.9525 141.4541,402.8725 141.5761,401.7175 L105.6061,373.3365 C102.9681,375.8175 100.4351,378.1825 98.1051,380.3315 C77.9191,398.9555 59.7651,382.1055 59.7651,382.1055 L49.6551,371.8435 C35.9221,381.6535 16.8631,395.2445 3.9181,404.3735 C3.9051,404.7325 3.8981,404.9405 3.8981,404.9405 C3.8981,404.9405 2.2351,424.5605 22.1881,424.2275" id="Fill-45" fill="#B2C7B2"/><path d="M127.6031,327.790993 C107.6391,327.804 33.4941,331.116 33.4941,331.116 C33.4941,331.116 23.8321,331.466 16.3571,338.045 L49.6551,371.844 L59.7651,382.105 C59.7651,382.105 77.9191,398.955 98.1051,380.332 C100.4351,378.183 102.9681,375.817 105.6061,373.337 C118.8911,360.842 135.1151,345.114 144.6901,335.786 C142.0771,331.465 137.0771,327.785 127.6031,327.790993" id="Fill-47" fill="#F8FBF8"/><path d="M280.7935,324.908681 C280.7935,324.908681 247.5395,324.4661 243.1055,352.3981 C238.6715,380.3321 282.5665,381.6621 282.5665,381.6621 C282.5665,381.6621 247.3545,382.5491 242.7905,406.9351 C238.2285,431.3221 287.8885,431.3221 287.8885,431.3221 L351.7355,433.5391 C351.7355,433.5391 389.0095,434.4261 391.2125,414.4731 C393.4145,394.5201 375.6785,383.4351 352.6225,381.6621 C352.6225,381.6621 396.9745,378.5281 398.2915,353.2851 C399.6215,327.7911 357.9905,327.5191 357.9905,327.5191 L280.7935,324.908681 Z" id="Fill-49" fill="#FF71DB"/><path d="M268.3785,142.2333 C266.0115,225.4913 389.8865,220.5673 391.1965,146.2233 C392.5665,68.5503 270.8135,56.6543 268.3785,142.2333" id="Fill-51" fill="#FEF864"/><path d="M329.7535,104.4892 C323.6685,104.2882 312.4955,106.6512 307.8415,117.2792 C300.7805,133.4042 312.9945,140.2372 312.9945,140.2372 C312.9945,140.2372 321.7745,145.5032 308.6715,150.8792 C298.9965,154.8482 292.2105,158.9702 293.2085,170.0552 C294.2065,181.1402 306.3995,192.0032 330.8965,191.4492 C355.3945,190.8942 368.1015,181.7212 368.2805,170.2512 C368.4175,161.5202 368.4185,156.3662 348.2435,149.5492 C348.2435,149.5492 339.8655,146.2172 346.0825,141.1242 C355.8925,133.0882 355.5605,105.3432 329.7535,104.4892" id="Fill-53" fill="#FE5C4F"/><path d="M47.3502,114.9648 C47.6162,106.8208 60.2642,106.1498 60.1532,115.1308 C60.0582,122.8158 47.1162,122.1248 47.3502,114.9648 L47.3502,114.9648 Z M149.7732,96.1758 L58.9892,94.3468 C58.9892,94.3468 31.8872,92.6818 31.8872,115.6298 C31.8872,137.5768 56.3292,136.7458 56.3292,136.7458 L147.1122,140.2368 L174.5462,119.2868 L149.7732,96.1758 Z" id="Fill-55" fill="#FE5C4F"/></g></g></g><g transform="translate(0.000000, 174.000000) scale(1 1)" id="Master/Character/Standing"><g id="Master/Character/Standing" stroke="none" stroke-width="1" fill="none" fill-rule="evenodd"><g id="Standing/Lower Body" transform="translate(14.000000, 442.000000) scale(1 1)"><g id="Standing/Lower Body/Circles" stroke="none" stroke-width="1" fill="none" fill-rule="evenodd"><g id="Group-332" transform="translate(93.000000, -1.000000)"><g id="Group-207" transform="translate(0.000000, 0.142000)"><path d="M329.297,293.9017 C329.75,293.8997 330.192,293.8977 330.628,293.8957 C330.193,293.8977 329.75,293.8997 329.297,293.9017 L329.297,293.9017 Z M326.787,293.9127 C324.875,293.9197 322.856,293.9267 320.768,293.9347 C322.855,293.9267 324.875,293.9207 326.787,293.9127 L326.787,293.9127 Z M328.6,293.9047 C328.289,293.9057 327.975,293.9067 327.657,293.9087 C327.974,293.9067 328.29,293.9057 328.6,293.9047 L328.6,293.9047 Z M316.432,293.9487 C316.835,293.9467 317.236,293.9457 317.636,293.9447 C317.236,293.9457 316.835,293.9467 316.432,293.9487 L316.432,293.9487 Z M311.08,293.9617 C312.554,293.9587 314.026,293.9557 315.484,293.9507 C314.026,293.9557 312.554,293.9587 311.08,293.9617 L311.08,293.9617 Z M308.9,293.9657 C309.41,293.9647 309.922,293.9637 310.433,293.9637 C309.921,293.9637 309.41,293.9647 308.9,293.9657 L308.9,293.9657 Z M318.586,293.9417 C319.003,293.9407 319.418,293.9387 319.832,293.9377 C319.418,293.9387 319.003,293.9407 318.586,293.9417 L318.586,293.9417 Z M296.917,293.9707 C297.578,293.9717 298.25,293.9717 298.929,293.9727 C298.249,293.9717 297.578,293.9717 296.917,293.9707 L296.917,293.9707 Z M299.173,293.9727 L301.36,293.9727 C303.575,293.9727 305.858,293.9707 308.156,293.9667 C305.857,293.9707 303.576,293.9727 301.36,293.9727 L299.173,293.9727 Z M281.503,293.8617 C281.425,293.8597 281.346,293.8577 281.273,293.8557 C281.346,293.8577 281.425,293.8597 281.503,293.8617 L281.503,293.8617 Z M282.341,293.8787 C282.238,293.8767 282.138,293.8747 282.039,293.8727 C282.138,293.8747 282.238,293.8767 282.341,293.8787 L282.341,293.8787 Z M283.22,293.8927 C283.155,293.8917 283.096,293.8907 283.032,293.8897 C283.096,293.8907 283.155,293.8917 283.22,293.8927 L283.22,293.8927 Z M284.536,293.9097 C284.42,293.9087 284.3,293.9077 284.188,293.9057 C284.3,293.9077 284.42,293.9087 284.536,293.9097 L284.536,293.9097 Z M285.735,293.9227 C285.578,293.9217 285.422,293.9197 285.27,293.9177 C285.423,293.9197 285.578,293.9217 285.735,293.9227 L285.735,293.9227 Z M286.916,293.9317 C286.742,293.9307 286.576,293.9297 286.406,293.9277 C286.575,293.9297 286.742,293.9307 286.916,293.9317 L286.916,293.9317 Z M288.744,293.9447 C288.386,293.9427 288.036,293.9407 287.694,293.9377 C288.036,293.9407 288.386,293.9427 288.744,293.9447 L288.744,293.9447 Z M290.152,293.9527 C289.879,293.9507 289.607,293.9497 289.341,293.9477 C289.608,293.9497 289.879,293.9507 290.152,293.9527 L290.152,293.9527 Z M291.499,293.9577 C291.201,293.9567 290.91,293.9557 290.619,293.9547 C290.909,293.9557 291.201,293.9567 291.499,293.9577 L291.499,293.9577 Z M293.967,293.9647 C293.253,293.9637 292.557,293.9617 291.877,293.9597 C292.556,293.9617 293.253,293.9637 293.967,293.9647 L293.967,293.9647 Z M295.419,293.9677 C295.003,293.9677 294.589,293.9667 294.183,293.9657 C294.59,293.9667 295.003,293.9677 295.419,293.9677 L295.419,293.9677 Z M296.79,293.9707 C296.357,293.9697 295.929,293.9687 295.505,293.9687 C295.928,293.9687 296.358,293.9697 296.79,293.9707 L296.79,293.9707 Z M332.827,293.8857 C332.318,293.8877 331.792,293.8897 331.252,293.8927 C331.79,293.8897 332.32,293.8877 332.827,293.8857 C330.194,283.1067 316.128,279.3577 303.131,274.9567 C292.104,271.2227 281.845,267.0197 279.992,257.6557 L226.713,259.1827 L228.064,293.2817 L228.086,293.8377 C228.086,293.8377 227.629,306.2037 243.658,306.6617 C259.688,307.1197 319.533,307.5777 319.533,307.5777 C319.533,307.5777 333.273,308.2277 333.273,297.6547 C333.273,296.3067 333.113,295.0567 332.827,293.8857 L332.827,293.8857 Z" id="Fill-165" fill="#FF0048"/><path d="M227.0778,268.3939 L285.9038,266.8309 C285.9038,266.8309 284.2468,265.3469 283.6328,264.4599 C283.2998,263.9789 282.6898,262.2159 282.6898,262.2159 L226.8408,262.4089 L227.0778,268.3939 Z" id="Fill-167" fill="#000"/><path d="M101.5643,296.6565 C101.6903,296.6915 101.8143,296.7265 101.9363,296.7625 C101.8143,296.7265 101.6903,296.6915 101.5643,296.6565 L101.5643,296.6565 Z M104.1043,297.3815 C104.1933,297.4065 104.2803,297.4325 104.3663,297.4575 C104.2803,297.4325 104.1933,297.4065 104.1043,297.3815 L104.1043,297.3815 Z M100.3403,296.3115 C100.3753,296.3215 100.4093,296.3315 100.4443,296.3415 C100.4093,296.3315 100.3753,296.3215 100.3403,296.3115 L100.3403,296.3115 Z M98.5753,295.8195 C98.7233,295.8605 98.8713,295.9015 99.0173,295.9425 C98.8713,295.9015 98.7233,295.8605 98.5753,295.8195 L98.5753,295.8195 Z M97.1803,295.4325 C97.2173,295.4425 97.2523,295.4525 97.2893,295.4625 C97.2523,295.4525 97.2173,295.4425 97.1803,295.4325 L97.1803,295.4325 Z M95.2053,294.8875 C95.3413,294.9255 95.4783,294.9625 95.6133,294.9995 C95.4783,294.9625 95.3423,294.9255 95.2053,294.8875 L95.2053,294.8875 Z M93.4713,294.4105 C93.6653,294.4645 93.8553,294.5165 94.0473,294.5685 C93.8553,294.5165 93.6663,294.4645 93.4713,294.4105 L93.4713,294.4105 Z M91.3633,293.8335 C91.5803,293.8925 91.7973,293.9525 92.0123,294.0115 C91.7973,293.9525 91.5793,293.8925 91.3633,293.8335 L91.3633,293.8335 Z M89.6703,293.3705 C89.7653,293.3965 89.8573,293.4225 89.9513,293.4475 C89.8573,293.4225 89.7653,293.3965 89.6703,293.3705 L89.6703,293.3705 Z M87.2023,292.6985 C87.4473,292.7655 87.6933,292.8315 87.9343,292.8975 C87.6923,292.8315 87.4473,292.7655 87.2023,292.6985 L87.2023,292.6985 Z M84.2803,291.9035 C84.9233,292.0785 85.5583,292.2515 86.1853,292.4215 C85.5573,292.2505 84.9233,292.0785 84.2803,291.9035 L84.2803,291.9035 Z M82.6263,291.4545 C82.9793,291.5505 83.3323,291.6455 83.6823,291.7405 C83.3323,291.6455 82.9793,291.5505 82.6263,291.4545 L82.6263,291.4545 Z M80.7363,290.9415 C81.0813,291.0355 81.4233,291.1285 81.7643,291.2215 C81.4223,291.1285 81.0813,291.0355 80.7363,290.9415 L80.7363,290.9415 Z M23.1933,274.9725 C23.0013,274.9125 22.8203,274.8555 22.6383,274.7985 C22.8203,274.8555 23.0013,274.9125 23.1933,274.9725 L23.1933,274.9725 Z M24.0543,275.2365 C23.8673,275.1795 23.6893,275.1245 23.5113,275.0695 C23.6893,275.1245 23.8673,275.1805 24.0543,275.2365 L24.0543,275.2365 Z M24.9913,275.5205 C24.8013,275.4635 24.6183,275.4075 24.4343,275.3515 C24.6183,275.4075 24.8013,275.4635 24.9913,275.5205 L24.9913,275.5205 Z M26.0093,275.8255 C25.7773,275.7565 25.5533,275.6885 25.3293,275.6225 C25.5533,275.6885 25.7773,275.7565 26.0093,275.8255 L26.0093,275.8255 Z M27.0443,276.1325 C26.7813,276.0545 26.5253,275.9775 26.2713,275.9025 C26.5243,275.9775 26.7813,276.0545 27.0443,276.1325 L27.0443,276.1325 Z M28.1473,276.4555 C27.8803,276.3775 27.6193,276.3015 27.3613,276.2255 C27.6193,276.3015 27.8803,276.3775 28.1473,276.4555 L28.1473,276.4555 Z M29.3033,276.7925 C29.0143,276.7085 28.7303,276.6255 28.4493,276.5435 C28.7303,276.6255 29.0143,276.7085 29.3033,276.7925 L29.3033,276.7925 Z M30.5403,277.1495 C30.2173,277.0575 29.9003,276.9655 29.5863,276.8745 C29.9003,276.9655 30.2173,277.0575 30.5403,277.1495 L30.5403,277.1495 Z M31.7763,277.5045 C31.4303,277.4055 31.0883,277.3075 30.7513,277.2105 C31.0883,277.3075 31.4303,277.4055 31.7763,277.5045 L31.7763,277.5045 Z M33.0873,277.8785 C32.7213,277.7745 32.3603,277.6725 32.0043,277.5695 C32.3613,277.6725 32.7213,277.7745 33.0873,277.8785 L33.0873,277.8785 Z M22.3803,274.7185 C22.1723,274.6525 21.9753,274.5905 21.7823,274.5275 C21.9753,274.5905 22.1723,274.6525 22.3803,274.7185 L22.3803,274.7185 Z M35.8083,278.6495 C35.4073,278.5365 35.0103,278.4245 34.6183,278.3125 C35.0103,278.4245 35.4073,278.5365 35.8083,278.6495 L35.8083,278.6495 Z M37.2523,279.0555 C36.8273,278.9355 36.4073,278.8175 35.9923,278.7015 C36.4073,278.8175 36.8273,278.9355 37.2523,279.0555 L37.2523,279.0555 Z M38.7003,279.4615 C38.2573,279.3375 37.8193,279.2145 37.3863,279.0935 C37.8193,279.2145 38.2573,279.3375 38.7003,279.4615 L38.7003,279.4615 Z M80.6503,290.9185 C67.1633,287.2615 51.2423,282.9675 38.8233,279.4955 C51.2433,282.9675 67.1643,287.2615 80.6503,290.9185 L80.6503,290.9185 Z M34.4283,278.2595 C34.0443,278.1505 33.6643,278.0435 33.2903,277.9365 C33.6643,278.0435 34.0443,278.1505 34.4283,278.2595 L34.4283,278.2595 Z M67.0113,252.2075 C62.4513,255.7165 47.7763,255.4465 33.3953,256.3325 C19.1043,257.2135 5.1033,259.2355 1.6043,267.2405 C2.3493,267.5485 8.4493,269.9165 11.1873,270.9015 C13.9263,271.8865 17.1703,273.0115 20.9443,274.2565 C21.1633,274.3285 21.3933,274.4025 21.6333,274.4805 C21.3933,274.4035 21.1623,274.3285 20.9443,274.2565 C17.1703,273.0115 13.9263,271.8865 11.1873,270.9015 C8.4493,269.9165 2.3493,267.5485 1.6043,267.2405 C1.5253,267.4205 1.4463,267.5995 1.3783,267.7845 C-3.0707,279.9645 14.0443,284.3395 14.0443,284.3395 C28.6043,288.4345 90.0373,306.6255 90.0373,306.6255 C90.0373,306.6255 100.8783,310.8605 104.9733,298.6765 C105.0763,298.3695 105.1823,298.0525 105.2903,297.7265 C108.8693,286.9715 115.0393,266.7935 115.0393,266.7935 L67.0113,252.2075 Z" id="Fill-169" fill="#FF0048"/><path d="M67.0114,252.2074 L115.0394,266.7934 L114.0144,270.1314 L62.8894,253.9644 C62.8894,253.9644 65.0064,253.2964 65.6174,253.0364 C66.0374,252.8564 67.0114,252.2074 67.0114,252.2074" id="Fill-171" fill="#000"/><path d="M47.5866,267.5658 C46.8046,267.5658 46.1446,266.9578 46.0916,266.1658 C45.8136,261.9718 43.0486,256.5338 43.0206,256.4788 C42.6426,255.7418 42.9346,254.8378 43.6716,254.4608 C44.4076,254.0838 45.3126,254.3738 45.6906,255.1108 C45.8156,255.3558 48.7656,261.1628 49.0856,265.9658 C49.1406,266.7928 48.5146,267.5068 47.6886,267.5618 C47.6536,267.5648 47.6206,267.5658 47.5866,267.5658" id="Fill-173" fill="#F8FBF8"/><path d="M56.0817,267.1615 C55.4337,267.1615 54.8357,266.7375 54.6437,266.0845 C53.6727,262.7825 50.6867,256.0665 50.6567,255.9995 C50.3197,255.2425 50.6597,254.3555 51.4167,254.0185 C52.1737,253.6825 53.0607,254.0215 53.3967,254.7785 C53.5227,255.0615 56.4947,261.7445 57.5217,265.2385 C57.7557,266.0325 57.3007,266.8665 56.5057,267.0995 C56.3647,267.1415 56.2227,267.1615 56.0817,267.1615" id="Fill-175" fill="#F8FBF8"/><path d="M62.3503,265.6703 C61.6513,265.6703 61.0253,265.1783 60.8813,264.4653 C59.9173,259.6713 57.9733,255.3193 57.9543,255.2753 C57.6143,254.5213 57.9513,253.6333 58.7063,253.2923 C59.4613,252.9513 60.3493,253.2903 60.6893,254.0443 C60.7753,254.2323 62.7893,258.7363 63.8233,263.8733 C63.9863,264.6863 63.4603,265.4773 62.6483,265.6403 C62.5483,265.6603 62.4493,265.6703 62.3503,265.6703" id="Fill-177" fill="#F8FBF8"/><path d="M87.6237,276.35 C84.3487,285.673 97.3347,291.368 102.0777,282.109 C107.1437,272.218 91.0107,266.708 87.6237,276.35" id="Fill-179" fill="#F8FBF8"/><path d="M236.3805,276.7611 C233.1055,286.0851 246.0915,291.7801 250.8345,282.5201 C255.9005,272.6291 239.7675,267.1191 236.3805,276.7611" id="Fill-181" fill="#F8FBF8"/><path d="M290.7419,285.2816 C290.4009,285.2816 290.0589,285.1666 289.7779,284.9296 C289.1429,284.3966 289.0609,283.4506 289.5949,282.8166 L297.7249,273.1426 C298.2589,272.5106 299.2059,272.4276 299.8389,272.9596 C300.4729,273.4926 300.5549,274.4386 300.0219,275.0736 L291.8909,284.7476 C291.5949,285.0996 291.1699,285.2816 290.7419,285.2816" id="Fill-183" fill="#F8FBF8"/><path d="M285.235,281.9232 C284.888,281.9232 284.541,281.8042 284.257,281.5602 C283.63,281.0192 283.558,280.0722 284.099,279.4442 L292.047,270.2112 C292.588,269.5842 293.534,269.5122 294.162,270.0532 C294.79,270.5942 294.861,271.5402 294.32,272.1682 L286.373,281.4022 C286.076,281.7462 285.657,281.9232 285.235,281.9232" id="Fill-185" fill="#F8FBF8"/><path d="M281.4303,275.6078 C281.0223,275.6078 280.6153,275.4418 280.3193,275.1158 C279.7623,274.5028 279.8093,273.5528 280.4223,272.9978 L287.5933,266.4938 C288.2053,265.9378 289.1563,265.9828 289.7123,266.5958 C290.2693,267.2108 290.2223,268.1588 289.6093,268.7148 L282.4383,275.2188 C282.1513,275.4798 281.7893,275.6078 281.4303,275.6078" id="Fill-187" fill="#F8FBF8"/><path d="M253.0763,34.9066 L253.0803,34.9066 C253.0803,34.9066 239.5353,0.5496 218.3803,0.5496 L180.3723,0.5496 C162.2473,0.5496 139.4863,34.8306 139.4863,34.8306 L139.4873,34.8306 C121.4323,61.5686 67.7873,145.2616 39.3673,235.4866 C38.0183,239.7686 40.4183,244.3316 44.7143,245.6366 L120.4043,268.6246 C123.9643,269.7056 127.7493,267.8186 129.0303,264.3246 L194.1503,110.6596 L207.3903,259.3796 C207.5553,262.8886 210.4933,265.6236 214.0063,265.5366 L308.6253,263.1846 C312.0893,263.0986 314.8503,260.2646 314.832388,256.8006 C314.7073,232.8956 300.8013,150.5036 253.0763,34.9066" id="Fill-189" fill="#232E68"/><path d="M101.6798,141.7572 C105.4448,128.3422 102.8038,114.9592 98.3168,102.2232 C86.4948,123.5182 73.9098,148.1192 62.4098,174.4972 C63.9758,174.2342 65.5508,173.9042 67.1268,173.5252 C83.6438,169.5402 97.0078,158.4042 101.6798,141.7572" id="Fill-191" fill="#4947D9"/><path d="M168.8087,67.4467 C181.6517,67.6107 194.6367,67.0757 207.3007,64.7837 C220.8987,62.3227 236.1827,52.4337 237.5177,37.7307 C239.1257,20.0247 231.0187,8.0807 218.3807,0.5497 L180.3717,0.5497 C162.0817,0.5497 139.4867,34.8307 139.4867,34.8307 L139.4867,34.8307 C135.7287,40.3957 130.4247,48.4367 124.1307,58.4837 C125.4977,59.3087 126.9067,60.0577 128.3517,60.7197 C141.1557,66.5947 154.9237,67.2697 168.8087,67.4467" id="Fill-193" fill="#4947D9"/><path d="M212.946,107.7728 C211.064,103.7978 208.57,100.0728 205.686,96.7508 C198.072,87.9788 186.581,84.1018 175.354,86.3328 C173.378,86.2408 171.34,86.4368 169.282,86.9638 C145.493,93.0578 136.677,119.2968 138.804,141.4678 C140.113,155.1088 149.196,166.2128 161.603,171.8248 C163.49,172.6778 165.411,173.3548 167.351,173.8988 L194.15,110.6598 L199.454,170.2378 C199.894,170.0168 200.336,169.8048 200.771,169.5718 C221.769,158.2968 227.356,126.4518 212.946,107.7728" id="Fill-195" fill="#4947D9"/><path d="M259.3273,61.3285 C251.8333,69.8885 248.4233,81.6955 248.8143,92.9885 C249.2513,105.5795 254.3703,117.8075 265.6363,124.4345 C272.3073,128.3585 279.9323,129.7665 287.5713,129.7285 C280.7823,108.0045 272.4843,84.0645 262.4283,58.2295 C261.3483,59.1795 260.3103,60.2055 259.3273,61.3285" id="Fill-197" fill="#4947D9"/><path d="M314.508,258.8236 C314.718,258.1866 314.836,257.5086 314.833056,256.8006 C314.763,243.5706 310.469,212.4206 298.561,167.6486 C296.996,167.9466 295.43,168.2346 293.858,168.4936 C293.439,168.5626 287.26,169.4266 291.697,168.8616 C281.7,170.1336 272.348,171.1636 264.611,178.3246 C252.893,189.1716 249.45,208.7046 249.651,224.0006 C249.872,240.8696 258.098,258.1796 274.392,264.0356 L305.566,263.2606 C305.699,263.2176 305.836,263.1756 305.967,263.1306 C309.133,262.0396 311.955,260.5806 314.508,258.8236" id="Fill-199" fill="#4947D9"/><path d="M124.9572,191.2445 C108.1352,197.0975 96.8042,214.7065 93.1392,231.5745 C91.1352,240.7955 91.0762,249.4525 92.4992,258.7215 C92.5782,259.2365 92.6872,259.7355 92.7902,260.2375 L120.4042,268.6245 C123.9642,269.7055 127.7492,267.8185 129.0302,264.3245 L158.8832,193.8795 C156.6162,192.4375 154.1442,191.3155 151.6222,190.6185 C143.6912,188.4275 132.6652,188.5625 124.9572,191.2445" id="Fill-201" fill="#4947D9"/><path d="M203.1169,211.3773 L207.3899,259.3793 C207.4919,261.5353 208.6419,263.3963 210.3269,264.4913 C212.8879,258.8533 214.0849,252.6683 214.088918,246.2423 C214.0969,234.7203 211.4549,220.0643 203.1169,211.3773" id="Fill-203" fill="#4947D9"/><path d="M42.7599,238.0609 C50.5259,229.1599 51.4249,217.5869 49.5699,206.3979 C49.5569,206.3189 49.5369,206.2449 49.5239,206.1659 C45.8889,215.8179 42.4769,225.6129 39.3669,235.4869 C38.7599,237.4149 38.9179,239.3979 39.6609,241.1169 C40.7519,240.1829 41.7919,239.1699 42.7599,238.0609" id="Fill-205" fill="#4947D9"/></g></g></g></g><g id="Upper Body" transform="translate(-1.000000, 0.000000) scale(1 1)"><g id="Upper Body/Typing" stroke="none" stroke-width="1" fill="none" fill-rule="evenodd"><g id="Group-691" transform="translate(249.500000, 180.500000)"><g id="Group-330" transform="translate(0.000000, 0.095000)"><path d="M272.9796,124.1949 C271.3596,118.7769 261.3096,78.7549 261.3096,78.7549 C261.3096,78.7549 248.5016,0.8069 183.1236,0.8069 C141.9586,0.8069 116.3966,23.8019 98.7236,55.6869 C109.9366,63.1949 124.9246,73.3469 139.4476,83.2189 C150.2096,62.9009 163.7736,46.6869 179.7586,46.3049 C207.0626,45.6549 215.2216,72.8509 218.6586,89.3419 L221.1816,103.0339 C221.1816,103.0339 200.2936,131.0109 208.6716,137.0599 C214.2886,141.1149 224.8136,124.1949 224.8136,124.1949 C224.8136,124.1949 231.2856,167.2489 239.5856,166.0989 C246.7476,164.8749 243.4396,148.9609 241.2116,140.6939 C242.8336,145.3239 245.7916,151.5069 249.9586,151.2009 C254.1946,150.8889 254.1236,144.7699 253.3596,139.8269 C254.6736,144.1929 257.0366,149.0989 260.9256,148.2599 C265.4746,147.2799 264.7596,139.8879 263.8616,135.3419 C265.0136,139.3799 267.3366,145.3139 270.9266,144.6199 C276.6166,143.5189 274.6986,129.9459 272.9796,124.1949" id="Fill-286" fill="#feb1cd"/><path d="M243.5919,153.7867 C242.8519,153.7867 242.2069,153.2377 242.1069,152.4837 C241.0139,144.2467 237.9949,130.4207 237.9649,130.2817 C237.7869,129.4737 238.2999,128.6737 239.1099,128.4957 C239.9199,128.3187 240.7179,128.8317 240.8949,129.6407 C240.9259,129.7807 243.9709,143.7287 245.0809,152.0897 C245.1899,152.9107 244.6129,153.6647 243.7909,153.7727 C243.7249,153.7827 243.6569,153.7867 243.5919,153.7867" id="Fill-288" fill="#000"/><path d="M253.044,150.3854 C252.817,150.3854 252.587,150.3334 252.371,150.2254 C251.635,149.8554 251.336,148.9614 251.699,148.2234 C251.734,148.1474 253.079,145.1864 252.271,139.2964 C251.374,132.7594 249.945,128.6854 249.932,128.6454 C249.654,127.8644 250.063,127.0074 250.843,126.7304 C251.627,126.4514 252.481,126.8614 252.758,127.6394 C252.82,127.8154 254.3,132.0184 255.243,138.8884 C256.198,145.8494 254.46,149.4104 254.385,149.5594 C254.122,150.0824 253.593,150.3854 253.044,150.3854" id="Fill-290" fill="#000"/><path d="M263.1133,148.4088 C262.8143,148.4088 262.5123,148.3198 262.2503,148.1348 C261.5813,147.6628 261.4153,146.7428 261.8723,146.0678 C261.9373,145.9608 263.6693,143.0298 262.3833,135.5978 C261.4453,130.1778 260.2423,127.3658 260.2303,127.3388 C259.9013,126.5798 260.2483,125.6958 261.0073,125.3658 C261.7663,125.0348 262.6463,125.3798 262.9793,126.1378 C263.0343,126.2628 264.3323,129.2628 265.3403,135.0868 C266.8603,143.8798 264.6023,147.3998 264.3413,147.7718 C264.0493,148.1868 263.5843,148.4088 263.1133,148.4088" id="Fill-292" fill="#000"/><path d="M51.6607,150.2623 C36.0597,189.2583 89.7487,209.6763 107.5187,167.1123 C107.5187,167.1123 122.7797,131.7283 141.9887,88.2983 C143.4987,84.8833 142.0807,80.5753 138.8527,78.6993 C125.3627,70.8613 112.7047,62.0423 101.7067,55.3133 C98.6427,53.4383 94.6257,54.3713 92.7567,57.4383 C74.2137,87.8563 62.0177,124.3733 51.6607,150.2623" id="Fill-294" fill="#3164CF"/><path d="M7.0411,286.778 L131.3161,286.778 C134.4421,286.778 137.0721,284.435 137.4311,281.33 L126.9931,221.6 C126.9931,221.6 124.8321,210.71 136.7481,204.53 C144.8621,200.321 150.4931,193.667 151.1581,189.455 C151.8231,185.242 154.2611,174.823 140.7381,165.955 C127.2151,157.087 121.4511,154.426 116.5731,144.229 C111.6961,134.031 111.8001,122.032 100.6111,122.032 L51.5681,122.032 C37.6501,122.032 25.7701,132.081 23.4721,145.807 C16.9911,184.503 4.5241,258.871 0.9731,279.59 C0.3291,283.35 3.2261,286.778 7.0411,286.778" id="Fill-296" fill="#AFDCFD"/><path d="M46.2198,165.4762 C46.2198,165.4762 22.4668,179.0082 41.3778,207.9402 C60.2878,236.8712 80.9058,267.1322 80.9058,267.1322 C80.9058,267.1322 102.5208,302.7132 144.7538,278.1062 C187.6278,253.1242 200.3108,244.7492 200.3108,244.7492 L256.8388,245.7462 C256.8388,245.7462 232.1008,185.5802 183.7958,201.6402 C180.6158,202.6972 177.5538,204.0782 174.5878,205.6382 L118.4828,234.8752 L85.5608,181.0032 C85.5608,181.0032 70.2638,151.4082 46.2198,165.4762" id="Fill-298" fill="#feb1cd"/><path d="M55.6856,229.7438 L100.8486,200.3698 C103.6966,198.5168 104.5906,194.7578 102.8706,191.8278 C93.8606,176.4798 72.8146,134.9558 40.4476,142.2718 C29.2756,144.7978 13.6226,164.2198 25.8156,189.9358 C34.0166,207.2338 42.3186,220.8198 46.8746,227.8618 C48.7886,230.8188 52.7336,231.6648 55.6856,229.7438" id="Fill-300" fill="#AFDCFD"/><path d="M238.0606,238.3971 C237.8696,238.3971 237.6746,238.3601 237.4876,238.2831 C228.7766,234.6701 212.9346,234.4911 212.7756,234.4891 C211.9466,234.4821 211.2816,233.8041 211.288545,232.9761 C211.2946,232.1481 211.9666,231.4361 212.8006,231.4891 C213.4736,231.4951 229.3836,231.6741 238.6356,235.5111 C239.4016,235.8291 239.7646,236.7071 239.4476,237.4711 C239.2076,238.0481 238.6496,238.3971 238.0606,238.3971" id="Fill-302" fill="#000"/><path d="M236.9522,226.8688 C236.7132,226.8688 236.4702,226.8108 236.2452,226.6908 C231.7372,224.2748 217.7252,223.0378 212.7072,222.7648 C211.8802,222.7208 211.2452,222.0138 211.2902,221.1858 C211.3362,220.3588 212.0452,219.7098 212.8692,219.7698 C213.6332,219.8108 231.6442,220.8218 237.6612,224.0468 C238.3912,224.4378 238.6672,225.3468 238.2752,226.0768 C238.0052,226.5818 237.4872,226.8688 236.9522,226.8688" id="Fill-304" fill="#000"/><path d="M237.3126,218.1949 C237.0346,218.1949 236.7526,218.1179 236.5016,217.9559 C230.8336,214.3059 212.8806,213.2149 212.7006,213.2049 C211.8736,213.1559 211.2426,212.4459 211.2916,211.6189 C211.3396,210.7929 212.0296,210.1589 212.8756,210.2099 C213.6456,210.2549 231.7976,211.3599 238.1246,215.4329 C238.8226,215.8819 239.0236,216.8099 238.5756,217.5069 C238.2886,217.9519 237.8046,218.1949 237.3126,218.1949" id="Fill-306" fill="#000"/><path d="M55.521,231.3463 C55.017,231.3463 54.525,231.0923 54.242,230.6313 C53.757,229.8433 53.679,229.2563 53.628,228.8683 C53.593,228.6063 53.583,228.5273 53.433,228.2833 C53.177,227.8673 53.035,227.7003 52.854,227.4903 C52.631,227.2293 52.378,226.9343 51.999,226.3163 C51.61,225.6833 51.459,225.2933 51.337,224.9803 C51.236,224.7203 51.164,224.5323 50.917,224.1303 C50.805,223.9483 50.774,223.9303 50.539,223.7993 C50.162,223.5883 49.591,223.2693 49.069,222.4193 C48.799,221.9803 48.648,221.7913 48.475,221.5743 C48.269,221.3163 48.036,221.0243 47.67,220.4283 C47.225,219.7023 47.109,219.2053 47.024,218.8423 C46.964,218.5853 46.935,218.4563 46.744,218.1473 C46.467,217.6963 46.305,217.4853 46.143,217.2733 C45.946,217.0173 45.723,216.7273 45.365,216.1443 L44.091,214.0753 C43.869,213.7143 43.744,213.5913 43.554,213.4053 C43.296,213.1523 42.977,212.8373 42.563,212.1633 C42.113,211.4313 42.001,210.9253 41.919,210.5573 C41.863,210.3033 41.835,210.1763 41.649,209.8733 C41.375,209.4283 41.226,209.2363 41.052,209.0133 C40.852,208.7563 40.625,208.4663 40.264,207.8783 C39.827,207.1683 39.703,206.6863 39.612,206.3333 C39.547,206.0773 39.51,205.9373 39.311,205.6123 C38.911,204.9603 38.766,204.5543 38.649,204.2273 C38.559,203.9733 38.493,203.7893 38.257,203.4063 C38.034,203.0423 37.908,202.9183 37.718,202.7293 C37.462,202.4773 37.144,202.1613 36.731,201.4903 C36.476,201.0753 36.334,200.9093 36.152,200.7003 C35.927,200.4383 35.671,200.1423 35.29,199.5213 C35.021,199.0823 34.87,198.8963 34.695,198.6793 C34.487,198.4193 34.25,198.1263 33.881,197.5263 C33.61,197.0843 33.459,196.8953 33.285,196.6753 C33.08,196.4173 32.846,196.1243 32.48,195.5283 C32.046,194.8223 32.268,193.8983 32.973,193.4643 C33.681,193.0323 34.604,193.2523 35.037,193.9573 C35.308,194.3993 35.458,194.5883 35.633,194.8083 C35.838,195.0673 36.071,195.3593 36.438,195.9553 C36.707,196.3943 36.857,196.5803 37.032,196.7973 C37.24,197.0573 37.477,197.3503 37.846,197.9503 C38.1,198.3653 38.243,198.5313 38.424,198.7403 C38.649,199.0013 38.905,199.2983 39.288,199.9193 C39.511,200.2843 39.637,200.4083 39.828,200.5973 C40.083,200.8493 40.401,201.1633 40.813,201.8353 C41.214,202.4883 41.359,202.8943 41.475,203.2203 C41.565,203.4743 41.631,203.6583 41.867,204.0413 C42.303,204.7523 42.427,205.2343 42.518,205.5863 C42.583,205.8423 42.62,205.9833 42.819,206.3083 C43.093,206.7523 43.243,206.9453 43.417,207.1663 C43.617,207.4233 43.844,207.7143 44.206,208.3033 C44.656,209.0343 44.767,209.5403 44.849,209.9093 C44.905,210.1623 44.933,210.2903 45.119,210.5923 C45.341,210.9543 45.466,211.0773 45.657,211.2653 C45.914,211.5173 46.233,211.8313 46.647,212.5053 L47.921,214.5743 C48.198,215.0243 48.36,215.2353 48.522,215.4463 C48.719,215.7013 48.941,215.9923 49.301,216.5763 C49.746,217.3023 49.861,217.7993 49.946,218.1623 C50.006,218.4193 50.036,218.5483 50.226,218.8583 C50.495,219.2963 50.646,219.4843 50.819,219.7023 C51.025,219.9603 51.259,220.2523 51.625,220.8493 C51.737,221.0323 51.768,221.0483 52.002,221.1803 C52.38,221.3913 52.951,221.7093 53.473,222.5603 C53.862,223.1943 54.013,223.5823 54.134,223.8953 C54.235,224.1563 54.309,224.3443 54.555,224.7453 C54.812,225.1623 54.954,225.3283 55.134,225.5393 C55.357,225.8003 55.609,226.0953 55.988,226.7123 C56.473,227.5003 56.551,228.0863 56.602,228.4753 C56.637,228.7373 56.647,228.8163 56.797,229.0603 C57.231,229.7663 57.011,230.6903 56.305,231.1233 C56.06,231.2743 55.789,231.3463 55.521,231.3463" id="Fill-308" fill="#000"/><polygon id="Fill-310" fill="#5A593D" points="200.3111 244.7496 177.0391 204.4046 168.3981 208.8636 192.7801 249.4956"/><path d="M184.669,235.9781 C184.744,236.1041 192.44,231.1051 192.44,231.1051 L189.843,226.4211 L181.69,231.0141 L184.669,235.9781 Z" id="Fill-312" fill="#000"/><path d="M172.4405,224.5924 C173.2165,236.0104 191.6275,235.4004 190.9515,223.4544 C190.2865,211.7064 171.5685,211.7634 172.4405,224.5924" id="Fill-314" fill="#F8FBF8"/><path d="M180.5323,227.1735 C180.3423,227.1735 180.1493,227.1375 179.9683,227.0635 C179.4643,226.8585 179.1103,226.3975 179.0443,225.8575 L178.2133,219.1225 C178.1113,218.3005 178.6953,217.5525 179.5173,217.4505 C180.3363,217.3515 181.0883,217.9335 181.1893,218.7555 L181.6913,222.8205 L186.1273,219.2655 C186.7753,218.7485 187.7183,218.8515 188.2353,219.4975 C188.7543,220.1445 188.6503,221.0885 188.0043,221.6065 L181.4703,226.8435 C181.2003,227.0605 180.8683,227.1735 180.5323,227.1735" id="Fill-316" fill="#000"/><path d="M332.835,286.7828 C332.051,290.6748 328.632,293.4728 324.663,293.4728 L116.832,293.4728 C107.355,293.4728 109.168,284.5138 109.168,284.5138 C109.683,275.3498 117.997,275.8488 117.997,275.8488 L211.835,276.3258 L231.451,188.2758 C232.377,184.1208 236.172,181.2448 240.423,181.4768 L343.515,187.1078 C347.885,187.3468 351.043,191.3838 350.222,195.6828 L332.835,286.7828 Z" id="Fill-318" fill="#4166FF"/><path d="M292.6617,201.7516 C291.0497,208.1646 301.3167,209.6386 302.5317,203.9336 C303.9857,197.1056 294.4307,194.7136 292.6617,201.7516" id="Fill-320" fill="#F8FBF8"/><path d="M235.3643,213.0729 L239.3873,193.2089 C240.0353,190.0079 242.8923,187.7359 246.1573,187.8259 L271.7883,188.5299 C271.7883,188.5299 277.3453,188.5849 277.373446,192.5679 C277.4023,196.6929 273.1143,197.4669 268.0693,197.4669 C263.0233,197.4669 260.9603,201.9349 260.9603,201.9349 C260.9603,201.9349 258.6633,206.6429 253.7423,206.5749 C247.5553,206.4889 246.8683,211.2159 246.8683,211.2159 C246.8683,211.2159 244.7313,217.8299 240.5093,218.7769 C236.2983,219.7219 234.5793,216.3709 235.3643,213.0729" id="Fill-322" fill="#AFDCFD"/><path d="M327.2501,280.2145 L327.1611,280.2145 C326.3151,280.1995 325.8361,280.0295 325.4851,279.9055 C325.2411,279.8185 325.1181,279.7755 324.7611,279.7695 C323.8521,279.7535 323.3241,279.5185 322.9751,279.3625 C322.7361,279.2565 322.6561,279.2205 322.3601,279.2155 C322.0581,279.2105 321.9681,279.2455 321.7291,279.3395 C321.3561,279.4855 320.8401,279.6845 319.9461,279.6725 C319.2441,279.6605 318.8731,279.6045 318.5451,279.5535 C318.2661,279.5115 318.0451,279.4775 317.5461,279.4695 C316.9061,279.4575 316.5871,279.4365 316.2681,279.4155 C315.9851,279.3965 315.7031,279.3775 315.1401,279.3675 C314.4771,279.3565 314.1461,279.3235 313.8151,279.2915 C313.5461,279.2655 313.2751,279.2385 312.7341,279.2305 C312.3821,279.2245 312.2641,279.2635 312.0211,279.3435 C311.6651,279.4605 311.1691,279.6165 310.3211,279.6065 C309.9351,279.5975 309.7821,279.6405 309.5341,279.7075 C309.1911,279.8015 308.7291,279.9275 307.9081,279.9145 C307.0741,279.9005 306.5921,279.7175 306.1321,279.5145 C305.8921,279.4085 305.8121,279.3735 305.5131,279.3685 C304.9931,279.3565 304.7611,279.3845 304.4851,279.4115 C304.1611,279.4445 303.7901,279.4825 303.1041,279.4715 C302.2561,279.4565 301.7761,279.2845 301.4261,279.1585 C301.1831,279.0715 301.0611,279.0285 300.7071,279.0235 L298.3021,278.9795 C298.0891,278.9735 298.0711,278.9885 297.8361,279.1165 C297.4571,279.3225 296.8861,279.6105 295.8871,279.6185 C294.9541,279.6035 294.4151,279.3405 294.0601,279.1675 C293.8251,279.0535 293.7631,279.0235 293.4941,279.0185 C293.2201,279.0095 293.1611,279.0415 292.9221,279.1485 C292.5601,279.3085 291.9891,279.5485 291.0811,279.5355 C290.1351,279.5195 289.5911,279.2425 289.2301,279.0605 C288.9971,278.9425 288.9421,278.9135 288.6871,278.9095 C288.4071,278.9065 288.3161,278.9375 288.0781,279.0355 C287.7231,279.1815 287.1551,279.4045 286.2771,279.3865 C285.7521,279.3755 285.4921,279.4005 285.2291,279.4215 C284.9131,279.4485 284.5501,279.4785 283.8771,279.4685 C283.0561,279.4535 282.5891,279.3055 282.2491,279.1965 C281.9991,279.1165 281.8621,279.0725 281.4821,279.0675 C281.0211,279.0595 280.8311,279.0925 280.5621,279.1395 C280.2311,279.1975 279.8231,279.2725 279.0741,279.2575 C278.5781,279.2425 278.3621,279.2775 278.0871,279.3125 C277.7531,279.3555 277.3721,279.4025 276.6671,279.3915 C275.5531,279.3725 274.9311,278.8725 274.5601,278.5735 C274.4891,278.5175 274.3921,278.4395 274.3591,278.4245 C273.7121,278.4075 273.4261,278.4155 273.1411,278.4225 C272.8231,278.4305 272.5081,278.4375 271.8741,278.4285 C271.4811,278.4235 271.3481,278.4605 271.0931,278.5295 C270.7501,278.6245 270.2881,278.7555 269.4641,278.7395 C268.8001,278.7285 268.4691,278.6945 268.1381,278.6615 C267.8691,278.6345 267.6011,278.6075 267.0631,278.5985 C266.6141,278.5915 266.4141,278.6245 266.1461,278.6715 C265.8141,278.7305 265.4031,278.8065 264.6561,278.7905 C263.8531,278.7775 263.4141,278.6495 263.0611,278.5455 C262.8091,278.4725 262.6561,278.4275 262.2571,278.4205 C261.5961,278.4085 261.2671,278.3775 260.9371,278.3455 C260.6671,278.3195 260.3961,278.2935 259.8551,278.2845 C259.4951,278.2775 259.3961,278.3165 259.1491,278.3995 C258.7921,278.5185 258.2951,278.6815 257.4451,278.6665 C256.7881,278.6545 256.4601,278.6235 256.1321,278.5935 C255.8601,278.5685 255.5891,278.5425 255.0451,278.5335 C254.2161,278.5195 253.7451,278.3635 253.4011,278.2505 C253.1551,278.1695 253.0211,278.1245 252.6471,278.1185 C252.2911,278.1095 252.1971,278.1515 251.9541,278.2345 C251.5941,278.3585 251.0981,278.5295 250.2361,278.5125 L247.8341,278.4755 C247.3991,278.4645 247.2341,278.5055 246.9731,278.5615 C246.6281,278.6355 246.1851,278.7165 245.4281,278.7145 C244.7061,278.7015 244.3251,278.6335 243.9881,278.5725 C243.7211,278.5255 243.5091,278.4865 243.0291,278.4795 C242.4471,278.4685 242.1551,278.4715 241.8641,278.4735 C241.5541,278.4755 241.2421,278.4775 240.6271,278.4675 C240.1481,278.4595 239.9301,278.4885 239.6591,278.5275 C239.3221,278.5745 238.9451,278.6285 238.2201,278.6165 L235.8161,278.5675 C234.8751,278.5505 234.3331,278.2785 233.9751,278.0995 C233.7391,277.9815 233.6841,277.9535 233.4251,277.9485 C232.7831,277.9385 232.4631,277.9155 232.1421,277.8925 C231.8631,277.8725 231.5831,277.8525 231.0251,277.8435 C230.7171,277.8365 230.6101,277.8745 230.3711,277.9635 C230.0041,278.1015 229.4711,278.2835 228.6171,278.2745 C228.1691,278.2625 227.9851,278.3025 227.7261,278.3535 C227.3891,278.4185 226.9641,278.4975 226.2121,278.4865 C225.4691,278.4745 225.0601,278.3885 224.7311,278.3195 C224.4651,278.2635 224.2721,278.2235 223.8151,278.2155 C222.8341,278.1985 222.2751,277.8835 221.9061,277.6745 C221.6781,277.5455 221.6441,277.5255 221.4241,277.5225 C221.3171,277.5145 221.3201,277.5215 221.1181,277.6675 C220.7391,277.9425 220.0601,278.3865 219.0051,278.3815 C217.9501,278.3635 217.3451,277.9445 216.9831,277.6955 C216.7631,277.5435 216.7631,277.5435 216.6161,277.5405 C216.1701,277.5285 215.9891,277.5695 215.7291,277.6205 C215.3921,277.6875 214.9831,277.7625 214.2121,277.7575 C213.5841,277.7465 213.2711,277.7305 212.9581,277.7135 C212.6721,277.6975 212.3851,277.6835 211.8121,277.6735 C210.9841,277.6585 210.3241,276.9765 210.337881,276.1475 C210.3531,275.3185 211.0271,274.6645 211.8631,274.6735 C212.4911,274.6845 212.8041,274.7005 213.1171,274.7175 C213.4031,274.7335 213.6901,274.7475 214.2631,274.7575 C214.7061,274.7665 214.8911,274.7285 215.1491,274.6775 C215.4871,274.6105 215.8981,274.5325 216.6671,274.5405 C217.7221,274.5595 218.3271,274.9775 218.6881,275.2275 C218.9091,275.3795 218.9091,275.3795 219.0561,275.3815 C219.1481,275.3875 219.1551,275.3845 219.3601,275.2365 C219.7391,274.9625 220.4021,274.5385 221.4751,274.5225 C222.4561,274.5385 223.0151,274.8545 223.3841,275.0635 C223.6121,275.1925 223.6461,275.2125 223.8661,275.2155 C224.6091,275.2285 225.0191,275.3145 225.3471,275.3835 C225.6131,275.4395 225.8061,275.4795 226.2631,275.4865 C226.7061,275.4985 226.8941,275.4575 227.1541,275.4075 C227.4911,275.3425 227.9191,275.2685 228.6681,275.2745 C228.9931,275.2795 229.0841,275.2425 229.3221,275.1525 C229.6891,275.0155 230.1861,274.8225 231.0761,274.8435 C231.7161,274.8545 232.0361,274.8775 232.3551,274.9005 C232.6361,274.9195 232.9151,274.9405 233.4761,274.9485 C234.4181,274.9655 234.9601,275.2365 235.3191,275.4175 C235.5541,275.5345 235.6091,275.5625 235.8671,275.5675 L238.2711,275.6165 C238.7601,275.6245 238.9681,275.5955 239.2381,275.5575 C239.5751,275.5095 239.9501,275.4575 240.6781,275.4675 C241.2611,275.4775 241.5531,275.4755 241.8431,275.4735 C242.1521,275.4705 242.4641,275.4685 243.0801,275.4795 C243.8021,275.4915 244.1831,275.5605 244.5201,275.6205 C244.7871,275.6685 244.9991,275.7065 245.4791,275.7145 C245.9091,275.7265 246.0781,275.6855 246.3391,275.6285 C246.6841,275.5545 247.1271,275.4655 247.8851,275.4755 L250.2871,275.5125 C250.6431,275.5165 250.7371,275.4805 250.9801,275.3975 C251.3411,275.2735 251.8361,275.1105 252.6981,275.1185 C253.5271,275.1325 253.9981,275.2885 254.3421,275.4025 C254.5881,275.4835 254.7231,275.5275 255.0961,275.5335 C255.7541,275.5445 256.0831,275.5755 256.4121,275.6065 C256.6831,275.6315 256.9541,275.6565 257.4961,275.6665 C257.8551,275.6715 257.9541,275.6345 258.2021,275.5525 C258.5611,275.4335 259.0631,275.2735 259.9061,275.2845 C260.5661,275.2965 260.8961,275.3275 261.2251,275.3605 C261.4951,275.3855 261.7661,275.4115 262.3081,275.4205 C263.1101,275.4345 263.5491,275.5635 263.9021,275.6655 C264.1541,275.7395 264.3071,275.7835 264.7071,275.7905 C265.1571,275.8025 265.3561,275.7655 265.6231,275.7175 C265.9561,275.6585 266.3831,275.5895 267.1141,275.5985 C267.7781,275.6105 268.1091,275.6435 268.4401,275.6765 C268.7091,275.7035 268.9781,275.7315 269.5151,275.7395 C269.9061,275.7465 270.0411,275.7075 270.2961,275.6385 C270.6401,275.5435 271.1091,275.4215 271.9251,275.4285 C272.4921,275.4385 272.7781,275.4305 273.0631,275.4235 C273.3811,275.4155 273.6971,275.4075 274.3301,275.4175 C275.4451,275.4375 276.0671,275.9375 276.4381,276.2355 C276.5091,276.2925 276.6051,276.3695 276.6391,276.3855 C277.2011,276.4015 277.4291,276.3725 277.7051,276.3365 C278.0381,276.2945 278.4181,276.2485 279.1251,276.2575 C279.5861,276.2685 279.7761,276.2325 280.0451,276.1855 C280.3761,276.1265 280.8031,276.0565 281.5331,276.0675 C282.3541,276.0805 282.8201,276.2305 283.1601,276.3385 C283.4101,276.4175 283.5481,276.4615 283.9281,276.4685 C284.4531,276.4795 284.7141,276.4555 284.9761,276.4335 C285.2921,276.4065 285.6561,276.3785 286.3281,276.3865 C286.6061,276.3985 286.6981,276.3595 286.9371,276.2615 C287.2911,276.1145 287.8551,275.8955 288.7371,275.9095 C289.6841,275.9265 290.2281,276.2025 290.5881,276.3855 C290.8211,276.5035 290.8761,276.5315 291.1321,276.5355 C291.4111,276.5465 291.4671,276.5125 291.7051,276.4055 C292.0671,276.2455 292.6461,276.0065 293.5451,276.0185 C294.4781,276.0345 295.0171,276.2965 295.3721,276.4705 C295.6061,276.5835 295.6691,276.6145 295.9381,276.6185 C296.1551,276.6295 296.1671,276.6095 296.4011,276.4825 C296.7811,276.2755 297.3451,275.9775 298.3531,275.9795 L300.7581,276.0235 C301.6061,276.0375 302.0861,276.2095 302.4371,276.3345 C302.6801,276.4215 302.8011,276.4655 303.1541,276.4715 C303.6731,276.4805 303.9061,276.4555 304.1821,276.4275 C304.5061,276.3955 304.8711,276.3575 305.5631,276.3685 C306.3971,276.3835 306.8801,276.5665 307.3401,276.7685 C307.5801,276.8735 307.6601,276.9095 307.9591,276.9145 C308.3521,276.9175 308.4991,276.8805 308.7471,276.8135 C309.0901,276.7195 309.5521,276.5895 310.3721,276.6065 C310.7201,276.6155 310.8431,276.5715 311.0861,276.4925 C311.4421,276.3755 311.9461,276.2215 312.7851,276.2305 C313.4471,276.2415 313.7771,276.2745 314.1081,276.3065 C314.3781,276.3325 314.6481,276.3595 315.1901,276.3675 C315.8291,276.3795 316.1481,276.4015 316.4681,276.4215 C316.7501,276.4415 317.0321,276.4595 317.5971,276.4695 C318.2991,276.4815 318.6701,276.5375 318.9981,276.5885 C319.2771,276.6305 319.4981,276.6645 319.9971,276.6725 C320.3091,276.6835 320.3901,276.6435 320.6291,276.5485 C321.0011,276.4015 321.5081,276.1955 322.4111,276.2155 C323.3191,276.2315 323.8471,276.4665 324.1961,276.6225 C324.4351,276.7295 324.5151,276.7645 324.8121,276.7695 C325.6581,276.7835 326.1381,276.9535 326.4881,277.0775 C326.7321,277.1645 326.8551,277.2085 327.2131,277.2145 C327.4791,277.2185 327.5581,277.1885 327.7941,277.0845 C328.1551,276.9255 328.6981,276.6775 329.6321,276.7005 C330.5101,276.7155 331.0031,276.9115 331.3631,277.0555 C331.6071,277.1515 331.7091,277.1925 332.0381,277.1975 C332.1981,277.2025 332.1981,277.2005 332.4331,277.0545 C332.8021,276.8245 333.3971,276.4505 334.4651,276.4575 C335.2931,276.4725 335.9531,277.1545 335.939319,277.9835 C335.9261,278.8125 335.2201,279.4325 334.4141,279.4575 C334.2581,279.4575 334.2541,279.4545 334.0191,279.6015 C333.6501,279.8305 333.0611,280.1975 331.9871,280.1975 C331.1091,280.1825 330.6161,279.9855 330.2561,279.8435 C330.0121,279.7455 329.9101,279.7055 329.5811,279.7005 C329.3001,279.6935 329.2371,279.7265 329.0021,279.8305 C328.6511,279.9845 328.1281,280.2145 327.2501,280.2145" id="Fill-324" fill="#000"/><path d="M79.3086,92.9147 L67.9096,92.9147 C62.7556,92.9147 58.3696,96.6087 57.4536,101.6497 C57.4436,101.7127 57.4346,101.7727 57.4246,101.8367 L57.4196,101.8697 L57.4196,101.8707 C57.3826,102.1157 57.3446,102.3657 57.3076,102.6147 C55.9806,111.3557 54.3426,122.0667 54.3426,122.0667 L89.7756,122.0667 L89.8476,114.3017 L89.9456,103.6497 C90.0006,97.7367 85.2226,92.9147 79.3086,92.9147" id="Fill-326" fill="#feb1cd"/><path d="M89.7755,122.067 C75.9005,121.091 72.1095,118.116 72.2435,115.639 C72.3625,113.421 74.4475,113.73 75.3585,113.751 C79.3725,113.841 89.8475,114.301 89.8475,114.301" id="Fill-328" fill="#000"/></g></g></g></g><g id="Head" transform="translate(204.000000, 145.000000) scale(1 1)"><g id="Head/Long Straight Hair 1" stroke="none" stroke-width="1" fill="none" fill-rule="evenodd"><g id="Group-183" transform="translate(54.000000, 86.000000)"><g id="Group-30" transform="translate(0.000000, 0.738000)"><path d="M95.2372,32.1413 C93.6952,29.0933 89.1262,29.7243 87.7992,29.9203 C86.4842,24.3393 85.0672,19.3443 83.7802,16.9373 C81.0752,11.8793 72.8292,6.5653 59.6402,8.6063 C50.8832,9.9613 41.5572,18.1303 47.6142,32.3513 C47.6142,32.3513 49.3472,35.7983 48.5172,41.4833 C48.4262,42.1093 48.2962,42.9843 48.1402,44.0263 L48.1392,44.0333 C47.8752,45.7923 47.5352,48.0493 47.1612,50.5133 C47.1522,50.5763 47.1432,50.6373 47.1332,50.7003 L47.1282,50.7343 C47.0912,50.9793 47.0532,51.2303 47.0152,51.4793 C46.7852,54.0683 47.4922,62.5433 66.5692,62.6403 L79.5552,63.1653 L79.7532,63.1733 C79.7532,63.1733 84.1052,63.1253 86.7382,63.1253 C92.2122,63.1253 93.1532,57.9073 92.5382,54.0443 C92.2852,52.4563 91.3632,47.0283 90.1162,40.7243 C96.2292,38.7723 96.4632,34.5663 95.2372,32.1413" id="Fill-14" fill="#feb1cd"/><path d="M88.4906,38.0016 C88.6536,39.7836 91.8156,39.2826 91.5526,37.5086 C91.2436,35.4306 88.2996,35.9136 88.4906,38.0016" id="Fill-16" fill="#000"/><path d="M67.5155,28.4782 C67.3565,26.2582 69.1355,24.3862 71.3605,24.4052 C76.5325,24.4502 84.6195,24.4942 86.4755,24.3612 C89.2575,24.1622 90.9655,24.1122 90.4665,20.8702 C89.9675,17.6272 90.5528301,1.7072 64.8665,0.5012 C46.0125,-0.3828 38.8455,9.6462 35.6865,25.4422 C35.6865,25.4422 26.6245,28.0332 23.5485,38.0432 C20.4725,48.0542 24.1305,52.8762 24.1305,52.8762 C24.1305,52.8762 13.1565,54.2902 8.3345,67.2592 C3.5135,80.2282 7.5035,88.1252 10.3295,91.2022 C10.3295,91.2022 0.3535,98.1022 0.43598494,112.4852 C0.5195,126.8672 10.5795,134.6812 21.3875,135.5132 C32.1945,136.3442 43.1685,130.6082 47.6575,119.3012 C52.1465,107.9962 46.1615,94.6112 46.1615,94.6112 C46.1615,94.6112 54.1425,86.7412 54.3085,76.8742 C54.4745,67.0092 49.9745,64.3492 49.9745,64.3492 C49.9745,64.3492 61.5145,58.5452 65.7045,44.2022 C67.6495,37.5442 67.7675,31.9992 67.5155,28.4782" id="Fill-18" fill="#d5e1d5"/><path d="M37.3505,42.9049 C36.8095,42.9049 36.2885,42.6119 36.0205,42.0999 C35.6365,41.3679 35.9185,40.4629 36.6495,40.0769 C37.0535,39.8629 46.4415,34.7379 47.8295,21.7909 C47.9175,20.9669 48.6605,20.3779 49.4805,20.4589 C50.3045,20.5479 50.9005,21.2869 50.8125,22.1099 C49.2475,36.7069 38.5015,42.4939 38.0445,42.7329 C37.8225,42.8489 37.5845,42.9049 37.3505,42.9049" id="Fill-20" fill="#76396F" opacity=".25"/><path d="M60.2928,34.7565 C60.0278,34.7565 59.7588,34.6865 59.5158,34.5385 C58.8078,34.1095 58.5828,33.1865 59.0118,32.4785 C64.2388,23.8705 60.4128,12.5785 60.3738,12.4665 C60.1018,11.6835 60.5168,10.8285 61.2988,10.5575 C62.0828,10.2835 62.9358,10.6995 63.2078,11.4825 C63.3868,11.9975 67.5278,24.2335 61.5768,34.0345 C61.2938,34.4995 60.7998,34.7565 60.2928,34.7565" id="Fill-22" fill="#76396F" opacity=".25"/><path d="M18.3934022,89.6266 C17.7554,89.6266 17.1634,89.2166 16.9624,88.5746 C16.7154,87.7856 17.1524,86.9466 17.9404,86.6966 C18.3734,86.5556 28.0194,83.2446 27.8684,68.6886 C27.8594,67.8586 28.5244,67.1816 29.3524,67.1726 L29.3684,67.1726 C30.1894,67.1726 30.8594,67.8336 30.8684,68.6566 C31.0434,85.5386 19.3404,89.4016 18.8424,89.5576 C18.6934,89.6046 18.5414,89.6266 18.3934022,89.6266" id="Fill-24" fill="#76396F" opacity=".25"/><path d="M40.8387,72.8659 C40.1257,72.8659 39.4937,72.3549 39.3637,71.6289 C37.9007,63.4159 40.2687,57.7859 42.5127,54.5109 C44.9687,50.9259 47.8007,49.3079 47.9207,49.2419 C48.6417,48.8339 49.5577,49.0919 49.9627,49.8149 C50.3677,50.5359 50.1127,51.4489 49.3927,51.8549 C48.9797,52.0929 39.8907,57.4829 42.3177,71.1019 C42.4627,71.9179 41.9197,72.6969 41.1037,72.8419 C41.0147,72.8579 40.9257,72.8659 40.8387,72.8659" id="Fill-26" fill="#76396F" opacity=".25"/><path d="M27.705,116.3961 C27.348,116.3961 26.989,116.2691 26.702,116.0101 C26.086,115.4571 26.037,114.5081 26.591,113.8921 C31.957,107.9291 29.579,98.0671 29.554,97.9681 C29.353,97.1651 29.842,96.3501 30.644,96.1491 C31.447,95.9491 32.261,96.4341 32.463,97.2371 C32.58,97.7031 35.267,108.7361 28.82,115.8991 C28.524,116.2281 28.116,116.3961 27.705,116.3961" id="Fill-28" fill="#76396F" opacity=".25"/></g></g></g></g><g id="Expression" transform="translate(315.000000, 246.000000) scale(1 1)"><g id="Expression/Smile" stroke="none" stroke-width="1" fill="none" fill-rule="evenodd"><g id="Expression" transform="translate(14.000000, 12.000000)" fill="#000"><path d="M8.5371,3.6102 C8.8431,6.5462 13.2671,6.1902 13.3041,3.3662 C13.3451,0.1732 8.1761,0.1392 8.5371,3.6102" id="Fill-95"/><path d="M3.8824,24.6669 C10.1784,28.8049 17.2924,27.1859 17.6314,27.1049 C18.4374,26.9129 18.9354,26.1039 18.7434,25.2989 C18.5514,24.4919 17.7444,23.9949 16.9394,24.1859 C16.8054,24.2169 9.0204,25.9289 3.5054,20.5259 C2.9134,19.9499 1.9634,19.9569 1.3834,20.5479 C0.8044,21.1409 0.8144,22.0899 1.4064,22.6699 C2.2044,23.4509 3.0364,24.1109 3.8824,24.6669" id="Fill-97"/></g></g></g><g id="Facial Hair" transform="translate(311.300000, 250.950000) scale(1 1)"><g id="Facial Hair/None" stroke="none" stroke-width="1" fill="none" fill-rule="evenodd" fill-opacity="0"/></g><g id="Accesories" transform="translate(311.300000, 250.950000) scale(1 1)"><g id="Accesories/None" stroke="none" stroke-width="1" fill="none" fill-rule="evenodd" fill-opacity="0"/></g></g></g></g></svg>