<svg viewBox="76.5 102.00000000000011 765.0000000000001 828.7499999999999" xmlns="http://www.w3.org/2000/svg" xmlns:xlink="http://www.w3.org/1999/xlink" overflow="visible" width="765.0000000000001px" height="828.7499999999999px"><defs><polygon id="masterspot-illustrationbrowsing-path-1" points="0.788923017 0.381 328.99029 0.381 328.99029 507 0.788923017 507"/><polygon id="masterspot-illustrationbrowsing-path-3" points="0 0.971969833 42.3311467 0.971969833 42.3311467 76.5646 0 76.5646"/></defs><g id="Master/Spot Illustration/Browsing" stroke="none" stroke-width="1" fill="none" fill-rule="evenodd"><path d="M442.110214,296.765039 L368.564333,140.330556 C366.027536,134.93677 357.989172,136.357907 357.456657,142.295645 L340.274063,333.763599 C340.002905,336.777389 337.479176,339.085511 334.453968,339.085511 L161.853756,339.085511 C155.95362,339.085511 153.771289,346.833156 158.804046,349.912286 L288.491059,429.263987 C291.552204,431.1376 292.225199,435.294833 289.897487,438.027663 C266.791888,465.179542 161.156259,589.543706 164.895299,589.543706 C168.529796,589.543706 302.222107,545.493368 338.03946,533.668531 C342.114997,532.322535 346.177466,535.690792 345.644951,539.949302 L322.712501,723.413152 C321.985602,729.225111 329.3085,732.372847 333.026305,727.844812 L456.584495,577.372569 C459.055953,574.362046 463.724444,574.567866 465.92311,577.782575 L560.699353,716.395677 C564.105162,721.374556 571.905037,718.555151 571.338219,712.547173 L552.984418,517.998457 C552.696926,514.94873 554.813918,512.194665 557.834226,511.686649 L723.877642,483.811134 C729.681402,482.837574 730.565116,474.86124 725.115821,472.639693 L576.433048,412.022494 C571.465631,409.996966 571.624078,402.909251 576.676437,401.109145 L755.116346,337.460188 C761.101423,335.325216 759.858344,326.520702 753.515534,326.127031 L561.921197,314.225419 C558.938459,314.040835 556.574811,311.63307 556.4474,308.643782 L547.94186,110.597762 C547.677236,104.436236 539.284407,102.833782 536.768845,108.467691 L452.732745,296.662129 C450.69416,301.226102 444.237007,301.289808 442.110214,296.765039" id="Fill-21" fill="#FFE2E9" opacity=".5"/><g id="Phone Screen" transform="translate(367.000000, 101.000000) scale(1 1)"><defs><polygon id="phone-screenstats-path-1" points="0.918723017 0.381 329.12009 0.381 329.12009 506.99952 0.918723017 506.99952"/></defs><g id="Phone Screen/Stats" stroke="none" stroke-width="1" fill="none" fill-rule="evenodd"><g id="Group-52" transform="translate(104.000000, 73.000000)"><g id="Group-3" transform="translate(20.000000, 0.619000)"><mask id="phone-screenstats-mask-2" fill="#ffffff"><use xlink:href="#phone-screenstats-path-1" fill="#ffffff"/></mask><g id="Clip-2"/><path d="M82.0181,1.0599 C82.0181,1.0599 45.7711,-0.2701 42.1131,32.5399 C38.0061,69.3789 3.5391,419.6189 1.3221,457.3059 C-0.8959,494.9949 5.3121,506.5219 38.1221,506.9649 C70.9331,507.4099 250.9491,503.4179 250.9491,503.4179 C250.9491,503.4179 281.8751,503.0859 285.0891,476.3719 C289.2171,442.0669 325.4381,69.7859 328.5411,39.1919 C331.6451,8.5969 322.7781,1.8549 289.5241,0.7919 C256.2691,-0.2701 82.0181,1.0599 82.0181,1.0599" id="Fill-1" fill="#CBB1F4" mask="url(#phone-screenstats-mask-2)"/></g><path d="M188.9292,466.2941 L134.8912,466.2941 C134.8912,466.2941 120.4252,465.6291 119.5942,472.4461 C118.7622,479.2631 124.5822,482.0901 134.7252,482.2561 C144.8662,482.4221 188.9292,482.2561 188.9292,482.2561 C188.9292,482.2561 207.0522,482.7991 207.0522,474.9401 C207.0522,466.2161 188.9292,466.2941 188.9292,466.2941" id="Fill-4" fill="#8C72CB"/><polygon id="Fill-6" fill="#4D33A2" points="60.1177 443.8478 272.6117 445.8428 311.5187 37.8148 99.3577 37.8148"/><polygon id="Fill-8" fill="#8C72CB" points="133.5767 421.4562 134.2417 432.7632 256.6167 433.9822 256.6167 423.2292"/><path d="M200.6714,19.4142 C200.3174,26.9862 211.8844,27.1392 211.9784,19.6352 C212.0734,11.9902 201.0334,11.6892 200.6714,19.4142" id="Fill-10" fill="#8C72CB"/><polygon id="Fill-12" fill="#8C72CB" points="186.7837 256.1837 181.0187 314.1567 338.4227 314.1567 345.5157 259.7307"/><polygon id="Fill-14" fill="#EFD638" points="200.0854 285.1701 193.8774 340.8701 353.9404 343.9751 362.3644 287.6641"/><path d="M110.0776,88.1398 L52.8806,86.5878 C52.8806,86.5878 34.7016,85.8118 34.7016,97.6718 C34.7016,111.1348 54.2106,111.1348 54.2106,111.1348 L113.8466,111.8988 C113.8466,111.8988 132.0246,113.4118 132.0246,100.7408 C132.0246,87.0148 110.0776,88.1398 110.0776,88.1398" id="Fill-16" fill="#FEF864"/><polygon id="Fill-18" fill="#7D7AF9" points="99.5464 209.4064 135.7934 209.4064 143.4424 130.9274 107.8604 130.9274"/><polygon id="Fill-20" fill="#4947D9" points="151.7554 209.4064 189.0004 209.4064 192.3254 146.8884 157.0764 146.8884"/><polygon id="Fill-22" fill="#7D7AF9" points="201.6372 209.4064 237.8842 209.4064 245.5332 100.7404 209.6172 100.7404"/><polygon id="Fill-24" fill="#4947D9" points="248.5249 208.0763 285.1049 209.4063 295.4139 71.4013 259.1669 71.4013"/><polygon id="Fill-26" fill="#1514B9" points="174.4116 135.0265 160.7556 101.5665 139.2666 122.5095 132.9856 116.0645 164.0406 85.7975 176.9856 117.5145 228.6176 53.5735 232.8906 77.6545 268.9056 44.1635 275.0346 50.7535 226.9166 95.5005 223.2076 74.5985"/><polygon id="Fill-28" fill="#4947D9" points="211.3638 224.5363 200.8048 224.5363 199.9738 233.8483 210.7818 233.8483"/><polygon id="Fill-30" fill="#7D7AF9" points="257.7534 224.5363 247.1944 224.5363 246.3634 233.8483 257.1714 233.8483"/><polygon id="Fill-32" fill="#8C72CB" points="134.2417 404.9406 134.2417 414.2516 256.6167 416.6896 256.6167 407.1576"/><polygon id="Fill-34" fill="#8C72CB" points="189.4438 397.8459 256.6168 398.9539 256.6168 389.1999 189.4438 387.7589"/><polygon id="Fill-36" fill="#8C72CB" points="189.4438 380.6652 256.6168 382.1052 256.6168 372.2402 191.1068 371.2692"/><polygon id="Fill-38" fill="#8C72CB" points="191.2173 364.1486 257.1713 365.6226 257.1713 354.9486 191.8823 353.6186"/><path d="M121.1392,248.7648 C79.9672,211.6708 -3.5528,228.2888 0.1172,303.9358 C3.7752,379.3338 104.9012,386.8948 136.3142,337.3338 L69.7292,302.7398 L121.1392,248.7648 Z" id="Fill-40" fill="#FF71DB"/><path d="M145.5483,300.9152 C144.9253,289.5532 142.1173,279.3972 137.7093,270.5382 L69.7293,302.7392 L136.3143,337.3342 C142.7543,327.1732 146.3173,314.9412 145.5483,300.9152" id="Fill-42" fill="#AD0B84"/><path d="M137.7095,270.5382 C133.4915,262.0592 127.8065,254.7702 121.1395,248.7652 L69.7295,302.7392 L137.7095,270.5382 Z" id="Fill-44" fill="#FF00BF"/><path d="M137.7095,270.5382 L137.7155,270.5352 L137.7095,270.5382 Z" id="Fill-46" fill="#FF71DB"/><path d="M137.7095,270.5382 L137.7155,270.5352 L137.7095,270.5382 Z" id="Stroke-48" stroke="#FFF"/><path d="M99.5464,209.1427 C100.7484,209.1427 100.7484,207.6567 101.9494,207.6567 C103.1514,207.6567 103.1514,211.0917 104.3534,211.0917 C105.5554,211.0917 105.5554,208.5597 106.7574,208.5597 C107.9604,208.5597 107.9604,210.4027 109.1624,210.4027 C110.3654,210.4027 110.3654,211.0007 111.5694,211.0007 C112.7734,211.0007 112.7734,210.2817 113.9774,210.2817 C115.1824,210.2817 115.1824,209.9347 116.3874,209.9347 C117.5914,209.9347 117.5914,207.6387 118.7964,207.6387 C120.0004,207.6387 120.0004,207.6597 121.2034,207.6597 C122.4074,207.6597 122.4074,207.9227 123.6104,207.9227 C124.8134,207.9227 124.8134,208.4037 126.0164,208.4037 C127.2194,208.4037 127.2194,208.4567 128.4214,208.4567 C129.6234,208.4567 129.6234,209.6547 130.8254,209.6547 C132.0284,209.6547 132.0284,209.9877 133.2314,209.9877 C134.4334,209.9877 134.4334,208.3887 135.6354,208.3887 C136.8384,208.3887 136.8384,211.1157 138.0404,211.1157 C139.2434,211.1157 139.2434,209.0937 140.4464,209.0937 C141.6504,209.0937 141.6504,210.0327 142.8544,210.0327 C144.0584,210.0327 144.0584,211.1877 145.2624,211.1877 C146.4684,211.1877 146.4684,209.4007 147.6734,209.4007 C148.8784,209.4007 148.8784,210.1927 150.0824,210.1927 C151.2874,210.1927 151.2874,209.5867 152.4914,209.5867 C153.6944,209.5867 153.6944,209.8117 154.8994,209.8117 C156.1024,209.8117 156.1024,210.2927 157.3064,210.2927 C158.5094,210.2927 158.5094,210.5387 159.7124,210.5387 C160.9154,210.5387 160.9154,210.9087 162.1184,210.9087 C163.3224,210.9087 163.3224,210.7087 164.5254,210.7087 C165.7304,210.7087 165.7304,210.9307 166.9344,210.9307 C168.1394,210.9307 168.1394,208.5217 169.3444,208.5217 C170.5494,208.5217 170.5494,209.3397 171.7554,209.3397 C172.9604,209.3397 172.9604,209.9147 174.1654,209.9147 C175.3694,209.9147 175.3694,209.4787 176.5734,209.4787 C177.7774,209.4787 177.7774,208.0087 178.9824,208.0087 C180.1864,208.0087 180.1864,210.6947 181.3904,210.6947 C182.5944,210.6947 182.5944,208.8527 183.7984,208.8527 C185.0034,208.8527 185.0034,211.2467 186.2074,211.2467 C187.4134,211.2467 187.4134,208.1277 188.6184,208.1277 C189.8244,208.1277 189.8244,208.1217 191.0294,208.1217 C192.2344,208.1217 192.2344,208.4357 193.4404,208.4357 C194.6444,208.4357 194.6444,208.1687 195.8494,208.1687 C197.0534,208.1687 197.0534,208.6297 198.2584,208.6297 C199.4624,208.6297 199.4624,210.6627 200.6674,210.6627 C201.8734,210.6627 201.8734,211.0567 203.0794,211.0567 C204.2844,211.0567 204.2844,208.0477 205.4904,208.0477 C206.6954,208.0477 206.6954,211.2467 207.9004,211.2467 C209.1064,211.2467 209.1064,209.7267 210.3114,209.7267 C211.5164,209.7267 211.5164,209.9247 212.7214,209.9247 C213.9274,209.9247 213.9274,210.0197 215.1344,210.0197 C216.3394,210.0197 216.3394,210.4377 217.5444,210.4377 C218.7504,210.4377 218.7504,209.0797 219.9554,209.0797 C221.1604,209.0797 221.1604,210.1737 222.3664,210.1737 C223.5724,210.1737 223.5724,210.0617 224.7784,210.0617 C225.9844,210.0617 225.9844,209.5687 227.1904,209.5687 C228.3964,209.5687 228.3964,208.2977 229.6024,208.2977 C230.8084,208.2977 230.8084,209.2477 232.0144,209.2477 C233.2184,209.2477 233.2184,210.9487 234.4224,210.9487 C235.6254,210.9487 235.6254,207.7037 236.8284,207.7037 C238.0324,207.7037 238.0324,209.6047 239.2364,209.6047 C240.4424,209.6047 240.4424,210.6987 241.6494,210.6987 C242.8544,210.6987 242.8544,209.1327 244.0604,209.1327 C245.2654,209.1327 245.2654,207.8857 246.4694,207.8857 C247.6744,207.8857 247.6744,208.5537 248.8804,208.5537 C250.0874,208.5537 250.0874,210.0007 251.2934,210.0007 C252.4994,210.0007 252.4994,210.8897 253.7044,210.8897 C254.9114,210.8897 254.9114,210.6357 256.1184,210.6357 C257.3244,210.6357 257.3244,208.8037 258.5304,208.8037 C259.7374,208.8037 259.7374,207.9907 260.9454,207.9907 C262.1514,207.9907 262.1514,209.3817 263.3584,209.3817 C264.5664,209.3817 264.5664,210.1607 265.7734,210.1607 C266.9814,210.1607 266.9814,210.2887 268.1894,210.2887 C269.3944,210.2887 269.3944,209.0757 270.5994,209.0757 C271.8064,209.0757 271.8064,208.3867 273.0124,208.3867 C274.2204,208.3867 274.2204,208.9437 275.4294,208.9437 C276.6374,208.9437 276.6374,211.0417 277.8454,211.0417 C279.0544,211.0417 279.0544,207.8627 280.2624,207.8627 C281.4734,207.8627 281.4734,209.4987 282.6844,209.4987 C283.8944,209.4987 283.8944,208.8387 285.1054,208.8387" id="Stroke-50" stroke="#1514B9" stroke-width="3" stroke-linecap="round"/></g></g></g><g transform="translate(0.000000, 174.000000) scale(1 1)" id="Master/Character/Standing"><defs><polygon id="mastercharacterstanding-path-1" points="0.606828676 0.9535 32.904 0.9535 32.904 6.2565 0.606828676 6.2565"/><polygon id="mastercharacterstanding-path-3" points="0 0.0324 255.9499 0.0324 255.9499 196.950829 0 196.950829"/></defs><g id="Master/Character/Standing" stroke="none" stroke-width="1" fill="none" fill-rule="evenodd"><g id="Lower" transform="translate(14.000000, 442.000000) scale(1 1)"><g id="Lower/Crossed Legs" stroke="none" stroke-width="1" fill="none" fill-rule="evenodd"><g id="Group-332" transform="translate(252.000000, 155.000000) scale(-1, 1) translate(-252.000000, -155.000000) translate(142.000000, 0.000000)"><g id="Group-74" transform="translate(0.000000, 0.142000)"><path d="M189.6183,170.0922 L132.1503,159.5222 C128.7343,158.8932 126.1853,156.0182 125.9723,152.5512 L118.1893,26.2792 C118.1893,12.2392 106.8073,0.8582 92.7673,0.8582 L44.6893,0.8582 C30.6493,0.8582 19.2673,12.2392 19.2673,26.2792 L2.6423,138.3352 C2.6423,138.3352 -9.6607,185.5522 25.9173,199.8502 C61.4963,214.1482 175.5473,242.0782 175.5473,242.0782 L192.1163,173.9452 C192.5443,172.1812 191.4033,170.4202 189.6183,170.0922" id="Fill-34" fill="#5A593D"/><path d="M63.6579,202.5101 L63.6579,279.1541 L133.3189,278.4891 C133.3189,278.4891 135.2309,278.7381 135.1479,275.4951 C135.0639,272.2531 130.4919,202.5101 130.4919,202.5101 L63.6579,202.5101 Z" id="Fill-36" fill="#5A593D"/><path d="M175.5475,242.0785 C175.5475,242.0785 170.0615,258.7035 168.8975,276.4935 C167.7335,294.2825 189.1805,296.7765 194.1685,281.4805 C199.1555,266.1845 205.6395,241.0805 206.9695,234.4315 C208.2995,227.7805 216.1135,201.1805 217.4435,193.5315 C218.2495,188.8995 218.9705,185.6015 219.4135,183.7225 C219.6565,182.6935 219.0195,181.6665 217.9925,181.4175 L191.8405,175.0775 L175.5475,242.0785 Z" id="Fill-38" fill="#FE5C4F"/><path d="M63.6579,279.1537 C63.6579,279.1537 33.7319,279.3197 26.7489,280.4837 C19.7659,281.6467 15.7759,290.1267 18.4359,298.1067 C21.0959,306.0867 29.5759,308.2487 43.2079,308.2487 L130.4919,308.2487 C132.3209,308.2487 135.1529,307.9157 135.149902,302.9277 C135.1479,297.9397 133.3189,278.4887 133.3189,278.4887 L63.6579,279.1537 Z" id="Fill-40" fill="#FE5C4F"/><path d="M56.3322,266.7279 C56.0642,266.7279 55.7842,266.7589 55.4882,266.8219 C55.0662,266.9109 53.9442,267.1479 54.1072,269.0989 C54.3552,272.0759 57.4742,276.3699 62.0142,277.4229 C61.6582,274.2689 60.6242,269.2489 58.2582,267.4079 C57.6702,266.9509 57.0452,266.7279 56.3322,266.7279 M63.6582,280.6539 C63.6372,280.6539 63.6162,280.6529 63.5952,280.6519 C58.7622,280.4499 51.6762,276.0509 51.1182,269.3479 C50.8822,266.5179 52.3202,264.4249 54.8692,263.8859 C56.7952,263.4799 58.6072,263.8769 60.1022,265.0419 C64.6142,268.5559 65.1142,278.0259 65.1562,279.0939 C65.1732,279.5129 65.0142,279.9189 64.7172,280.2149 C64.4352,280.4969 64.0542,280.6539 63.6582,280.6539" id="Fill-42" fill="#000"/><path d="M71.2819,266.4359 C70.8669,266.4359 70.4779,266.5509 70.0959,266.7839 C67.8369,268.1579 66.2359,273.1979 65.4899,277.1399 C70.1169,275.5169 73.2729,271.4169 73.5269,268.8129 C73.6709,267.3509 72.9329,266.8799 72.2749,266.6329 C71.9239,266.5019 71.5949,266.4359 71.2819,266.4359 M63.6579,280.6539 C63.2749,280.6539 62.9029,280.5069 62.6219,280.2389 C62.2809,279.9129 62.1129,279.4449 62.1689,278.9769 C62.3109,277.7769 63.7009,267.1649 68.5349,264.2219 C69.9929,263.3329 71.6499,263.1949 73.3279,263.8249 C75.5629,264.6629 76.7539,266.6369 76.5129,269.1049 C76.0699,273.6429 70.7819,279.4939 63.9029,280.6329 C63.8209,280.6469 63.7389,280.6539 63.6579,280.6539" id="Fill-44" fill="#000"/><path d="M66.9269,294.0092 L66.9099,294.0092 C66.0819,293.9992 65.4179,293.3222 65.4269,292.4922 C65.5279,283.3532 62.6269,280.2442 62.5969,280.2142 C62.0279,279.6252 62.0269,278.6812 62.6059,278.1022 C63.1839,277.5242 64.1109,277.5062 64.6999,278.0752 C65.0939,278.4552 68.5419,282.0952 68.4269,292.5262 C68.4179,293.3492 67.7479,294.0092 66.9269,294.0092" id="Fill-46" fill="#000"/><path d="M166.1003,227.1391 C165.8053,227.1391 165.5043,227.1961 165.1913,227.3081 C163.4213,227.9431 163.2713,228.9511 163.3403,229.7591 C163.6103,232.9531 168.4603,238.0321 173.5553,239.9671 C172.5243,235.7691 170.3653,229.2261 167.3933,227.5121 C166.9603,227.2631 166.5373,227.1391 166.1003,227.1391 M175.5473,243.5781 C175.4603,243.5781 175.3723,243.5711 175.2863,243.5551 C168.4823,242.3491 160.8053,235.3881 160.3503,230.0121 C160.1343,227.4481 161.5293,225.4331 164.1803,224.4851 C165.7833,223.9111 167.4123,224.0601 168.8933,224.9141 C174.3783,228.0781 176.7683,240.4131 177.0233,241.8091 C177.1113,242.2921 176.9573,242.7881 176.6113,243.1361 C176.3273,243.4211 175.9433,243.5781 175.5473,243.5781" id="Fill-48" fill="#000"/><path d="M172.6232,243.9838 C167.9552,244.7718 162.2722,246.4218 160.8902,248.7998 C160.5082,249.4578 160.5022,250.1178 160.8712,250.9408 C161.1442,251.5488 161.4772,251.7508 162.1082,251.7238 C165.0282,251.5848 170.1122,246.9228 172.6232,243.9838 M161.9962,254.7228 C160.2462,254.7228 158.8872,253.8448 158.1352,252.1698 C157.3732,250.4698 157.4282,248.7838 158.2972,247.2908 C161.3362,242.0688 173.9752,240.7218 175.4052,240.5858 C176.1882,240.5038 176.8582,241.0228 177.0152,241.7678 C177.5562,244.3328 168.8412,252.8098 164.0632,254.3668 C163.3292,254.6058 162.6372,254.7228 161.9962,254.7228" id="Fill-50" fill="#000"/><polygon id="Fill-52" fill="#FB8686" points="180.8 220.4789 206.969 234.4309 205.198 242.0789 179.092 227.5009"/><path d="M183.6212,208.8773 C183.6212,208.8773 207.0252,219.4353 210.2392,221.6123 L208.4082,228.4883 C208.4082,228.4883 194.6112,221.6853 190.7322,219.1353 C186.8522,216.5863 182.2362,214.5733 182.2362,214.5733 L183.6212,208.8773 Z" id="Fill-54" fill="#FB8686"/><path d="M185.9836,199.1615 L212.5666,213.0245 L214.0276,207.5845 C214.0276,207.5845 192.2066,194.8465 187.3686,193.4685 L185.9836,199.1615 Z" id="Fill-56" fill="#FB8686"/><path d="M176.8776,249.4486 C176.9366,251.1736 179.6116,251.3876 179.5926,249.5586 C179.5716,247.4756 176.8106,247.4746 176.8776,249.4486" id="Fill-58" fill="#070302"/><path d="M173.8908,261.7445 C173.9498,263.4685 176.6248,263.6835 176.6058,261.8535 C176.5848,259.7715 173.8238,259.7695 173.8908,261.7445" id="Fill-60" fill="#070302"/><path d="M43.089,283.9291 C43.148,285.6541 45.823,285.8681 45.804,284.0391 C45.783,281.9561 43.022,281.9551 43.089,283.9291" id="Fill-62" fill="#070302"/><path d="M54.9367,283.9291 C54.9957,285.6541 57.6707,285.8681 57.6517,284.0391 C57.6307,281.9561 54.8697,281.9551 54.9367,283.9291" id="Fill-64" fill="#070302"/><path d="M77.5119,279.0209 C77.5119,279.0209 73.7999,297.1649 73.3559,308.2489 L79.1749,308.2489 C79.1749,308.2489 84.3269,280.0339 84.3279,278.9569 L77.5119,279.0209 Z" id="Fill-66" fill="#FB8686"/><path d="M90.4806,278.8969 C90.4806,278.8969 86.7676,300.6559 86.6006,308.2489 L92.9736,308.2489 C92.9736,308.2489 96.1326,282.2439 97.1306,278.8969 L90.4806,278.8969 Z" id="Fill-68" fill="#FB8686"/><path d="M102.839,278.7797 C102.839,278.7797 101.564,287.6877 100.733,291.7887 C99.901,295.8897 99.404,308.2487 99.404,308.2487 L105.665,308.2487 C105.665,308.2487 107.043,295.7787 107.656,291.7337 C108.27,287.6877 109.544,278.7797 109.544,278.7797 L102.839,278.7797 Z" id="Fill-70" fill="#FB8686"/><path d="M126.3278,160.0043 C126.2318,160.0043 126.1348,159.9943 126.0368,159.9763 C125.1298,159.7973 124.6428,159.4633 124.3218,159.2413 C124.1008,159.0903 124.0268,159.0383 123.7288,158.9813 C123.3848,158.9133 123.2638,158.9323 122.9978,158.9723 C122.6158,159.0313 122.0928,159.1103 121.2338,158.9423 C120.4268,158.7843 120.0088,158.5723 119.6728,158.4013 C119.4348,158.2803 119.2898,158.2073 118.8938,158.1303 C118.2848,158.0103 117.9808,157.9473 117.6758,157.8853 C117.3798,157.8233 117.0838,157.7623 116.4898,157.6463 L114.0868,157.1653 C113.9378,157.1353 113.9378,157.1363 113.6818,157.2453 C113.2678,157.4213 112.5798,157.7163 111.5238,157.5113 C110.9568,157.4003 110.6728,157.3583 110.3868,157.3163 C110.0668,157.2703 109.7458,157.2233 109.1118,157.0993 C108.1788,156.9153 107.6878,156.5533 107.3628,156.3143 C107.1468,156.1533 107.0878,156.1103 106.8178,156.0583 C106.3798,155.9723 106.1848,155.9743 105.9148,155.9833 C105.5618,155.9913 105.1248,156.0023 104.3618,155.8533 C103.5788,155.6993 103.1698,155.5063 102.8408,155.3523 C102.5978,155.2373 102.4368,155.1623 102.0178,155.0803 C101.4688,154.9723 101.1908,154.9383 100.9118,154.9033 C100.5808,154.8623 100.2498,154.8213 99.5968,154.6933 C98.8568,154.5483 98.4628,154.3903 98.1468,154.2623 C97.8878,154.1583 97.7008,154.0823 97.2408,153.9923 C96.6218,153.8713 96.3158,153.8053 96.0088,153.7383 C95.7178,153.6753 95.4258,153.6113 94.8418,153.4973 C94.5698,153.4433 94.4928,153.4623 94.2368,153.5263 C93.8478,153.6243 93.2588,153.7703 92.3308,153.5883 C91.4848,153.4223 91.0358,153.1623 90.7078,152.9723 C90.4798,152.8403 90.3648,152.7743 90.0098,152.7043 C89.3198,152.5683 88.9618,152.4523 88.6478,152.3503 C88.3788,152.2623 88.1478,152.1873 87.6368,152.0873 C86.9298,151.9473 86.5658,151.8193 86.2448,151.7053 C85.9768,151.6103 85.7648,151.5363 85.2728,151.4403 C84.8588,151.3583 84.6828,151.3683 84.4148,151.3823 C84.0478,151.4023 83.5958,151.4273 82.8128,151.2743 C82.3488,151.1833 82.1448,151.1813 81.8638,151.1783 C81.5248,151.1743 81.1028,151.1703 80.3678,151.0263 C79.6718,150.8903 79.3118,150.7693 78.9948,150.6613 C78.7318,150.5723 78.5038,150.4963 78.0008,150.3983 C77.4738,150.2943 77.2038,150.2683 76.9358,150.2423 C76.5938,150.2093 76.2528,150.1763 75.5828,150.0443 C74.6808,149.8673 73.9658,149.4223 73.3908,149.0653 C73.2098,148.9513 73.0288,148.8373 72.8428,148.7363 C71.9798,148.2653 71.2568,147.7023 70.4968,146.9113 C70.3488,146.7563 70.1928,146.6093 70.0388,146.4643 C69.5228,145.9743 68.9368,145.4193 68.5358,144.6093 C68.0928,143.7143 67.9558,142.7873 67.8348,141.9703 L67.7898,141.6673 C67.6398,140.6933 67.7778,139.8333 67.9108,139.0013 L67.9588,138.6933 C68.0288,138.2413 68.0218,138.0463 68.0128,137.7753 C68.0008,137.4413 67.9868,137.0253 68.0998,136.2953 C68.1468,135.9943 68.1238,135.9003 68.0658,135.6513 C67.9748,135.2663 67.8498,134.7383 67.9868,133.8583 C68.1488,132.8093 68.6608,132.2663 68.9658,131.9423 C69.1438,131.7543 69.1438,131.7543 69.1628,131.6263 C69.1808,131.5113 69.1808,131.5113 69.0678,131.2853 C68.8638,130.8803 68.5228,130.2013 68.6878,129.1393 C68.7798,128.5463 68.8298,128.2473 68.8798,127.9523 C68.9288,127.6593 68.9778,127.3703 69.0688,126.7843 C69.1898,126.0013 69.3698,125.5893 69.5158,125.2573 C69.6208,125.0173 69.6838,124.8723 69.7458,124.4773 C69.8248,123.9683 69.8368,123.7093 69.8488,123.4503 C69.8638,123.1333 69.8818,122.7733 69.9838,122.1073 C70.1158,121.2583 70.3638,120.8033 70.5458,120.4723 C70.6678,120.2483 70.7238,120.1463 70.7738,119.8163 C70.8628,119.2463 70.8988,118.9603 70.9358,118.6743 C70.9748,118.3683 71.0148,118.0643 71.1088,117.4553 C71.2138,116.7783 71.3128,116.4263 71.3998,116.1133 C71.4738,115.8513 71.5378,115.6233 71.6148,115.1243 C71.6548,114.8673 71.6358,114.8023 71.5628,114.5593 C71.4498,114.1793 71.2778,113.6053 71.4208,112.6833 C71.5358,111.9413 71.6838,111.5453 71.8038,111.2273 C71.8948,110.9803 71.9628,110.8013 72.0298,110.3643 C72.0908,109.9713 72.0738,109.8143 72.0468,109.5533 C72.0088,109.1923 71.9608,108.7453 72.0818,107.9623 C72.2108,107.1313 72.4428,106.6833 72.6128,106.3553 C72.7298,106.1293 72.7888,106.0163 72.8428,105.6713 C72.8778,105.4413 72.8628,105.3983 72.7808,105.1503 C72.6508,104.7603 72.4558,104.1703 72.6018,103.2233 C72.7328,102.3753 72.9818,101.9213 73.1638,101.5893 C73.2858,101.3663 73.3418,101.2653 73.3918,100.9383 C73.5178,100.1213 73.7368,99.6783 73.8968,99.3553 C74.0098,99.1283 74.0708,99.0033 74.1268,98.6443 C74.1468,98.5133 74.1468,98.5133 74.0358,98.2793 C73.8468,97.8813 73.5278,97.2133 73.6888,96.1683 C73.7828,95.5643 73.8358,95.2633 73.8888,94.9623 C73.9388,94.6773 73.9888,94.3913 74.0778,93.8173 C74.1798,93.1623 74.2608,92.8403 74.3418,92.5173 C74.4048,92.2613 74.4698,92.0053 74.5498,91.4863 C74.6708,90.7043 74.8508,90.2923 74.9968,89.9613 C75.1018,89.7233 75.1648,89.5793 75.2258,89.1863 C75.3378,88.4583 75.4778,88.0673 75.5898,87.7533 C75.6808,87.5013 75.7448,87.3183 75.8148,86.8723 C75.8528,86.6243 75.8348,86.5663 75.7598,86.3213 C75.6428,85.9393 75.4638,85.3593 75.6078,84.4313 C75.6938,83.8763 75.7228,83.5993 75.7518,83.3193 C75.7848,83.0063 75.8178,82.6913 75.9128,82.0693 C76.0218,81.3683 76.1358,81.0063 76.2368,80.6863 C76.3188,80.4253 76.3828,80.2203 76.4568,79.7433 C76.5258,79.3043 76.5168,79.1123 76.5048,78.8473 C76.4898,78.5093 76.4708,78.0903 76.5848,77.3543 C76.7188,76.4873 76.9868,76.0263 77.1818,75.6903 C77.3078,75.4723 77.3608,75.3813 77.4088,75.0723 C77.5258,74.3163 77.6858,73.9133 77.8158,73.5903 C77.9128,73.3453 77.9788,73.1823 78.0428,72.7633 C78.1058,72.3603 78.0898,72.2003 78.0648,71.9373 C78.0308,71.5813 77.9878,71.1393 78.1068,70.3643 C78.1788,69.9003 78.1758,69.6893 78.1728,69.4213 C78.1678,69.0963 78.1628,68.6913 78.2738,67.9803 C78.3988,67.1713 78.6108,66.7313 78.7658,66.4103 C78.8768,66.1793 78.9388,66.0513 78.9948,65.6843 C79.0478,65.3443 79.0258,65.2193 78.9808,64.9723 C78.9148,64.6063 78.8258,64.1063 78.9538,63.2703 C79.0908,62.3833 79.3908,61.8973 79.5888,61.5753 C79.7228,61.3573 79.7678,61.2833 79.8128,60.9953 C79.9388,60.1763 80.6978,59.6123 81.5238,59.7423 C82.3428,59.8683 82.9038,60.6353 82.7768,61.4533 C82.6398,62.3403 82.3408,62.8263 82.1418,63.1483 C82.0088,63.3663 81.9638,63.4403 81.9188,63.7283 C81.8658,64.0683 81.8888,64.1923 81.9328,64.4413 C81.9988,64.8063 82.0888,65.3073 81.9598,66.1423 C81.8348,66.9503 81.6228,67.3913 81.4678,67.7123 C81.3558,67.9433 81.2948,68.0703 81.2378,68.4393 C81.1658,68.9033 81.1688,69.1143 81.1718,69.3823 C81.1768,69.7073 81.1818,70.1113 81.0708,70.8233 C81.0098,71.2243 81.0238,71.3833 81.0508,71.6483 C81.0848,72.0033 81.1278,72.4463 81.0078,73.2223 C80.8898,73.9783 80.7298,74.3803 80.5998,74.7033 C80.5028,74.9493 80.4368,75.1113 80.3728,75.5313 C80.2378,76.3993 79.9718,76.8583 79.7768,77.1943 C79.6508,77.4123 79.5978,77.5033 79.5498,77.8133 C79.4818,78.2553 79.4898,78.4463 79.5018,78.7123 C79.5168,79.0493 79.5358,79.4683 79.4218,80.2023 C79.3138,80.9033 79.1998,81.2663 79.0988,81.5863 C79.0168,81.8473 78.9528,82.0523 78.8778,82.5273 C78.7928,83.0763 78.7648,83.3543 78.7358,83.6303 C78.7028,83.9463 78.6698,84.2623 78.5728,84.8903 C78.5348,85.1363 78.5518,85.1943 78.6268,85.4393 C78.7448,85.8223 78.9238,86.4013 78.7798,87.3313 C78.6668,88.0583 78.5278,88.4483 78.4148,88.7633 C78.3248,89.0163 78.2598,89.1983 78.1908,89.6453 C78.0698,90.4263 77.8888,90.8383 77.7428,91.1693 C77.6378,91.4083 77.5748,91.5523 77.5138,91.9443 C77.4118,92.6003 77.3308,92.9233 77.2498,93.2453 C77.1868,93.5013 77.1218,93.7573 77.0418,94.2763 C76.9488,94.8803 76.8958,95.1813 76.8428,95.4823 C76.7918,95.7683 76.7428,96.0533 76.6538,96.6273 C76.6328,96.7573 76.6328,96.7573 76.7448,96.9903 C76.9338,97.3903 77.2518,98.0583 77.0908,99.1023 C76.9648,99.9183 76.7458,100.3613 76.5858,100.6853 C76.4738,100.9113 76.4118,101.0363 76.3568,101.3963 C76.2258,102.2443 75.9768,102.6983 75.7938,103.0303 C75.6728,103.2533 75.6178,103.3553 75.5668,103.6813 C75.5308,103.9123 75.5448,103.9573 75.6268,104.2043 C75.7568,104.5943 75.9528,105.1833 75.8068,106.1293 C75.6778,106.9613 75.4458,107.4093 75.2758,107.7363 C75.1588,107.9623 75.0998,108.0753 75.0458,108.4213 C74.9848,108.8163 75.0008,108.9753 75.0298,109.2353 C75.0678,109.5953 75.1148,110.0423 74.9948,110.8233 C74.8798,111.5663 74.7308,111.9613 74.6118,112.2793 C74.5198,112.5263 74.4528,112.7043 74.3858,113.1413 C74.3468,113.3953 74.3658,113.4603 74.4378,113.7033 C74.5518,114.0843 74.7228,114.6593 74.5798,115.5833 C74.4748,116.2603 74.3758,116.6123 74.2888,116.9253 C74.2148,117.1883 74.1508,117.4153 74.0738,117.9143 C73.9848,118.4853 73.9488,118.7723 73.9118,119.0583 C73.8728,119.3623 73.8328,119.6673 73.7388,120.2753 C73.6078,121.1233 73.3588,121.5783 73.1778,121.9103 C73.0558,122.1343 72.9998,122.2353 72.9488,122.5663 C72.8698,123.0743 72.8578,123.3333 72.8458,123.5923 C72.8308,123.9093 72.8128,124.2693 72.7108,124.9353 C72.5898,125.7183 72.4078,126.1313 72.2638,126.4623 C72.1578,126.7023 72.0948,126.8473 72.0328,127.2423 C71.9388,127.8493 71.8888,128.1493 71.8378,128.4513 C71.7898,128.7363 71.7408,129.0253 71.6518,129.5983 C71.6348,129.7133 71.6348,129.7133 71.7478,129.9383 C71.9508,130.3433 72.2918,131.0213 72.1278,132.0843 C71.9648,133.1353 71.4528,133.6773 71.1468,134.0013 C70.9708,134.1893 70.9708,134.1893 70.9508,134.3173 C70.9038,134.6203 70.9258,134.7133 70.9848,134.9623 C71.0758,135.3473 71.1998,135.8743 71.0638,136.7533 C70.9948,137.2043 71.0018,137.4003 71.0108,137.6713 C71.0218,138.0053 71.0368,138.4213 70.9238,139.1503 L70.8728,139.4753 C70.7628,140.1603 70.6768,140.7023 70.7548,141.2123 L70.8028,141.5323 C70.9038,142.2173 70.9908,142.8083 71.2238,143.2793 C71.3878,143.6093 71.7188,143.9233 72.1018,144.2863 C72.2908,144.4653 72.4798,144.6463 72.6618,144.8353 C73.2068,145.4013 73.6898,145.7813 74.2798,146.1033 C74.5148,146.2323 74.7458,146.3743 74.9768,146.5183 C75.4168,146.7923 75.7978,147.0293 76.1608,147.1003 C76.6878,147.2033 76.9568,147.2303 77.2258,147.2563 C77.5678,147.2893 77.9088,147.3223 78.5778,147.4533 C79.2758,147.5903 79.6348,147.7123 79.9528,147.8183 C80.2248,147.9103 80.4418,147.9833 80.9438,148.0823 C81.4098,148.1733 81.6128,148.1753 81.8938,148.1783 C82.2328,148.1823 82.6538,148.1863 83.3898,148.3303 C83.8068,148.4123 83.9828,148.4013 84.2498,148.3883 C84.6158,148.3663 85.0658,148.3423 85.8508,148.4963 C86.5578,148.6353 86.9218,148.7643 87.2438,148.8773 C87.5108,148.9723 87.7228,149.0473 88.2148,149.1433 C88.9048,149.2783 89.2618,149.3953 89.5768,149.4973 C89.8448,149.5853 90.0768,149.6603 90.5868,149.7603 C91.4328,149.9263 91.8828,150.1873 92.2108,150.3763 C92.4388,150.5093 92.5548,150.5753 92.9078,150.6453 C93.1808,150.6973 93.2578,150.6793 93.5138,150.6153 C93.9028,150.5193 94.4928,150.3733 95.4198,150.5543 C96.0318,150.6743 96.3378,150.7403 96.6428,150.8073 C96.9368,150.8703 97.2288,150.9343 97.8178,151.0483 C98.5578,151.1933 98.9518,151.3523 99.2678,151.4803 C99.5268,151.5843 99.7128,151.6593 100.1738,151.7493 C100.7238,151.8583 101.0018,151.8923 101.2808,151.9263 C101.6108,151.9673 101.9418,152.0083 102.5958,152.1363 C103.3788,152.2893 103.7888,152.4833 104.1178,152.6373 C104.3598,152.7513 104.5208,152.8263 104.9388,152.9093 C105.3788,152.9953 105.5758,152.9903 105.8418,152.9833 C106.1948,152.9743 106.6328,152.9643 107.3958,153.1133 C108.3278,153.2973 108.8188,153.6593 109.1438,153.9003 C109.3598,154.0593 109.4178,154.1023 109.6888,154.1543 C110.2508,154.2653 110.5358,154.3073 110.8208,154.3483 C111.1418,154.3963 111.4628,154.4423 112.0998,154.5673 C112.2498,154.5963 112.2478,154.5953 112.5038,154.4863 C112.9178,154.3103 113.6108,154.0163 114.6638,154.2213 L117.0668,154.7023 C117.6748,154.8213 117.9788,154.8843 118.2838,154.9473 C118.5788,155.0083 118.8758,155.0693 119.4698,155.1863 C120.2768,155.3443 120.6948,155.5563 121.0308,155.7273 C121.2688,155.8483 121.4128,155.9213 121.8098,155.9983 C122.1558,156.0673 122.2768,156.0483 122.5418,156.0073 C122.9238,155.9483 123.4448,155.8683 124.3068,156.0363 C125.2148,156.2153 125.7008,156.5493 126.0218,156.7703 C126.2428,156.9223 126.3168,156.9733 126.6148,157.0313 C127.4278,157.1913 127.9568,157.9793 127.7968,158.7923 C127.6578,159.5073 127.0298,160.0043 126.3278,160.0043" id="Fill-72" fill="#000"/></g></g></g></g><g id="Upper" transform="translate(-1.000000, 0.000000) scale(1 1)"><g id="Upper/Holding Puppy" stroke="none" stroke-width="1" fill="none" fill-rule="evenodd"><g id="Group-691" transform="translate(192.500000, 272.500000)"><g id="Group-636" transform="translate(0.000000, 0.095000)"><path d="M65.6822,54.4 L0.6492,234.026 C0.1332,238.765 3.6922,242.971 8.4522,243.238 C26.4432,244.246 112.8102,249.099 133.7552,245.767 C163.0182,241.112 195.6072,246.753 195.6072,246.753 C195.6072,246.753 213.5252,249.527 230.2322,248.894 C241.1942,248.479 248.4332,237.329 244.3372,227.153 L164.9742,30.032 L100.1682,29.926 L93.0622,29.9148354 C79.0152,29.871 70.5322,38.649 65.6822,54.4" id="Fill-592" fill="#CBB1F4"/><path d="M128.4341,105.9899 L167.7771,174.1359 C167.7771,174.1359 181.7741,205.1819 217.2231,198.1029 C275.0841,186.5489 254.6371,86.7509 231.6881,57.1059 L176.4861,65.4199 L128.4341,105.9899 Z" id="Fill-594" fill="#CBB1F4"/><path d="M171.6666,46.6627 L173.3536,46.3127 C177.3536,45.4837 180.7256,42.7357 182.2126,38.9317 C184.4686,33.1657 189.8056,25.2427 202.0916,25.3487 C221.3796,25.5147 222.7096,39.1487 222.7096,39.1487 C222.7096,39.1487 223.7076,45.1347 231.0226,44.8027 C238.3386,44.4697 254.7596,42.1187 256.4626,51.9517 C258.2916,62.5097 244.8236,63.7567 244.8236,63.7567 L228.4926,65.1047 C228.4926,65.1047 237.3416,96.3457 237.6736,115.6237 C237.9336,130.6477 231.3556,128.9257 231.3556,128.9257 C231.3556,128.9257 224.5386,129.0917 224.5386,119.7797 C224.5386,110.4697 221.8776,98.0087 221.8776,98.0087 L206.0826,98.6737 C206.0826,98.6737 210.0506,114.6777 207.4126,121.7847 C204.7746,128.8927 200.2636,128.9257 200.2636,128.9257 C200.2636,128.9257 192.2776,129.0827 193.1136,116.9637 C194.4436,97.6767 183.7876,76.7667 183.7876,76.7667 L171.6666,46.6627 Z" id="Fill-596" fill="#FECB72"/><path d="M193.2798,34.8258 C193.2798,34.8258 188.9748,35.8198 188.2908,42.3398 C187.6078,48.8588 183.0908,73.4558 199.2328,72.0558 C217.3058,70.4908 202.5908,31.9158 193.2798,34.8258" id="Fill-598" fill="#000"/><path d="M212.627,42.3688 C213.463,45.7858 218.68,44.8238 218.28,41.6588 C217.781,37.7128 211.626,38.2768 212.627,42.3688" id="Fill-600" fill="#000"/><path d="M252.0352,46.2545 C252.0352,46.2545 250.7262,42.8065 254.0512,40.2295 C256.8892,38.0305 262.1162,37.8935 264.7762,41.3105 C267.4362,44.7275 265.5492,49.8735 262.4482,51.4525 C259.2392,53.0875 253.7602,52.4455 252.0352,46.2545" id="Fill-602" fill="#000"/><path d="M236.2388,59.9772 C232.5468,59.9772 229.7338,59.6222 229.4988,59.5902 C228.6768,59.4842 228.0988,58.7312 228.2058,57.9102 C228.3118,57.0892 229.0538,56.5062 229.8858,56.6162 C229.9978,56.6302 241.0508,58.0212 247.8168,55.1792 C248.5808,54.8592 249.4608,55.2172 249.7808,55.9812 C250.1018,56.7452 249.7428,57.6232 248.9788,57.9452 C245.1008,59.5742 240.1708,59.9772 236.2388,59.9772" id="Fill-604" fill="#231F20"/><path d="M196.0894,128.7496 C195.6694,128.7496 195.2524,128.5736 194.9554,128.2316 C194.4164,127.6116 194.4794,126.6736 195.0914,126.1286 C195.1924,126.0346 196.9284,124.3566 196.6604,120.6166 C196.6014,119.7906 197.2234,119.0726 198.0494,119.0146 C198.8844,118.9546 199.5944,119.5766 199.6524,120.4026 C200.0344,125.7456 197.1934,128.2766 197.0714,128.3826 C196.7874,128.6286 196.4374,128.7496 196.0894,128.7496" id="Fill-606" fill="#231F20"/><path d="M202.5923,129.6637 C202.3073,129.6637 202.0183,129.5827 201.7633,129.4127 C201.0783,128.9577 200.8883,128.0367 201.3333,127.3487 C201.3783,127.2757 202.6283,125.1617 202.5313,120.5417 C202.5153,119.7137 203.1723,119.0277 204.0003,119.0107 C204.8253,118.9547 205.5143,119.6497 205.5313,120.4787 C205.6493,126.1067 204.0283,128.7147 203.8423,128.9937 C203.5543,129.4287 203.0773,129.6637 202.5923,129.6637" id="Fill-608" fill="#231F20"/><path d="M228.0269,129.3942 C227.8439,129.3942 227.6589,129.3602 227.4789,129.2902 C226.7089,128.9872 226.3299,128.1202 226.6299,127.3492 C226.6399,127.3202 227.7379,124.4212 227.3899,120.6482 C227.3149,119.8232 227.9219,119.0922 228.7469,119.0162 C229.5739,118.9352 230.3009,119.5482 230.3789,120.3732 C230.7939,124.8872 229.4789,128.2982 229.4229,128.4422 C229.1909,129.0332 228.6259,129.3942 228.0269,129.3942" id="Fill-610" fill="#231F20"/><path d="M233.7261,130.0328 C233.5641,130.0328 233.3991,130.0058 233.2371,129.9498 C232.4551,129.6798 232.0391,128.8298 232.3061,128.0488 C232.3201,128.0088 233.2471,125.1658 233.0161,119.9388 C232.9801,119.1108 233.6221,118.4108 234.4491,118.3748 C235.2731,118.3368 235.9771,118.9788 236.0141,119.8068 C236.2721,125.6788 235.1901,128.8878 235.1441,129.0218 C234.9291,129.6418 234.3481,130.0328 233.7261,130.0328" id="Fill-612" fill="#231F20"/><path d="M47.336,222.9762 C47.336,222.9762 85.204,224.5402 99.004,223.7082 C112.805,222.8772 122.12,223.1642 130.211,219.6392 C152.544,209.9092 151.047,179.8132 151.047,179.8132 L49.929,199.1532 L47.336,222.9762 Z" id="Fill-614" fill="#8C72CB"/><path d="M205.0582,201.5192 L205.0232,201.5192 C204.1712,201.5112 203.3342,201.4932 202.5102,201.4432 C202.2222,201.4252 201.9002,201.4462 201.5572,201.4662 C201.0792,201.4962 200.5412,201.5292 199.9802,201.4652 C199.3972,201.4002 198.8692,201.2402 198.4022,201.0982 C198.0822,201.0002 197.7802,200.9102 197.5172,200.8662 C197.2572,200.8222 196.9362,200.8232 196.5982,200.8232 C196.1222,200.8182 195.5532,200.8232 194.9782,200.6952 C194.4252,200.5732 193.9102,200.3832 193.4542,200.2152 C193.1592,200.1072 192.8652,199.9972 192.5692,199.9152 C192.3252,199.8472 192.0052,199.8182 191.6672,199.7882 C191.1742,199.7432 190.6152,199.6932 190.0492,199.5032 C189.4572,199.3052 188.9722,198.9972 188.5432,198.7242 C188.2682,198.5482 188.0082,198.3832 187.7962,198.3002 C187.4932,198.1802 187.1772,198.0922 186.8642,198.0022 C186.3872,197.8652 185.8942,197.7232 185.3962,197.4982 C185.1162,197.3722 184.8292,197.2532 184.5452,197.1372 C184.0632,196.9382 183.5642,196.7332 183.0792,196.4832 C182.5502,196.2122 182.1132,195.8682 181.7272,195.5642 C181.4652,195.3572 181.2172,195.1632 180.9962,195.0352 C180.4302,194.7092 180.0232,194.2892 179.6632,193.9182 C179.4462,193.6932 179.2402,193.4812 179.0732,193.3732 C178.7932,193.1952 178.4962,193.0512 178.2052,192.9072 C177.7702,192.6922 177.3212,192.4702 176.8812,192.1582 C176.3832,191.8052 176.0012,191.3992 175.6642,191.0412 C175.4452,190.8072 175.2372,190.5862 175.0482,190.4382 C174.7752,190.2252 174.4852,190.0472 174.2042,189.8732 C173.7992,189.6212 173.3812,189.3612 172.9862,189.0212 C172.8472,188.9022 172.5432,188.7862 172.2482,188.6722 C171.7462,188.4812 171.1762,188.2622 170.6932,187.8032 C170.1662,187.3042 169.8272,186.7452 169.5532,186.2952 C169.4162,186.0702 169.2752,185.8362 169.1792,185.7352 C168.4502,184.9642 168.2722,184.7162 168.0212,184.3452 C167.9222,184.1992 167.8022,184.0222 167.5652,183.7162 C167.0582,183.0612 167.1782,182.1192 167.8332,181.6122 C168.4872,181.1062 169.4302,181.2242 169.9382,181.8792 C170.2342,182.2622 170.3822,182.4822 170.5062,182.6652 C170.6712,182.9092 170.7612,183.0422 171.3602,183.6742 C171.6742,184.0072 171.9002,184.3782 172.1182,184.7382 C172.3262,185.0802 172.5222,185.4032 172.7582,185.6262 C172.8312,185.6842 173.1252,185.7962 173.3212,185.8712 C173.8052,186.0562 174.4082,186.2872 174.9422,186.7462 C175.1622,186.9352 175.4662,187.1242 175.7892,187.3262 C176.1292,187.5382 176.5162,187.7782 176.8962,188.0752 C177.2662,188.3642 177.5772,188.6952 177.8512,188.9862 C178.1152,189.2672 178.3642,189.5322 178.6162,189.7102 C178.8632,189.8852 179.1902,190.0472 179.5362,190.2182 C179.8912,190.3942 180.2942,190.5942 180.6922,190.8482 C181.1532,191.1442 181.5052,191.5082 181.8182,191.8302 C182.0622,192.0812 182.2922,192.3202 182.4932,192.4352 C182.9032,192.6702 183.2642,192.9562 183.5832,193.2072 C183.8892,193.4482 184.1782,193.6752 184.4482,193.8142 C184.8422,194.0162 185.2632,194.1882 185.6882,194.3632 C186.0032,194.4932 186.3202,194.6232 186.6312,194.7642 C186.9322,194.9002 187.3022,195.0062 187.6942,195.1192 C188.0962,195.2352 188.5012,195.3542 188.8932,195.5072 C189.3742,195.6972 189.7882,195.9602 190.1552,196.1932 C190.4642,196.3902 190.7572,196.5772 191.0002,196.6582 C191.2342,196.7372 191.5762,196.7672 191.9382,196.8002 C192.3712,196.8392 192.8652,196.8832 193.3702,197.0242 C193.7452,197.1272 194.1172,197.2622 194.4902,197.4002 C194.8922,197.5472 195.2712,197.6872 195.6272,197.7662 C195.8822,197.8232 196.2302,197.8232 196.5972,197.8232 C197.0352,197.8222 197.5062,197.8222 198.0102,197.9072 C198.4642,197.9822 198.8752,198.1072 199.2722,198.2272 C199.6502,198.3412 200.0052,198.4502 200.3162,198.4842 C200.6192,198.5202 200.9872,198.4972 201.3752,198.4722 C201.7722,198.4482 202.2212,198.4192 202.6892,198.4492 C203.4632,198.4952 204.2492,198.5122 205.0472,198.5192 C205.2782,198.5092 205.6452,198.4512 206.0022,198.3762 C206.4142,198.2902 206.8822,198.1922 207.3922,198.1702 C207.7882,198.1522 208.1902,198.1692 208.5922,198.1882 C209.0032,198.2072 209.3952,198.2252 209.7512,198.1932 C210.1562,198.1562 210.5652,198.1582 210.9782,198.1572 C211.3922,198.1602 211.7782,198.1612 212.1232,198.1112 C212.3022,198.0852 212.5932,197.9472 212.8742,197.8112 C213.3042,197.6062 213.7902,197.3732 214.3752,197.2612 C215.1392,197.1172 215.8962,196.9572 216.6782,196.7732 C217.2042,196.6492 217.7072,196.6412 218.1512,196.6342 C218.5012,196.6292 218.8322,196.6242 219.0622,196.5602 C219.2782,196.4992 219.5572,196.3362 219.8542,196.1652 C220.2452,195.9372 220.6872,195.6802 221.2172,195.5072 C221.7762,195.3262 222.3132,195.3012 222.7862,195.2802 C223.1202,195.2642 223.4362,195.2502 223.6202,195.1822 C224.0882,195.0092 224.5592,194.9182 224.9732,194.8372 C225.3432,194.7662 225.6932,194.6982 225.9592,194.5882 C226.0832,194.5382 226.3292,194.3092 226.5272,194.1252 C226.8852,193.7912 227.3322,193.3762 227.9252,193.1082 C228.2862,192.9442 228.6312,192.7452 228.9812,192.5452 C229.3232,192.3502 229.6682,192.1552 230.0282,191.9772 C230.3292,191.8292 230.6332,191.6952 230.9352,191.5642 C231.3372,191.3882 231.7182,191.2212 232.0482,191.0302 C232.3582,190.8502 232.6632,190.6082 232.9872,190.3522 C233.2692,190.1282 233.5512,189.9072 233.8482,189.7062 C234.2872,189.4082 234.7382,189.2262 235.1352,189.0662 C235.4402,188.9432 235.7272,188.8282 235.8832,188.7052 C236.0492,188.5752 236.2342,188.3202 236.4292,188.0492 C236.6772,187.7062 236.9582,187.3172 237.3462,186.9692 C237.7132,186.6402 238.1012,186.3962 238.4442,186.1802 C238.7372,185.9962 239.0142,185.8222 239.1812,185.6512 C239.5952,185.2282 240.0612,184.9642 240.4722,184.7312 C240.7062,184.5992 240.9972,184.4342 241.0902,184.3262 C241.2022,184.1972 241.3212,183.9012 241.4362,183.6162 C241.6082,183.1902 241.8022,182.7072 242.1472,182.2552 C242.4822,181.8162 242.7832,181.3592 243.0822,180.9072 L243.4252,180.3932 C243.5482,180.2112 243.6482,179.9132 243.7532,179.5962 C243.8892,179.1932 244.0422,178.7362 244.3112,178.2872 C244.6432,177.7322 245.1042,177.3512 245.4732,177.0452 C245.6402,176.9082 245.8922,176.7002 245.9452,176.6082 L246.2392,176.0582 C246.5052,175.5632 246.7682,175.0752 246.9962,174.5852 C247.3292,173.8752 247.6272,173.1652 247.9082,172.4832 C247.9792,172.3092 248.0012,171.9912 248.0242,171.6822 C248.0562,171.2292 248.0922,170.7172 248.2812,170.1902 C248.3992,169.8592 248.4722,169.4922 248.5502,169.1032 C248.6282,168.7162 248.7062,168.3392 248.8172,167.9812 C249.0242,167.3072 249.4172,166.8062 249.7342,166.4032 C249.8502,166.2552 250.0252,166.0322 250.0612,165.9462 C250.1162,165.7282 250.0912,165.3962 250.0652,165.0452 C250.0352,164.6252 249.9992,164.1502 250.1012,163.6582 C250.2442,162.9642 250.3362,162.6452 250.4082,162.3992 C250.4782,162.1552 250.5072,162.0532 250.5692,161.5232 C250.6642,160.7012 251.4102,160.1132 252.2322,160.2062 C253.0552,160.3012 253.6452,161.0462 253.5492,161.8692 C253.4632,162.6092 253.3942,162.8702 253.2892,163.2322 C253.2312,163.4332 253.1562,163.6952 253.0382,164.2632 C253.0222,164.3542 253.0422,164.6252 253.0572,164.8242 C253.0962,165.3492 253.1442,166.0012 252.9572,166.7222 C252.7902,167.3682 252.4042,167.8602 252.0932,168.2552 C251.9222,168.4742 251.7282,168.7212 251.6842,168.8632 C251.6022,169.1282 251.5492,169.4082 251.4922,169.6932 C251.4012,170.1482 251.2972,170.6642 251.1052,171.2002 C251.0552,171.3392 251.0362,171.6212 251.0162,171.8932 C250.9812,172.3882 250.9382,173.0032 250.6822,173.6232 C250.3852,174.3482 250.0672,175.1032 249.7142,175.8562 C249.4632,176.3932 249.1742,176.9332 248.8812,177.4782 L248.5962,178.0122 C248.2722,178.6252 247.7802,179.0322 247.3842,179.3582 C247.1922,179.5172 246.9532,179.7152 246.8852,179.8272 C246.7842,179.9972 246.6942,180.2652 246.5982,180.5492 C246.4412,181.0202 246.2622,181.5522 245.9112,182.0732 L245.5832,182.5642 C245.2472,183.0712 244.9082,183.5822 244.5332,184.0742 C244.4332,184.2042 244.3242,184.4752 244.2182,184.7382 C244.0322,185.2022 243.7982,185.7792 243.3632,186.2842 C242.9302,186.7872 242.3872,187.0942 241.9512,187.3412 C241.7012,187.4832 241.4422,187.6292 241.3252,187.7492 C240.9122,188.1722 240.4502,188.4622 240.0422,188.7192 C239.7772,188.8862 239.5272,189.0432 239.3482,189.2042 C239.2012,189.3352 239.0362,189.5642 238.8612,189.8062 C238.5662,190.2132 238.2332,190.6752 237.7322,191.0682 C237.2412,191.4512 236.7192,191.6622 236.2582,191.8472 C235.9752,191.9622 235.7062,192.0712 235.5312,192.1902 C235.2942,192.3492 235.0732,192.5272 234.8492,192.7052 C234.4752,193.0002 234.0512,193.3352 233.5572,193.6232 C233.0782,193.9022 232.5982,194.1112 232.1342,194.3132 C231.8752,194.4262 231.6142,194.5402 231.3552,194.6672 C231.0512,194.8182 230.7572,194.9862 230.4662,195.1522 C230.0552,195.3862 229.6292,195.6292 229.1632,195.8402 C229.0162,195.9072 228.7792,196.1272 228.5702,196.3232 C228.1952,196.6702 227.7282,197.1052 227.1012,197.3632 C226.5572,197.5862 226.0192,197.6912 225.5442,197.7832 C225.2122,197.8472 224.8992,197.9082 224.6602,197.9972 C224.0372,198.2262 223.4182,198.2542 222.9212,198.2772 C222.6242,198.2902 222.3182,198.3042 222.1462,198.3602 C221.9192,198.4342 221.6482,198.5912 221.3612,198.7582 C220.9372,199.0042 220.4552,199.2852 219.8742,199.4482 C219.2692,199.6182 218.6992,199.6262 218.1972,199.6342 C217.8772,199.6392 217.5762,199.6442 217.3662,199.6932 C216.5402,199.8882 215.7412,200.0562 214.9332,200.2092 C214.7342,200.2472 214.4612,200.3772 214.1722,200.5162 C213.7072,200.7392 213.1822,200.9912 212.5442,201.0822 C211.9842,201.1622 211.4422,201.1612 210.9642,201.1572 C210.6492,201.1542 210.3342,201.1522 210.0292,201.1802 C209.4662,201.2322 208.9292,201.2072 208.4532,201.1852 C208.1412,201.1702 207.8282,201.1552 207.5212,201.1672 C207.2562,201.1792 206.9462,201.2442 206.6172,201.3132 C206.1532,201.4102 205.6292,201.5192 205.0582,201.5192" id="Fill-616" fill="#231F20"/><path d="M164.3804,29.3834 C157.4984,24.9844 152.8314,32.5524 152.8304,32.5534 L91.6304,109.9344 L113.6354,109.9344 L165.9594,42.5314 C167.0694,41.1494 173.1374,34.9814 164.3804,29.3834" id="Fill-618" fill="#CB79AA"/><path d="M8.3868,139.4127 L10.0498,184.4697 C10.0498,184.4697 9.0518,213.7327 39.3128,215.3947 C69.5738,217.0587 107.1518,216.3927 121.4508,213.7327 C135.7498,211.0727 151.3798,203.7567 151.0468,179.8127 C150.7148,155.8707 148.1648,130.5977 148.1648,130.5977 C148.1648,130.5977 148.0538,109.9797 117.7928,109.9797 L39.3128,109.9797 C39.3128,109.9797 8.3868,107.4857 8.3868,139.4127" id="Fill-620" fill="#CB79AA"/><path d="M58.5855,174.1793 L28.9895,174.1793 C28.9895,174.1793 19.1825,173.8443 19.179499,179.5003 C19.1755,185.9023 30.9085,185.8883 30.9085,185.8883 C30.9085,185.8883 52.8795,186.7933 58.5855,186.4843 C66.2335,186.0683 69.7255,184.1563 70.4595,180.3603 C71.0405,177.3513 68.2295,174.1793 58.5855,174.1793" id="Fill-622" fill="#FECB72"/><path d="M91.6885,180.3698 C90.9225,185.7288 98.0065,186.1448 102.9945,186.1668 C107.9825,186.1888 131.0655,184.7628 134.7525,184.0278 C138.5085,183.2798 141.8185,182.1988 141.8185,178.6238 C141.8185,175.0498 137.9115,172.6798 129.4315,172.7218 C121.0245,172.7628 92.9355,171.6408 91.6885,180.3698" id="Fill-624" fill="#FECB72"/><path d="M32.4405,108.9821 C32.4405,108.9821 10.7145,111.4201 8.3865,127.8931 C8.3865,127.8931 6.9455,135.5861 7.3895,144.4541 C7.8325,153.3211 50.5135,157.9771 79.7195,157.0891 C108.9245,156.2031 150.1605,148.9461 150.1605,139.4131 C150.1605,129.8791 152.1555,112.0861 127.3255,108.9821 C102.4965,105.8781 45.5205,106.7651 32.4405,108.9821" id="Fill-626" fill="#FECB72"/><path d="M75.6709,145.4508 L75.6689,161.5798 C75.6689,161.5798 75.6689,165.4268 79.4949,165.4038 C82.4749,165.3868 85.9239,165.4268 85.9239,165.4268 C85.9239,165.4268 90.0509,165.4268 90.1139,161.5798 C90.1579,158.8728 90.0509,145.4508 90.0509,145.4508 C90.0509,145.4508 90.0509,141.1828 85.9899,140.8528 C83.3289,140.6368 75.6709,139.2438 75.6709,145.4508" id="Fill-628" fill="#000"/><path d="M136.1626,0.8785 L124.7636,0.8785 C119.6096,0.8785 115.2236,4.5725 114.3076,9.6145 C114.2976,9.6775 114.2886,9.7375 114.2796,9.8005 L114.2736,9.8345 C114.2366,10.0805 114.1986,10.3305 114.1616,10.5795 C112.8356,19.3205 111.1966,30.0315 111.1966,30.0315 L146.6296,30.0315 L146.7016,22.2665 L146.7996,11.6145 C146.8546,5.7015 142.0766,0.8785 136.1626,0.8785" id="Fill-630" fill="#feb1cd"/><path d="M146.6295,30.0319 C132.7545,29.0559 128.9635,26.0809 129.0975,23.6039 C129.2175,21.3859 131.3025,21.6949 132.2125,21.7159 C136.2265,21.8049 146.7015,22.2659 146.7015,22.2659" id="Fill-632" fill="#000"/><path d="M109.3233,23.9069 C109.3233,23.9069 105.1373,24.1289 105.16615,28.1749 C105.1943,31.9699 110.3213,32.5529 110.3213,32.5529 L149.2833,32.5529 C149.2833,32.5529 152.8233,31.8379 152.830329,28.8949 C152.8393,25.3469 150.7873,24.6699 148.1273,24.5589 C146.4713,24.4899 133.4753,23.7079 122.1813,23.5189 C115.3253,23.4049 109.3233,23.9069 109.3233,23.9069" id="Fill-634" fill="#8C72CB"/></g></g></g></g><g id="Head" transform="translate(204.000000, 145.000000) scale(1 1)"><g id="Head/Dreadlocks" stroke="none" stroke-width="1" fill="none" fill-rule="evenodd"><g id="Group-183" transform="translate(44.000000, 49.000000)"><g id="Group-110" transform="translate(0.000000, 0.738000)"><path d="M108.8612,74.1481 C107.8672,71.0971 102.5382,69.3411 98.8292,68.4721 C97.4172,62.2891 95.8602,56.5871 94.4562,53.9631 C91.7522,48.9061 83.5052,43.5911 70.3162,45.6321 C61.5592,46.9881 52.2332,55.1571 58.2902,69.3771 C58.2902,69.3771 60.0232,72.8251 59.1942,78.5091 C59.1022,79.1351 58.9722,80.0101 58.8162,81.0511 L58.8152,81.0591 C58.5522,82.8191 58.2112,85.0751 57.8382,87.5401 C57.8282,87.6021 57.8192,87.6631 57.8092,87.7261 L57.8042,87.7601 C57.7672,88.0051 57.7292,88.2551 57.6912,88.5041 C57.4622,91.0941 58.1682,99.5701 77.2452,99.6671 L90.2322,100.1921 L90.4292,100.2001 C90.4292,100.2001 94.7812,100.1511 97.4152,100.1511 C102.8882,100.1511 103.8292,94.9321 103.2152,91.0701 C102.9972,89.7031 102.2812,85.4831 101.2912,80.3131 C104.7592,79.3551 109.9072,77.3621 108.8612,74.1481" id="Fill-104" fill="#feb1cd"/><path d="M72.1664,65.7428 C72.0704,66.8358 68.1784,67.6938 67.0824,67.7218 C65.1144,67.7738 62.1164,68.2678 60.5604,70.6008 C59.0834,72.8168 59.5084,76.2618 62.4614,78.5928 C64.4224,80.1408 64.2094,83.1678 62.0054,84.3458 L57.9644,86.5058 C57.9644,86.5058 53.5774,75.5898 51.8034,68.6058 C51.8034,68.6058 12.3424,82.7658 7.2434,75.9638 C2.1444,69.1608 25.0854,62.6658 48.5894,60.2928 C48.5894,60.2928 30.1884,59.5158 13.8944,56.9678 C-2.6466,54.3798 -5.1716,40.6708 17.2194,43.9968 C39.6104,47.3238 50.1414,54.6388 50.1414,54.6388 C50.1414,54.6388 33.1814,42.1138 26.5304,28.7008 C19.8794,15.2888 41.3914,20.7408 55.9094,45.3488 C55.9094,45.3488 43.2684,12.9608 50.8064,6.4208 C58.3434,-0.1182 67.0784,30.3988 66.4124,40.7078 C66.4124,40.7078 69.2534,0.6958 85.8334,0.6958 C94.9234,0.6958 98.9664,9.4738 79.9014,40.0678 C79.9014,40.0678 105.6464,5.2018 118.0904,16.2868 C128.5874,25.6368 91.8844,42.5548 91.8844,42.5548 C91.8844,42.5548 131.5104,33.8178 128.9534,47.2128 C126.6254,59.4058 94.5454,51.8168 94.5454,51.8168 C94.5454,51.8168 81.9594,53.5928 74.6484,54.5898 C71.9824,54.9528 72.9244,57.1128 72.6894,59.7928 L72.1664,65.7428 Z" id="Fill-106" fill="#ff0048"/><path d="M64.1552,81.8805 L62.8162,80.5415 C62.5412,80.2665 62.5412,79.8215 62.8162,79.5465 L64.1552,78.2075 C64.4292,77.9335 64.8752,77.9335 65.1492,78.2075 L66.4882,79.5465 C66.7632,79.8215 66.7632,80.2665 66.4882,80.5415 L65.1492,81.8805 C64.8752,82.1545 64.4292,82.1545 64.1552,81.8805" id="Fill-108" fill="#F8FBF8"/></g></g></g></g><g id="Expression" transform="translate(315.000000, 246.000000) scale(1 1)"><defs><path d="M2.973,1.055 C-0.453,2.37 -2.944,13.004 10.567,16.001 L10.567,16.001 C16.271,17.266 19.387,14.583 19.536,11.9 L19.536,11.9 C19.665,9.554 17.527,7.208 12.869,7.501 L12.869,7.501 C11.822,7.568 10.572,7.073 9.905,5.972 L9.905,5.972 C8.651,3.902 7.906,0.626 4.999,0.626 L4.999,0.626 C4.417,0.626 3.749,0.757 2.973,1.055" id="expressionlaugh-path-1"/></defs><g id="Expression/Laugh" stroke="none" stroke-width="1" fill="none" fill-rule="evenodd"><g id="Group-77" transform="translate(13.400000, 13.300000)"><g id="Group-3" transform="translate(0.000000, 0.116900)"><g id="Group" transform="translate(0.000000, 15.000000)"><path d="M2.973,1.0549 C-0.453,2.3699 -2.944,13.0039 10.567,15.9999 C21.261,18.3719 22.855,6.8709 12.869,7.5009 C11.822,7.5679 10.571,7.0739 9.904,5.9719 C8.4,3.4879 7.63,-0.7321 2.973,1.0549" id="Fill-37" fill="#000"/><g id="Group-41"><mask id="expressionlaugh-mask-2" fill="#ffffff"><use xlink:href="#expressionlaugh-path-1" fill="#ffffff"/></mask><g id="Clip-40"/><path d="M-3.2101,3.4943 C-3.2101,3.4943 1.3509,2.7393 5.4389,7.3023 C9.5279,11.8643 9.1349,18.8593 9.1349,18.8593 C9.1349,18.8593 -6.6571,11.2823 -3.2101,3.4943" id="Fill-39" fill="#FF71DB" mask="url(#expressionlaugh-mask-2)"/></g></g><g id="Group-46" transform="translate(3.000000, 0.000000)"><path d="M3.1312,6.052 C3.7892,6.555 4.7312,6.427 5.2332,5.769 C7.2772,3.086 9.8032,4.136 10.1002,4.271 C10.8412,4.624 11.7342,4.313 12.0932,3.571 C12.4552,2.825 12.1432,1.928 11.3982,1.566 C10.3642,1.065 8.4892,0.66 6.5312,1.268 C5.2702,1.659 3.9732,2.472 2.8462,3.95 C2.3442,4.61 2.4722,5.55 3.1312,6.052" id="Fill-42" fill="#000"/><path d="M4.6669,6.3596 C4.6669,7.0556 3.7149,7.6196 2.5399,7.6196 C1.3649,7.6196 0.4129,7.0556 0.4129,6.3596 C0.4129,5.6646 1.3649,5.0996 2.5399,5.0996 C3.7149,5.0996 4.6669,5.6646 4.6669,6.3596" id="Fill-44" fill="#F8FBF8"/></g></g></g></g></g><g id="Facial Hair" transform="translate(311.300000, 250.950000) scale(1 1)"><g id="Facial Hair/None" stroke="none" stroke-width="1" fill="none" fill-rule="evenodd" fill-opacity="0"/></g><g id="Accesories" transform="translate(311.300000, 250.950000) scale(1 1)"><g id="Accesories/None" stroke="none" stroke-width="1" fill="none" fill-rule="evenodd" fill-opacity="0"/></g></g></g></g></svg>