<svg viewBox="191.25 51 726.7500000000001 879.7499999999999" xmlns="http://www.w3.org/2000/svg" xmlns:xlink="http://www.w3.org/1999/xlink" overflow="visible" width="726.7500000000001px" height="879.7499999999999px"><defs><polygon id="masterspot-illustrationplanning-path-1" points="0.6017 0.148 107.7217 0.148 107.7217 265 0.6017 265"/><polygon id="masterspot-illustrationplanning-path-3" points="0.302904145 0.494 189.197939 0.494 189.197939 192.743236 0.302904145 192.743236"/></defs><g id="Master/Spot Illustration/Planning" stroke="none" stroke-width="1" fill="none" fill-rule="evenodd"><g id="Planning" transform="translate(25.000000, 63.000000) scale(1 1)"><defs><polygon id="planningpen-and-paper-path-1" points="0.6017 0.148 107.7217 0.148 107.7217 265 0.6017 265"/><polygon id="planningpen-and-paper-path-3" points="0.302904145 0.494 189.197939 0.494 189.197939 192.743236 0.302904145 192.743236"/></defs><g id="Planning/Pen and Paper" stroke="none" stroke-width="1" fill="none" fill-rule="evenodd"><g id="Group-33" transform="translate(211.000000, 0.000000)"><path d="M438.9089,130.2656 C438.9089,130.2656 178.6299,129.3266 92.8449,136.1146 C92.8449,136.1146 39.2289,134.7336 36.3049,201.7126 C33.3809,268.6916 36.3049,756.1056 36.3049,756.1056 C36.3049,756.1056 33.1369,801.9226 90.8949,801.9226 C138.6619,801.9226 410.6389,794.1236 443.7829,792.1736 C476.9279,790.2246 496.4239,778.5266 497.3989,726.8606 C498.3739,675.1946 497.3989,201.7126 497.3989,201.7126 C497.3989,201.7126 504.2139,130.2716 438.9089,130.2656" id="Fill-1" fill="#FE5C4F"/><path d="M467.7341,217.6768 L471.4031,736.9338 C471.4031,736.9338 471.4031,771.7868 442.8441,771.7868 C424.6351,771.7868 370.6711,774.1398 370.6711,774.1398 L46.7991,777.361654 C36.5521,777.4618 28.5211,768.5848 29.6441,758.3988 L35.0051,709.8008 L448.0071,190.3798 L460.2411,197.4818 L467.7341,217.6768 Z" id="Fill-3" fill="#DDF77D"/><path d="M112.6662,178.6826 C112.6662,178.6826 84.0712,174.7836 78.5472,203.0526 C75.8872,216.6666 74.3202,312.5316 59.7012,415.8906 C41.7832,542.5626 9.8332,683.0356 0.8862,728.4856 C0.8862,728.4856 -8.0498,763.4166 30.8332,766.7906 C64.5562,769.7176 403.8152,760.9796 403.8152,760.9796 C403.8152,760.9796 427.2112,764.2296 429.8112,736.2846 C431.2812,720.4756 450.9442,571.8786 460.3552,436.3616 C467.5802,332.3276 468.6462,252.3246 467.6032,211.7866 C467.6032,211.7866 469.1282,180.4696 442.1592,177.9856 C414.9442,175.4786 112.6662,178.6826 112.6662,178.6826" id="Fill-5" fill="#F8FBF8"/><path d="M116.5656,259.1055 L116.5656,229.1055 L131.639572,229.119976 C140.361145,229.139394 147.617677,229.179787 156.044145,229.249682 L181.755469,229.48031 C191.247151,229.552694 199.613176,229.586406 211.067399,229.595134 L218.849033,229.59793 L223.22302,229.608821 C239.088146,229.677932 249.200919,230.071897 263.436175,231.020887 L273.195942,231.697361 C288.582161,232.749984 298.501713,233.143634 315.715571,233.184826 L336.327166,233.205658 C344.562284,233.224783 351.641463,233.261244 359.985352,233.321648 L379.887883,233.476161 C392.168215,233.56381 401.787553,233.598778 416.770396,233.603047 L420.0626,233.6035 L420.0626,263.6035 L400.602002,263.581216 C392.024864,263.557752 384.529228,263.514036 375.198006,263.442104 L359.069343,263.315837 C346.789212,263.228189 337.17012,263.193222 322.187708,263.188953 L317.775136,263.18807 L313.401025,263.177179 C297.535457,263.108067 287.422444,262.714095 273.186982,261.765092 L263.427186,261.088616 C248.041189,260.036007 238.121888,259.642365 220.908535,259.601174 L202.690304,259.583104 C192.291496,259.560032 183.978607,259.507186 173.291878,259.410138 L156.158142,259.251671 C145.089522,259.159123 136.112243,259.117685 123.22661,259.107866 L116.5656,259.1055 Z" id="Stroke-7" fill="#A2D249" fill-rule="nonzero"/><path d="M110.716,346.475 L110.7165,316.4766 L110.691604,316.475528 C111.105175,316.44068 151.353382,315.564449 179.188685,315.060852 L190.826288,314.855942 L218.461543,314.395096 C223.535613,314.298635 228.931784,314.182895 235.585446,314.029011 L286.310501,312.821779 C290.592976,312.728815 294.401288,312.652477 298.125803,312.584878 L313.529374,312.326271 C328.060568,312.064807 338.157965,311.766475 348.988734,311.324172 L364.052176,310.677801 C374.232776,310.257019 382.506831,309.998666 394.123581,309.775858 L403.544919,309.613434 L404.014081,339.609766 L396.485979,339.736812 C383.55178,339.97388 374.964864,340.244043 363.746039,340.716689 L350.897102,341.271096 C339.821646,341.728143 329.585534,342.036806 315.02152,342.304086 L296.514993,342.619896 C292.195085,342.701552 287.659331,342.796885 282.311743,342.917951 L231.837892,344.122238 C222.863444,344.323465 216.10237,344.452764 208.642666,344.568788 C202.900606,344.658055 197.130133,344.752451 191.338972,344.851561 L166.795608,345.298984 C156.321388,345.501783 145.199712,345.729326 135.645393,345.929938 L110.716,346.475 Z" id="Stroke-9" fill="#A2D249" fill-rule="nonzero"/><path d="M98.3689,429.0117 L98.3689,399.0117 L107.903426,399.02174 C121.044413,399.052236 130.333099,399.155484 142.730579,399.375794 L159.516672,399.683109 C172.308004,399.898104 182.150172,399.980406 197.960387,399.987232 L204.57056,399.993916 C222.609482,400.04733 233.192372,400.452374 250.021653,401.492455 L255.936844,401.859087 C272.042148,402.834352 282.229904,403.175563 300.890346,403.188326 L308.51744,403.182022 C324.736835,403.14642 334.739146,402.963614 350.43787,402.518241 L359.22301,402.271393 C374.198341,401.870032 384.64826,401.724532 402.700085,401.718873 L403.8149,401.7187 L403.8149,431.7187 L396.379853,431.727562 C381.016985,431.767174 371.186137,431.94473 356.316585,432.36259 L347.51345,432.611105 C332.348136,433.022962 321.955695,433.176589 304.208597,433.188005 L298.639845,433.185137 C279.61522,433.143375 268.905349,432.728416 251.179146,431.623168 L245.302302,431.260673 C230.66892,430.384706 220.821609,430.042145 204.49745,429.993798 L189.668619,429.975236 C176.067886,429.939366 166.522613,429.822063 152.97432,429.572036 L139.654187,429.326789 C127.712308,429.12361 118.425737,429.035138 104.701509,429.01586 L98.3689,429.0117 Z" id="Stroke-11" fill="#A2D249" fill-rule="nonzero"/><path d="M381.450416,491.64593 L381.918984,521.64227 L378.776335,521.69595 C361.782694,522.012881 352.275173,522.653887 336.629599,524.233365 L333.734206,524.528275 C315.772709,526.355395 305.266933,527.04766 284.934288,527.365266 L256.248601,527.790137 L211.624827,528.369881 L180.571226,528.833218 C167.769325,529.009252 158.891293,529.052494 147.450141,529.020098 L130.713656,528.952742 C120.279163,528.92305 112.036591,528.956954 100.88917,529.098957 L90.8179933,529.24327 L90.3494067,499.24693 L96.664259,499.152945 C111.999884,498.937621 121.647271,498.908822 136.254592,498.97291 L147.504592,499.020137 C159.098424,499.053082 167.990202,499.00742 181.1692,498.822003 L217.590062,498.28499 L259.025633,497.749016 C266.214433,497.648846 273.62112,497.538173 283.372211,497.386009 L287.608169,497.315249 C303.582696,497.01733 312.942262,496.43305 327.003015,495.052105 L335.526387,494.193944 C351.475175,492.612394 361.823454,491.971004 380.351022,491.66363 L381.450416,491.64593 Z" id="Stroke-13" fill="#A2D249" fill-rule="nonzero"/><path d="M71.0739,611.4648 L71.0739,581.4648 L74.3902839,581.469463 C92.7151367,581.522737 103.351306,582.03988 119.92292,583.395953 L125.828205,583.886176 C141.659332,585.181998 151.565899,585.663012 169.011384,585.713314 L173.342063,585.717541 L179.703305,585.704192 C193.813677,585.648481 203.198416,585.414934 216.300579,584.880024 L227.046881,584.424494 C242.685594,583.776944 253.132862,583.536393 271.197731,583.518847 L281.796278,583.509306 C294.240848,583.481791 303.087566,583.384515 314.259254,583.175569 L333.186201,582.795671 C345.980477,582.556514 355.804649,582.461374 371.252574,582.449982 L374.5709,582.4488 L374.5709,612.4488 L365.202423,612.459612 C350.039591,612.498221 340.142237,612.645236 324.303827,612.979952 L317.132076,613.126165 C302.849032,613.404299 292.659677,613.50912 275.634231,613.517278 L271.210088,613.518844 C253.616255,613.536001 243.546095,613.767122 228.310659,614.397855 L218.592977,614.811092 C203.892377,615.419798 193.778908,615.668875 177.613395,615.711147 L171.111675,615.717288 L167.792529,615.709234 C150.890759,615.641095 140.510478,615.157713 125.396109,613.949232 L115.609436,613.144812 C101.153455,611.987435 91.4565606,611.536447 75.3362058,611.472824 L71.0739,611.4648 Z" id="Stroke-15" fill="#A2D249" fill-rule="nonzero"/><path d="M358.145298,672.651027 L370.6712,672.6514 L370.6712,702.6514 L281.153751,702.630993 L259.054285,702.634499 C241.59767,702.657163 231.091064,702.776995 213.650527,703.072744 L204.876906,703.215064 C192.31087,703.407206 182.65716,703.493149 168.595444,703.51413 L154.368513,703.525821 C137.579169,703.560767 127.259339,703.743144 111.028954,704.188932 L103.070651,704.406457 C88.3368491,704.794236 77.9941947,704.953173 61.5825922,704.980153 L56.1262,704.9844 L56.1262,674.9844 L62.6353107,674.978173 C78.1168775,674.946499 88.0938912,674.790016 102.230605,674.418186 L114.962374,674.072893 C129.204239,673.702857 139.452977,673.550052 155.514958,673.523647 L171.67631,673.508248 C186.86414,673.473015 197.052377,673.349895 213.141873,673.077056 L222.391523,672.927487 C234.961148,672.736873 244.676663,672.653228 258.993125,672.634558 L358.145298,672.651027 Z" id="Stroke-17" fill="#A2D249" fill-rule="nonzero"/><path d="M551.674,98.7764 C551.674,98.7764 553.649,65.6784 553.883,56.8264 C554.548,31.6864 566.53,29.8584 569.931,51.7344 C573.733,76.1934 576.116,97.3554 576.116,97.3554 C576.116,97.3554 563.256,113.8924 551.674,98.7764" id="Fill-19" fill="#67AD15"/><path d="M628.2692,472.374 C626.5632,441.724 615.5962,282.095 615.5962,282.095 L609.0162,188.268 L524.0442,190.38 C524.0442,190.38 535.4832,402.124 545.6022,578.822 L638.0192,569.654 C634.1662,535.578 629.2742,490.425 628.2692,472.374" id="Fill-21" fill="#A2D249"/><path d="M588.6716,103.0449 C588.6716,103.0449 587.2046,85.6669 570.5106,85.6669 C556.8636,85.6669 545.0436,83.4739 539.3166,106.6259 C534.2886,126.9489 524.0446,190.3799 524.0446,190.3799 L566.5566,189.3229 L609.0166,188.2679 L588.6716,103.0449 Z" id="Fill-23" fill="#DDF77D"/><g id="Group-27" transform="translate(545.000000, 569.506000)"><mask id="planningpen-and-paper-mask-2" fill="#fff"><use xlink:href="#planningpen-and-paper-path-1"/></mask><g id="Clip-26"/><path d="M53.4557,264.911 C53.4557,264.911 107.0717,267.835 107.7217,240.215 L97.8917,42.325 C97.8917,42.325 95.7087,23.933 93.0187,0.148 L0.6017,9.316 C7.5377,130.424 13.8517,235.068 15.4377,243.79 C19.3367,265.235 53.4557,264.911 53.4557,264.911" id="Fill-25" fill="#67AD15" mask="url(#planningpen-and-paper-mask-2)"/></g><path d="M616.3278,508.8242 C616.3278,508.8242 622.5018,623.2042 623.1518,638.1512 C623.8018,653.0982 630.3008,784.7002 630.3008,784.7002 C630.3008,784.7002 629.8128,794.9362 638.4238,795.4242 C647.0348,795.9112 655.3208,795.4242 655.3208,795.4242 C655.3208,795.4242 664.7448,795.5862 665.0688,780.9642 C665.3938,766.3412 659.8698,671.6202 659.8698,649.8492 C659.8698,628.0782 650.7718,514.9982 650.9338,514.5112 C651.0968,514.0232 649.3088,494.5262 637.2858,495.1772 C625.2638,495.8262 625.2638,496.3132 625.2638,496.3132 C625.2638,496.3132 615.7158,497.4582 616.3278,508.8242" id="Fill-28" fill="#DDF77D"/><g id="Group-32" transform="translate(176.000000, 0.506000)"><mask id="planningpen-and-paper-mask-4" fill="#fff"><use xlink:href="#planningpen-and-paper-path-3"/></mask><g id="Clip-31"/><path d="M81.5876,50.2098 C81.3816,26.6578 120.9326,25.5148 120.905614,50.5458 C120.8786,75.7928 81.7966,74.1058 81.5876,50.2098 M188.9816,106.7498 C188.4936,92.6148 166.5606,94.5638 166.5606,94.5638 L147.1456,94.1428 C142.1276,94.0338 139.9896,87.7738 143.8546,84.5718 C151.7856,77.9988 157.6926,67.7898 158.7616,53.6218 C160.7116,27.7888 142.7256,0.4938 103.1966,0.4938 C70.0526,0.4938 50.2096,14.8048 44.8686,42.1778 C40.1366,66.4318 49.5236,79.8228 57.6366,86.6038 C60.3226,88.8488 58.8616,93.2308 55.3696,93.4768 C45.4306,94.1768 31.1776,95.1828 19.3606,96.0268 C-1.1104,97.4888 0.3246,112.1108 0.3246,112.1108 L0.3246,179.5668 C0.3246,186.9908 6.4556,192.9488 13.8766,192.7378 L176.2596,188.1238 C183.3596,187.9218 189.0216,182.1368 189.0616,175.0338 C189.1756,154.9138 189.3346,116.9908 188.9816,106.7498" id="Fill-30" fill="#70A0E6" mask="url(#planningpen-and-paper-mask-4)"/></g></g></g></g><g transform="translate(-28.000000, 174.000000) scale(1 1)" id="Master/Character/Standing"><g id="Master/Character/Standing" stroke="none" stroke-width="1" fill="none" fill-rule="evenodd"><g id="Standing/Lower Body" transform="translate(14.000000, 442.000000) scale(1 1)"><defs><polygon id="standinglower-bodypattern-path-1" points="0.7579 0.5799 140.125 0.5799 140.125 43 0.7579 43"/></defs><g id="Standing/Lower Body/Pattern" stroke="none" stroke-width="1" fill="none" fill-rule="evenodd"><g id="Lower" transform="translate(241.000000, 0.000000)"><path d="M1.1245,25.6561 C1.1245,25.6561 1.7495,97.8171 1.1245,114.1121 C0.5885,128.0901 0.9725,228.8101 1.0925,257.1681 C1.1095,261.2701 4.2415,264.5801 8.0975,264.5801 L131.0605,264.5801 C135.1905,264.5801 138.3195,260.6111 137.6005,256.2841 L99.2795,25.6561 L1.1245,25.6561 Z" id="Fill-1" fill="#CBB1F4"/><path d="M59.2525,173.5087 C69.5595,178.9757 80.2335,183.5687 91.1665,187.4347 C89.5445,187.4627 87.9245,187.5037 86.3065,187.5667 C73.7545,188.0547 61.3315,189.5887 49.0635,191.9787 C52.6465,185.9447 56.0315,179.7727 59.2525,173.5087 M42.3575,151.7477 C48.1165,151.4117 53.8795,151.1977 59.6455,151.1397 C58.2765,154.0197 56.8945,156.8827 55.5105,159.7257 C55.4595,159.8317 55.4055,159.9377 55.3545,160.0427 C50.9365,157.4287 46.6065,154.6557 42.3575,151.7477 M78.3955,72.4037 C70.1225,66.1317 62.0535,59.5417 54.3165,52.5707 C63.6165,49.8827 72.8975,47.1157 82.1505,44.2517 C82.8745,53.3487 83.1575,62.4657 82.7655,71.5787 C81.3095,71.8587 79.8525,72.1327 78.3955,72.4037 M41.6905,203.7527 C70.1505,197.2387 99.5265,195.3127 128.2615,200.0797 L126.0575,186.8157 C104.4865,182.1037 83.4345,175.2937 63.6925,164.7317 C65.9145,160.2767 68.1195,155.7707 70.2575,151.2077 C73.8625,151.2947 77.4665,151.4417 81.0715,151.6687 C94.7075,152.5287 108.2315,154.5017 121.2885,158.1107 L119.5205,147.4707 C104.9725,143.7737 89.9295,141.9047 74.7375,141.3057 C81.3665,126.0817 86.9335,110.3087 89.7755,94.0667 C89.8625,93.5697 89.9385,93.0707 90.0205,92.5727 C97.5005,97.7917 105.1255,102.7747 112.8815,107.5147 L110.7535,94.7107 C104.2435,90.6267 97.7825,86.3647 91.4145,81.9127 C91.4755,81.2877 91.5155,80.6617 91.5695,80.0357 C96.9725,78.9437 102.3575,77.7647 107.7345,76.5387 L106.0935,66.6627 C101.4605,67.7217 96.8225,68.7477 92.1705,69.7067 C92.4605,60.2747 92.0915,50.8297 91.2805,41.4027 C94.6445,40.3347 97.9995,39.2387 101.3545,38.1427 L99.7085,28.2337 C96.5625,29.2627 93.4115,30.2787 90.2585,31.2837 C90.0435,29.4047 89.7925,27.5307 89.5515,25.6557 L80.1475,25.6557 C80.5205,28.4787 80.8705,31.3047 81.1855,34.1337 C69.4395,37.7847 57.6475,41.2707 45.8275,44.6427 C39.5505,38.5717 33.5235,32.2457 27.8055,25.6557 L15.5075,25.6557 C21.8085,33.3157 28.5125,40.6207 35.4955,47.5587 C24.1275,50.7337 12.7355,53.8137 1.3285,56.8227 C1.3445,60.1597 1.3595,63.6127 1.3715,67.0997 C15.5535,63.3687 29.7155,59.5567 43.8355,55.5707 C46.3365,57.8877 48.8635,60.1607 51.4135,62.3897 C56.1915,66.5667 61.0555,70.6297 65.9935,74.5867 C44.5855,78.1707 23.0235,80.8027 1.4025,82.7047 C1.4035,86.1587 1.3995,89.5187 1.3905,92.7067 C18.1615,91.2557 34.9035,89.3737 51.6045,86.9537 C59.9905,85.7387 68.3565,84.3777 76.6995,82.8767 C78.2915,84.0747 79.8765,85.2827 81.4825,86.4597 C78.8665,105.5227 72.1405,123.6597 64.3025,141.0887 C52.8395,141.0507 41.3415,141.6637 29.9495,142.6647 C22.1745,136.5837 14.7325,130.0177 7.6625,123.0177 C5.4235,120.8017 3.2255,118.5447 1.0645,116.2507 C0.9965,119.2747 0.9475,123.9877 0.9135,129.9227 C5.8465,134.8297 10.9315,139.5627 16.2025,144.0487 C11.0465,144.6357 5.9295,145.2857 0.8585,145.9757 C0.8535,149.1767 0.8495,152.5257 0.8475,155.9867 C9.6115,154.7917 18.3975,153.7227 27.2025,152.9037 C34.8135,158.6917 42.7285,164.0317 50.9345,168.8637 C46.3505,177.7527 41.4445,186.4557 36.1005,194.8317 C24.2025,197.7487 12.4675,201.4457 0.9155,205.7397 C0.9245,209.3157 0.9345,212.8347 0.9445,216.2697 C4.8655,214.7707 8.8095,213.3387 12.7815,211.9877 C17.6575,210.3287 22.5815,208.7977 27.5395,207.3907 C23.3255,213.1697 18.8575,218.7437 14.0695,224.0417 C9.8985,228.6547 5.5365,233.0487 1.0145,237.2397 C1.0315,242.0947 1.0485,246.4857 1.0645,250.2637 C5.9805,246.0207 10.7445,241.5607 15.3245,236.8577 C25.1615,226.7587 33.8635,215.5957 41.6905,203.7527" id="Fill-3" fill="#F3707F"/><path d="M99.5508,250.8456 C99.4478,250.9516 99.3438,251.0566 99.2408,251.1616 C94.9288,255.6136 90.5488,260.0746 86.1778,264.5796 L99.7878,264.5796 C100.9608,263.3536 102.1318,262.1246 103.3088,260.9036 C105.2518,258.8876 107.2148,256.8936 109.1678,254.8886 C110.9588,255.7466 112.7288,256.6366 114.4488,257.5896 C117.5008,259.2796 120.0078,261.7146 122.1268,264.5796 L131.0608,264.5796 C131.7938,264.5796 132.4938,264.4496 133.1478,264.2186 C131.8698,261.7996 130.4718,259.4926 128.9228,257.3646 C125.7358,252.9856 121.3208,249.8426 116.5058,247.3696 C122.0748,241.7196 127.6848,236.1156 133.3238,230.5436 L131.3838,218.8696 C123.1688,226.9306 115.0158,235.0636 106.9448,243.2876 C105.0078,242.5746 103.0888,241.9076 101.2378,241.2576 C90.1918,237.3746 78.6038,234.9006 66.9668,234.3846 C43.7578,233.3566 22.3388,241.8466 2.4978,254.0196 C2.0238,254.3106 1.5548,254.6116 1.0828,254.9056 C1.0858,255.6996 1.0898,256.4616 1.0928,257.1676 C1.1048,260.1586 2.7758,262.7206 5.1728,263.8936 C20.0478,254.4036 36.2888,246.5016 53.5808,244.7396 C68.6308,243.2036 84.8048,245.4886 99.5508,250.8456" id="Fill-5" fill="#F3707F"/><g id="Group-9" transform="translate(7.000000, 264.000000)"><mask id="standinglower-bodypattern-mask-2" fill="#fff"><use xlink:href="#standinglower-bodypattern-path-1"/></mask><g id="Clip-8"/><path d="M131.7969,21.3309 L108.8799,0.5799 L57.6949,0.5799 L53.4969,0.5799 L0.7579,0.5799 L0.7579,38.7479 C0.7579,38.7479 1.0429,42.9149 5.3089,42.9149 L20.6689,42.9149 C20.6689,42.9149 22.7409,43.6529 23.5939,40.0359 C24.0739,38.0039 25.0539,33.8839 25.8199,30.6649 C26.1919,29.1049 28.2509,28.8499 28.9819,30.2689 L31.1939,34.5699 C31.1939,34.5699 35.0449,42.9149 41.0399,42.9149 C44.3309,42.9149 69.9259,42.9769 69.9259,42.9769 L69.9569,42.9149 L73.4069,42.9149 C73.4069,42.9149 75.4789,43.6529 76.3329,40.0359 C76.8119,38.0039 77.7919,33.8839 78.5589,30.6649 C78.9299,29.1049 80.9889,28.8499 81.7199,30.2689 L83.9329,34.5699 C83.9329,34.5699 87.1859,42.9149 98.0979,42.9149 C101.3879,42.9149 130.0899,42.9769 130.0899,42.9769 C130.0899,42.9769 139.1269,43.8489 140.0859,34.9239 C140.7919,28.3529 131.7969,21.3309 131.7969,21.3309" id="Fill-7" fill="#FECB72" mask="url(#standinglower-bodypattern-mask-2)"/></g><path d="M46.6309,304.829 C45.5929,304.829 44.7509,303.933 44.7509,302.829 C44.7509,302.334 44.7269,302.087 44.7029,301.84 C44.6719,301.513 44.6359,301.141 44.6359,300.442 C44.6359,299.661 44.7109,299.229 44.7719,298.883 C44.8149,298.632 44.8439,298.466 44.8439,298.053 L44.8489,295.666 C44.8489,295.302 44.8199,295.17 44.7669,294.931 C44.6899,294.583 44.5839,294.106 44.5839,293.276 C44.5839,292.44 44.6929,291.962 44.7729,291.611 C44.8279,291.368 44.8559,291.246 44.8559,290.888 C44.8559,290.517 44.8269,290.384 44.7749,290.141 C44.6989,289.795 44.5969,289.322 44.5969,288.497 C44.5969,287.615 44.7579,287.08 44.9229,286.607 C44.9999,286.387 45.0129,286.347 45.0129,286.108 C45.0129,285.359 45.0729,284.945 45.1199,284.612 C45.1569,284.351 45.1849,284.164 45.1849,283.718 C45.1709,283.635 45.1409,283.589 45.1139,283.541 C44.8919,283.142 44.5189,282.473 44.5189,281.327 C44.5189,280.596 44.5699,280.19 44.6119,279.865 C44.6459,279.597 44.6709,279.402 44.6709,278.94 C44.6709,278.439 44.6479,278.188 44.6259,277.937 C44.5939,277.591 44.5629,277.244 44.5629,276.551 C44.5629,275.988 44.5529,275.706 44.5449,275.425 C44.5339,275.108 44.5239,274.792 44.5239,274.159 L44.5269,271.766 C44.5269,271.221 44.5139,270.947 44.4999,270.675 C44.4839,270.35 44.4679,270.024 44.4679,269.374 C44.4679,268.622 44.5279,268.206 44.5759,267.872 C44.6139,267.611 44.6409,267.424 44.6409,266.976 C44.6409,265.839 45.0049,265.173 45.2209,264.774 C45.2479,264.725 45.2769,264.68 45.2999,264.624 C45.2949,264.392 45.2949,264.392 45.1969,264.165 C44.9759,263.649 44.7589,263.064 44.7589,262.089 C44.7589,261.119 44.9699,260.537 45.1869,260.024 C45.2809,259.801 45.2849,259.792 45.2849,259.596 C45.2849,259.117 45.2569,258.916 45.2189,258.637 C45.1729,258.296 45.1139,257.871 45.1139,257.102 C45.1139,256.88 45.1049,256.855 45.0149,256.626 C44.8199,256.125 44.6289,255.557 44.6289,254.614 C44.6289,253.772 44.7459,253.277 44.8779,252.804 C44.9449,252.558 44.9739,252.457 44.9739,252.123 C44.9739,251.875 44.9589,251.833 44.8739,251.601 C44.7319,251.214 44.5169,250.628 44.5169,249.629 C44.5169,248.475 44.8809,247.797 45.0969,247.391 C45.1259,247.339 45.1579,247.288 45.1819,247.227 C45.1809,247.227 45.1849,247.196 45.1849,247.134 C45.1849,246.788 45.1549,246.676 45.0899,246.431 C44.9899,246.055 44.8529,245.54 44.8529,244.639 C44.8529,243.766 44.9889,243.255 45.1399,242.766 C45.2139,242.525 45.2389,242.444 45.2389,242.14 C45.2389,241.803 45.2109,241.701 45.1419,241.454 C45.0109,240.979 44.8929,240.483 44.8929,239.64 C44.8929,239.053 44.8899,238.759 44.8869,238.465 C44.8829,238.16 44.8799,237.854 44.8799,237.243 C44.8799,236.985 44.8619,236.933 44.7879,236.709 C44.6669,236.341 44.4829,235.786 44.4829,234.844 C44.4829,234.04 44.5679,233.597 44.6369,233.241 C44.6859,232.992 44.7149,232.842 44.7149,232.446 C44.7149,231.496 44.9229,230.927 45.1349,230.426 C45.2229,230.219 45.2229,230.219 45.2229,230.049 C45.2229,229.609 45.1949,229.424 45.1559,229.168 C45.1059,228.831 45.0429,228.412 45.0429,227.653 C45.0429,226.871 45.1179,226.439 45.1779,226.092 C45.2219,225.841 45.2509,225.674 45.2509,225.259 C45.2319,225.144 45.2029,225.098 45.1759,225.049 C44.9649,224.653 44.6119,223.991 44.6119,222.864 C44.6119,222.391 44.5879,222.181 44.5569,221.915 C44.5189,221.594 44.4719,221.193 44.4719,220.471 C44.4719,219.543 44.6459,218.995 44.7609,218.632 C44.8339,218.406 44.8529,218.346 44.8529,218.077 C44.8529,217.584 44.8279,217.337 44.8039,217.09 C44.7709,216.761 44.7339,216.387 44.7339,215.683 L44.7309,213.289 C44.7309,212.937 44.7029,212.817 44.6459,212.579 C44.5629,212.225 44.4479,211.74 44.4479,210.893 C44.4479,209.954 44.6309,209.399 44.7519,209.033 C44.8259,208.808 44.8429,208.756 44.8429,208.497 C44.8429,208.012 44.8199,207.797 44.7909,207.525 C44.7549,207.191 44.7139,206.812 44.7139,206.1 C44.7139,205.264 44.8379,204.773 44.9759,204.304 C45.0439,204.072 45.0669,203.995 45.0669,203.7 C45.0669,202.889 45.1609,202.422 45.2299,202.081 C45.2789,201.837 45.3089,201.688 45.3089,201.301 C45.3089,200.946 45.2799,200.825 45.2239,200.584 C45.1419,200.23 45.0289,199.747 45.0289,198.903 C45.0289,198.468 45.0019,198.294 44.9609,198.03 C44.9089,197.691 44.8429,197.269 44.8429,196.507 C44.8429,196.037 44.8179,195.829 44.7859,195.566 C44.7459,195.242 44.6969,194.839 44.6969,194.111 C44.6969,193.636 44.6729,193.425 44.6419,193.159 C44.6049,192.837 44.5579,192.437 44.5579,191.715 C44.5579,190.595 44.9049,189.934 45.1119,189.54 C45.1379,189.491 45.1669,189.444 45.1889,189.388 C45.1879,188.739 45.1829,188.448 45.1779,188.158 C45.1729,187.85 45.1669,187.541 45.1669,186.923 C45.1669,186.695 45.1549,186.661 45.0759,186.442 C44.9029,185.964 44.7349,185.422 44.7349,184.526 C44.7349,183.679 44.8499,183.192 44.9339,182.838 C44.9899,182.599 45.0189,182.479 45.0189,182.128 C45.0189,182.043 45.0119,182.01 45.0119,182.009 C44.9919,181.953 44.9629,181.904 44.9369,181.852 C44.7479,181.466 44.4299,180.817 44.4299,179.726 C44.4299,178.692 44.6969,178.069 44.8569,177.696 C44.9439,177.492 44.9439,177.492 44.9439,177.328 C44.9439,176.907 44.9159,176.738 44.8729,176.483 C44.8139,176.138 44.7419,175.708 44.7419,174.93 C44.7419,174.232 44.7759,173.861 44.8059,173.535 C44.8289,173.284 44.8529,173.034 44.8529,172.533 C44.8529,171.7 44.9749,171.212 45.1099,170.744 C45.1779,170.512 45.2009,170.433 45.2009,170.136 C45.2009,169.42 45.2419,169.04 45.2789,168.705 C45.3089,168.434 45.3329,168.222 45.3329,167.738 C45.3329,167.398 45.3049,167.289 45.2459,167.05 C45.1569,166.69 45.0349,166.199 45.0349,165.34 C45.0349,164.6 45.0889,164.192 45.1319,163.863 C45.1669,163.595 45.1929,163.401 45.1929,162.94 C45.1929,162.701 45.1779,162.661 45.1009,162.439 C44.9339,161.964 44.7719,161.427 44.7719,160.54 C44.7719,159.617 44.9589,159.06 45.1509,158.57 C45.2359,158.353 45.2419,158.34 45.2419,158.141 C45.2419,157.569 45.2339,157.283 45.2259,156.998 C45.2179,156.683 45.2099,156.37 45.2099,155.743 C45.2099,155.579 45.2099,155.579 45.1229,155.376 C44.9619,155.004 44.6939,154.38 44.6939,153.345 C44.6939,152.711 44.7039,152.393 44.7139,152.077 C44.7229,151.794 44.7319,151.512 44.7319,150.945 C44.7319,150.516 44.7039,150.344 44.6619,150.084 C44.6069,149.741 44.5379,149.315 44.5379,148.545 C44.5379,147.768 44.6099,147.34 44.6669,146.995 C44.7099,146.738 44.7379,146.568 44.7379,146.144 C44.7379,145.074 45.0369,144.435 45.2159,144.054 C45.2989,143.875 45.2989,143.875 45.2989,143.745 C45.2869,143.674 45.2569,143.628 45.2299,143.58 C45.0009,143.177 44.6179,142.503 44.6179,141.347 C44.6179,140.576 44.6869,140.15 44.7419,139.808 C44.7839,139.548 44.8119,139.376 44.8119,138.946 C44.8119,137.882 45.1059,137.245 45.2809,136.864 C45.3659,136.681 45.3659,136.681 45.3659,136.545 C45.3659,136.179 45.3369,136.047 45.2829,135.807 C45.2049,135.457 45.0989,134.978 45.0989,134.144 C45.0989,133.999 45.0989,133.999 45.0129,133.808 C44.8439,133.431 44.5599,132.799 44.5599,131.745 C44.5599,130.855 44.7239,130.315 44.8929,129.84 C44.9709,129.62 44.9849,129.58 44.9849,129.345 C44.9849,128.565 45.0579,128.135 45.1169,127.789 C45.1599,127.533 45.1889,127.365 45.1889,126.943 C45.1849,126.924 45.1539,126.878 45.1259,126.832 C44.8919,126.448 44.4569,125.735 44.4569,124.543 C44.4569,123.738 44.5439,123.295 44.6129,122.938 C44.6609,122.688 44.6909,122.538 44.6909,122.142 C44.6909,121.686 44.6639,121.494 44.6289,121.227 C44.5839,120.897 44.5269,120.485 44.5269,119.742 C44.5269,118.903 44.6369,118.423 44.7169,118.071 C44.7729,117.827 44.8009,117.704 44.8009,117.345 C44.8009,116.524 44.8999,116.054 44.9719,115.71 C45.0249,115.463 45.0529,115.327 45.0529,114.949 C45.0529,114.743 45.0459,114.725 44.9629,114.509 C44.7749,114.02 44.5909,113.468 44.5909,112.552 C44.5909,111.618 44.7679,111.067 44.8859,110.703 C44.9589,110.478 44.9779,110.418 44.9779,110.15 C44.9779,109.467 45.0049,109.125 45.0319,108.782 C45.0519,108.524 45.0729,108.267 45.0729,107.75 C45.0729,107.655 45.0649,107.619 45.0649,107.619 C45.0449,107.556 45.0149,107.507 44.9899,107.454 C44.8069,107.071 44.5019,106.429 44.5019,105.352 C44.5019,104.661 44.5309,104.316 44.5609,103.971 C44.5829,103.716 44.6049,103.461 44.6049,102.952 C44.6049,102.28 44.6279,101.944 44.6499,101.608 C44.6679,101.344 44.6849,101.079 44.6849,100.55 C44.6849,99.92 44.6939,99.605 44.7029,99.291 C44.7109,99.006 44.7179,98.72 44.7179,98.149 C44.7179,97.52 44.7269,97.206 44.7349,96.892 C44.7429,96.605 44.7499,96.319 44.7499,95.746 C44.7499,95.124 44.7559,94.813 44.7619,94.503 C44.7679,94.213 44.7749,93.924 44.7749,93.345 C44.7749,92.795 44.7609,92.519 44.7479,92.244 C44.7329,91.918 44.7169,91.593 44.7169,90.941 C44.7169,90.557 44.6889,90.419 44.6369,90.168 C44.5669,89.825 44.4689,89.355 44.4689,88.539 C44.4689,87.612 44.6589,87.055 44.8539,86.562 C44.9389,86.346 44.9439,86.333 44.9439,86.136 C44.9439,85.37 45.0099,84.947 45.0629,84.607 C45.1039,84.343 45.1309,84.168 45.1309,83.73 C45.1309,83.356 45.1019,83.222 45.0489,82.976 C44.9749,82.63 44.8729,82.156 44.8729,81.331 C44.8729,80.403 45.0639,79.845 45.2589,79.352 C45.3329,79.167 45.3469,79.132 45.3489,79.001 C45.3339,78.979 45.3179,78.959 45.3029,78.938 C45.0189,78.54 44.4879,77.8 44.4879,76.523 C44.4879,75.61 44.6689,75.058 44.8529,74.572 C44.9359,74.353 44.9439,74.331 44.9439,74.118 C44.9439,73.525 44.9429,73.228 44.9399,72.933 C44.9369,72.627 44.9349,72.322 44.9349,71.712 C44.9349,71.03 44.9599,70.689 44.9849,70.349 C45.0049,70.087 45.0239,69.825 45.0239,69.302 C45.0239,68.844 44.9979,68.65 44.9609,68.384 C44.9159,68.052 44.8599,67.639 44.8599,66.892 C44.8599,65.787 45.7009,64.892 46.7399,64.892 C47.7779,64.892 48.6199,65.787 48.6199,66.892 C48.6199,67.35 48.6459,67.542 48.6829,67.809 C48.7279,68.142 48.7839,68.555 48.7839,69.302 C48.7839,69.982 48.7589,70.323 48.7339,70.664 C48.7139,70.926 48.6939,71.187 48.6939,71.712 C48.6939,72.305 48.6969,72.6 48.6999,72.896 C48.7019,73.202 48.7049,73.508 48.7049,74.118 C48.7049,75.031 48.5249,75.583 48.3399,76.069 C48.2669,76.261 48.2519,76.302 48.2489,76.452 C48.2639,76.473 48.2789,76.493 48.2949,76.515 C48.5789,76.912 49.1099,77.653 49.1099,78.929 C49.1099,79.856 48.9189,80.415 48.7229,80.907 C48.6379,81.122 48.6329,81.136 48.6329,81.331 C48.6329,81.706 48.6619,81.841 48.7149,82.086 C48.7889,82.432 48.8909,82.905 48.8909,83.73 C48.8909,84.495 48.8249,84.918 48.7719,85.258 C48.7309,85.523 48.7039,85.698 48.7039,86.136 C48.7039,87.061 48.5149,87.62 48.3199,88.112 C48.2349,88.328 48.2299,88.341 48.2299,88.539 C48.2299,88.923 48.2579,89.061 48.3099,89.311 C48.3799,89.654 48.4769,90.124 48.4769,90.941 C48.4769,91.491 48.4899,91.767 48.5029,92.041 C48.5189,92.367 48.5339,92.693 48.5339,93.345 C48.5339,93.967 48.5279,94.277 48.5219,94.589 C48.5159,94.878 48.5099,95.168 48.5099,95.746 C48.5099,96.375 48.5019,96.689 48.4939,97.004 C48.4859,97.29 48.4789,97.577 48.4789,98.149 C48.4789,98.778 48.4699,99.093 48.4609,99.408 C48.4529,99.693 48.4449,99.978 48.4449,100.55 C48.4449,101.221 48.4229,101.557 48.4009,101.892 C48.3829,102.157 48.3649,102.422 48.3649,102.952 C48.3649,103.642 48.3359,103.988 48.3059,104.334 C48.2839,104.588 48.2619,104.843 48.2619,105.352 C48.2619,105.446 48.2709,105.483 48.2709,105.483 C48.2899,105.546 48.3199,105.596 48.3449,105.647 C48.5269,106.031 48.8329,106.673 48.8329,107.75 C48.8329,108.434 48.8059,108.776 48.7779,109.118 C48.7579,109.376 48.7379,109.635 48.7379,110.15 C48.7379,111.084 48.5609,111.635 48.4429,111.999 C48.3709,112.224 48.3509,112.284 48.3509,112.552 C48.3509,112.757 48.3579,112.774 48.4419,112.992 C48.6299,113.479 48.8129,114.032 48.8129,114.949 C48.8129,115.768 48.7139,116.239 48.6419,116.584 C48.5889,116.831 48.5609,116.967 48.5609,117.345 C48.5609,118.183 48.4509,118.664 48.3709,119.015 C48.3159,119.259 48.2869,119.382 48.2869,119.742 C48.2869,120.198 48.3139,120.391 48.3489,120.656 C48.3939,120.987 48.4499,121.398 48.4499,122.142 C48.4499,122.947 48.3639,123.392 48.2949,123.748 C48.2469,123.997 48.2169,124.147 48.2169,124.543 C48.2209,124.563 48.2519,124.608 48.2799,124.655 C48.5139,125.038 48.9489,125.752 48.9489,126.943 C48.9489,127.723 48.8759,128.153 48.8169,128.5 C48.7739,128.755 48.7449,128.924 48.7449,129.345 C48.7449,130.235 48.5799,130.774 48.4109,131.251 C48.3339,131.471 48.3189,131.51 48.3189,131.745 C48.3189,131.892 48.3189,131.892 48.4049,132.082 C48.5749,132.46 48.8589,133.091 48.8589,134.144 C48.8589,134.511 48.8879,134.643 48.9419,134.884 C49.0199,135.232 49.1269,135.711 49.1269,136.545 C49.1269,137.61 48.8319,138.247 48.6559,138.628 C48.5719,138.81 48.5719,138.81 48.5719,138.946 C48.5719,139.717 48.5029,140.142 48.4479,140.484 C48.4059,140.745 48.3789,140.917 48.3789,141.347 C48.3909,141.418 48.4209,141.464 48.4479,141.512 C48.6769,141.914 49.0599,142.588 49.0599,143.745 C49.0599,144.815 48.7599,145.455 48.5819,145.837 C48.4979,146.015 48.4979,146.015 48.4979,146.144 C48.4979,146.92 48.4259,147.35 48.3689,147.693 C48.3259,147.951 48.2979,148.12 48.2979,148.545 C48.2979,148.974 48.3259,149.145 48.3679,149.405 C48.4229,149.748 48.4919,150.175 48.4919,150.945 C48.4919,151.579 48.4819,151.895 48.4719,152.212 C48.4639,152.495 48.4539,152.778 48.4539,153.345 C48.4539,153.508 48.4539,153.508 48.5419,153.711 C48.7019,154.084 48.9699,154.707 48.9699,155.743 C48.9699,156.314 48.9769,156.6 48.9849,156.886 C48.9929,157.199 49.0019,157.513 49.0019,158.141 C49.0019,159.063 48.8139,159.619 48.6219,160.109 C48.5369,160.327 48.5319,160.34 48.5319,160.54 C48.5319,160.779 48.5459,160.819 48.6239,161.041 C48.7899,161.516 48.9529,162.054 48.9529,162.94 C48.9529,163.679 48.8989,164.088 48.8559,164.416 C48.8199,164.684 48.7949,164.879 48.7949,165.34 C48.7949,165.681 48.8219,165.79 48.8809,166.029 C48.9699,166.388 49.0919,166.88 49.0919,167.738 C49.0919,168.454 49.0509,168.834 49.0139,169.17 C48.9839,169.439 48.9609,169.653 48.9609,170.136 C48.9609,170.968 48.8389,171.457 48.7029,171.925 C48.6359,172.157 48.6129,172.235 48.6129,172.533 C48.6129,173.23 48.5779,173.6 48.5479,173.928 C48.5249,174.178 48.5019,174.429 48.5019,174.93 C48.5019,175.35 48.5299,175.519 48.5729,175.774 C48.6319,176.12 48.7049,176.55 48.7049,177.328 C48.7049,178.363 48.4369,178.986 48.2769,179.358 C48.1899,179.562 48.1899,179.562 48.1899,179.726 C48.1899,179.812 48.1959,179.846 48.1959,179.846 C48.2159,179.901 48.2459,179.951 48.2709,180.002 C48.4609,180.39 48.7779,181.037 48.7779,182.128 C48.7779,182.975 48.6629,183.461 48.5789,183.815 C48.5229,184.055 48.4939,184.175 48.4939,184.526 C48.4939,184.755 48.5069,184.788 48.5859,185.008 C48.7589,185.486 48.9269,186.028 48.9269,186.923 C48.9269,187.504 48.9319,187.794 48.9379,188.085 C48.9429,188.393 48.9479,188.702 48.9479,189.319 C48.9479,190.44 48.6009,191.1 48.3939,191.494 C48.3669,191.543 48.3389,191.591 48.3169,191.647 C48.3179,192.19 48.3419,192.4 48.3729,192.667 C48.4099,192.988 48.4569,193.389 48.4569,194.111 C48.4569,194.581 48.4829,194.789 48.5149,195.052 C48.5539,195.376 48.6029,195.778 48.6029,196.507 C48.6029,196.941 48.6309,197.116 48.6709,197.379 C48.7229,197.719 48.7889,198.141 48.7889,198.903 C48.7889,199.259 48.8179,199.38 48.8739,199.621 C48.9559,199.974 49.0689,200.457 49.0689,201.301 C49.0689,202.113 48.9749,202.58 48.9059,202.92 C48.8569,203.165 48.8269,203.312 48.8269,203.7 C48.8269,204.535 48.7029,205.026 48.5649,205.496 C48.4979,205.726 48.4749,205.805 48.4749,206.1 C48.4749,206.585 48.4979,206.8 48.5269,207.072 C48.5629,207.406 48.6029,207.784 48.6029,208.497 C48.6029,209.437 48.4209,209.991 48.2989,210.357 C48.2259,210.582 48.2079,210.635 48.2079,210.893 C48.2079,211.244 48.2359,211.364 48.2929,211.603 C48.3769,211.957 48.4909,212.442 48.4909,213.289 L48.4939,215.683 C48.4939,216.177 48.5179,216.423 48.5429,216.67 C48.5759,217 48.6129,217.373 48.6129,218.077 C48.6129,219.005 48.4389,219.553 48.3229,219.915 C48.2509,220.141 48.2319,220.201 48.2319,220.471 C48.2319,220.944 48.2559,221.154 48.2869,221.42 C48.3249,221.741 48.3719,222.141 48.3719,222.864 C48.3919,222.979 48.4209,223.026 48.4469,223.075 C48.6579,223.471 49.0109,224.133 49.0109,225.259 C49.0109,226.041 48.9359,226.474 48.8759,226.82 C48.8309,227.072 48.8019,227.238 48.8019,227.653 C48.8019,228.093 48.8309,228.278 48.8689,228.535 C48.9199,228.872 48.9829,229.291 48.9829,230.049 C48.9829,230.998 48.7759,231.567 48.5629,232.069 C48.4749,232.276 48.4749,232.276 48.4749,232.446 C48.4749,233.25 48.3889,233.693 48.3199,234.05 C48.2719,234.299 48.2419,234.449 48.2419,234.844 C48.2419,235.101 48.2599,235.155 48.3339,235.379 C48.4559,235.746 48.6399,236.301 48.6399,237.243 C48.6399,237.83 48.6429,238.124 48.6469,238.418 C48.6499,238.724 48.6529,239.029 48.6529,239.64 C48.6529,239.976 48.6819,240.079 48.7499,240.325 C48.8809,240.801 48.9989,241.297 48.9989,242.14 C48.9989,243.012 48.8629,243.523 48.7129,244.013 C48.6379,244.253 48.6129,244.334 48.6129,244.639 C48.6129,244.985 48.6429,245.097 48.7079,245.342 C48.8079,245.718 48.9449,246.232 48.9449,247.134 C48.9449,248.288 48.5819,248.967 48.3639,249.372 C48.3359,249.425 48.3029,249.475 48.2799,249.536 C48.2809,249.536 48.2769,249.566 48.2769,249.629 C48.2769,249.876 48.2919,249.918 48.3769,250.149 C48.5189,250.537 48.7339,251.123 48.7339,252.123 C48.7339,252.965 48.6159,253.46 48.4849,253.934 C48.4169,254.179 48.3879,254.28 48.3879,254.614 C48.3879,254.838 48.3979,254.861 48.4869,255.091 C48.6829,255.592 48.8749,256.16 48.8749,257.102 C48.8749,257.581 48.9019,257.783 48.9399,258.061 C48.9869,258.403 49.0449,258.828 49.0449,259.596 C49.0449,260.565 48.8339,261.147 48.6179,261.66 C48.5239,261.885 48.5199,261.893 48.5199,262.089 C48.5199,262.276 48.5199,262.276 48.6169,262.503 C48.8379,263.018 49.0539,263.603 49.0539,264.58 C49.0539,265.717 48.6909,266.384 48.4739,266.781 C48.4469,266.83 48.4179,266.877 48.3949,266.932 C48.4009,267.728 48.3409,268.143 48.2929,268.477 C48.2559,268.738 48.2279,268.927 48.2279,269.374 C48.2279,269.92 48.2409,270.192 48.2549,270.466 C48.2709,270.791 48.2869,271.116 48.2869,271.766 L48.2839,274.159 C48.2839,274.723 48.2929,275.004 48.3019,275.286 C48.3129,275.602 48.3229,275.919 48.3229,276.551 C48.3229,277.053 48.3459,277.303 48.3679,277.554 C48.3999,277.9 48.4309,278.247 48.4309,278.94 C48.4309,279.672 48.3799,280.077 48.3379,280.402 C48.3039,280.671 48.2789,280.865 48.2789,281.327 C48.2939,281.409 48.3229,281.455 48.3489,281.503 C48.5719,281.903 48.9449,282.572 48.9449,283.718 C48.9449,284.467 48.8849,284.882 48.8379,285.215 C48.7999,285.475 48.7739,285.662 48.7739,286.108 C48.7739,286.99 48.6129,287.525 48.4479,287.998 C48.3709,288.219 48.3569,288.259 48.3569,288.497 C48.3569,288.868 48.3859,289.002 48.4389,289.244 C48.5129,289.59 48.6159,290.063 48.6159,290.888 C48.6159,291.724 48.5059,292.203 48.4269,292.553 C48.3709,292.796 48.3439,292.918 48.3439,293.276 C48.3439,293.641 48.3729,293.772 48.4259,294.011 C48.5039,294.359 48.6089,294.835 48.6089,295.666 L48.6039,298.053 C48.6039,298.834 48.5289,299.266 48.4679,299.612 C48.4249,299.863 48.3959,300.028 48.3959,300.442 C48.3959,300.936 48.4199,301.183 48.4429,301.432 C48.4749,301.759 48.5109,302.13 48.5109,302.829 C48.5109,303.933 47.6689,304.829 46.6309,304.829" id="Fill-10" fill="#000"/><polygon id="Fill-12" fill="#000" points="7.7583 264.5799 7.7583 271.5699 48.3353 269.0759 48.3353 264.5799"/><polygon id="Fill-14" fill="#000" points="48.3355 264.5799 48.3355 271.5699 118.5755 267.0199 115.8795 264.5799"/><path d="M99.0767,22.3466 L99.0717,22.3466 C97.5457,9.8696 87.5247,0.2326 75.3807,0.2326 L25.0237,0.2326 C11.8247,0.2326 1.1247,11.6156 1.1247,25.6566 L1.1247,34.9666 L100.5027,33.0166 L99.0767,22.3466 Z" id="Fill-16" fill="#000"/></g></g></g><g id="Upper Body" transform="translate(-1.000000, 0.000000) scale(1 1)"><g id="Upper Body/Reading" stroke="none" stroke-width="1" fill="none" fill-rule="evenodd"><g id="Group-691" transform="translate(226.500000, 272.500000)"><g id="Group-82" transform="translate(0.000000, 0.095000)"><path d="M203.2066,158.1705 C203.2066,158.1705 223.4916,145.0905 223.1596,116.1595 C222.8266,87.2295 225.9856,54.6395 207.5296,41.6705 C189.0736,28.7015 172.1976,28.6175 172.1976,28.6175 C172.1976,28.6175 163.1356,27.5375 161.5566,31.8605 C159.9766,36.1835 162.8866,40.8395 170.5346,43.7485 C178.1836,46.6585 182.8386,47.8225 182.8386,47.8225 C182.8386,47.8225 164.8106,66.2105 163.2026,76.6135 C162.9336,78.3605 163.4206,80.1845 164.6856,81.4195 C166.5056,83.1965 170.2496,84.2895 177.5186,78.3335 C177.5186,78.3335 178.1836,83.3205 184.9166,83.0715 C184.9166,83.0715 183.4316,89.9665 192.1606,89.5565 C192.1606,89.5565 191.2356,97.3705 199.6316,97.1215 L201.1886,97.0395 L203.2066,158.1705 Z" id="Fill-46" fill="#ef9e89"/><path d="M78.0606,30.0319 L48.4646,30.0319 C48.4646,30.0319 35.3846,28.7019 28.9556,41.4489 C22.5256,54.1959 16.7626,72.1539 14.8776,77.6959 C12.9936,83.2379 2.9096,113.7209 1.5766,116.6029 C0.2426,119.4849 0.6886,121.8129 4.3476,122.0349 C8.0046,122.2569 26.8496,121.8129 26.8496,121.8129 L15.4316,191.8129 C15.4316,191.8129 14.3796,194.8049 16.9286,194.8049 L136.9916,194.8049 C138.6246,194.8049 139.9376,193.4629 139.9016,191.8299 L138.3616,122.4779 L172.2526,91.4229 L137.0616,44.4179 C137.0616,44.4179 127.3646,30.0319 116.3306,30.0319 L78.0606,30.0319 Z" id="Fill-48" fill="#F9A9B4"/><path d="M159.7549,90.443 C159.7549,90.443 161.9049,77.087 174.4089,67.969 C174.4089,67.969 186.4289,67.014 180.9069,75.237 C175.3839,83.46 159.7549,90.443 159.7549,90.443" id="Fill-50" fill="#D5E1D5"/><path d="M63.209,117.7711 C63.111,117.7711 63.014,117.7611 62.915,117.7421 C62.103,117.5811 61.574,116.7921 61.735,115.9791 L73.198,58.2381 C73.361,57.4251 74.159,56.9001 74.962,57.0591 C75.774,57.2201 76.303,58.0091 76.142,58.8221 L64.679,116.5631 C64.536,117.2771 63.91,117.7711 63.209,117.7711" id="Fill-52" fill="#F3707F"/><path d="M108.2276,61.0192 C108.2276,61.0192 106.9916,56.0812 111.7576,55.3042 C116.4626,54.5392 153.6586,67.9412 159.7546,90.4432 C159.7546,90.4432 111.5696,65.6242 108.2276,61.0192" id="Fill-54" fill="#D5E1D5"/><path d="M99.9742,64.1725 C99.9742,64.1725 99.7309071,58.530115 104.5442,59.8785 C108.8302,61.0805 133.5952,68.6065 159.7552,90.4435 C159.7552,90.4435 169.3982,79.1365 184.4742,67.1655 C199.5492,55.1935 199.1052,56.9675 199.7702,64.6155 C200.4352,72.2645 202.9852,146.3105 203.2062,158.1705 L164.3782,190.8175 C164.3782,190.8175 161.6392,193.9335 154.7662,191.5355 C149.2722,189.6185 102.2252,175.8315 102.2252,175.8315 C102.2252,175.8315 99.4892,175.1305 99.7482,170.9185 C100.0082,166.7055 100.3412,121.4805 100.3412,121.4805 C100.3412,121.4805 99.6032,68.6635 99.9742,64.1725" id="Fill-56" fill="#FE5C4F"/><path d="M161.1407,188.4908 C160.3227,188.4908 159.6537,187.8348 159.6407,187.0138 L158.2547,96.2298 C158.2427,95.4018 158.9037,94.7198 159.7327,94.7078 L159.7547,94.7078 C160.5737,94.7078 161.2427,95.3638 161.2547,96.1838 L162.6407,186.9688 C162.6537,187.7968 161.9927,188.4778 161.1627,188.4908 L161.1407,188.4908 Z" id="Fill-58" fill="#B02D1C"/><path d="M9.335,122.0934 C9.335,122.0934 4.791,135.5584 7.118,147.4184 C9.446,159.2794 19.977,169.2554 34.054,171.5834 C48.132,173.9104 119.628,175.4624 119.628,175.4624 C119.628,175.4624 144.236,176.6824 151.774,174.6874 C159.312,172.6924 179.929,160.6094 184.917,152.7394 C184.917,152.7394 188.131,147.1974 183.365,144.9804 C183.365,144.9804 190.681,136.4454 185.139,132.2324 L183.587,131.7884 C183.587,131.7884 185.471,128.2414 183.809,125.1384 C182.146,122.0344 179.375,123.6974 179.375,123.6974 C179.375,123.6974 180.926,119.7064 177.823,116.4914 C174.719,113.2784 168.512,116.4914 164.521,118.7094 C160.531,120.9264 144.68,131.1234 144.68,131.1234 C144.68,131.1234 148.448,109.6194 142.352,107.1814 C137.208,105.1234 135.479,110.7284 134.371,114.4964 C133.262,118.2664 128.606,129.6834 122.51,131.6784 C122.51,131.6784 115.194,133.2304 105.329,131.9004 C96.665,130.7324 69.537,127.0844 63.056,126.2134 C62.157,126.0924 59.549,125.8034 59.549,125.8034 L59.881,121.8134 L9.335,122.0934 Z" id="Fill-60" fill="#ef9e89"/><path d="M151.4698,142.2682 C150.8758,142.2682 150.3148,141.9142 150.0778,141.3312 C149.7678,140.5632 150.1378,139.6892 150.9058,139.3772 C164.4798,133.8782 178.2868,122.6492 178.4248,122.5372 C179.0678,122.0112 180.0118,122.1072 180.5358,122.7472 C181.0608,123.3892 180.9658,124.3332 180.3248,124.8592 C179.7478,125.3312 166.0348,136.4852 152.0318,142.1582 C151.8478,142.2332 151.6568,142.2682 151.4698,142.2682" id="Fill-62" fill="#000"/><path d="M156.873107,152.5768 C156.2641,152.5768 155.6901,152.2028 155.4671,151.5978 C155.1791,150.8208 155.5751,149.9578 156.3521,149.6698 C167.8711,145.4038 182.3771,130.8788 182.5221,130.7328 C183.1051,130.1448 184.0571,130.1398 184.6441,130.7248 C185.2311,131.3078 185.2351,132.2588 184.6511,132.8468 C184.0401,133.4628 169.5361,147.9858 157.3941,152.4828 C157.2231,152.5468 157.0461,152.5768 156.873107,152.5768" id="Fill-64" fill="#000"/><path d="M161.1407,161.4449 C160.5207,161.4449 159.9407,161.0569 159.7247,160.4389 C159.4517,159.6579 159.8637,158.8009 160.6457,158.5279 C170.3637,155.1299 182.2167,144.0019 182.3347,143.8889 C182.9367,143.3209 183.8847,143.3469 184.4547,143.9499 C185.0247,144.5519 184.9967,145.5019 184.3957,146.0699 C183.8927,146.5459 171.9617,157.7489 161.6357,161.3599 C161.4717,161.4179 161.3047,161.4449 161.1407,161.4449" id="Fill-66" fill="#000"/><path d="M24.2745,167.2067 C24.1675,167.2067 24.0565,167.1947 23.9475,167.1707 C23.1595,166.9947 22.3095,166.7907 21.4355,166.4897 C21.3245,166.4517 20.9695,166.4737 20.7345,166.4857 C20.1335,166.5207 19.3925,166.5637 18.6675,166.2077 C17.9655,165.8637 17.4925,165.3287 17.1115,164.8967 C16.9265,164.6887 16.7355,164.4737 16.6065,164.3857 C16.3915,164.2417 16.1195,164.1107 15.8315,163.9717 C15.3325,163.7307 14.7665,163.4587 14.2675,163.0097 C13.7375,162.5327 13.3485,161.9977 13.0065,161.5247 C12.8545,161.3157 12.7065,161.1087 12.5465,160.9187 C12.0905,160.3747 11.7925,159.8057 11.5285,159.3027 C11.4085,159.0737 11.2925,158.8487 11.1605,158.6377 C10.7405,157.9717 10.4505,157.3197 10.1945,156.7447 L9.9845,156.2807 C9.8955,156.0877 9.6615,155.8417 9.4335,155.6027 C9.0385,155.1867 8.5885,154.7167 8.3755,154.0417 C8.2195,153.5487 8.1065,153.2727 8.0185,153.0597 C7.8195,152.5747 7.6925,152.2307 7.5835,151.3107 C7.4855,150.4887 8.0725,149.7427 8.8955,149.6447 C9.7105,149.5507 10.4635,150.1347 10.5615,150.9577 C10.6285,151.5177 10.6635,151.6027 10.7945,151.9207 C10.9025,152.1857 11.0435,152.5267 11.2365,153.1377 C11.2635,153.1747 11.4695,153.3907 11.6055,153.5337 C11.9635,153.9097 12.4105,154.3787 12.7085,155.0217 L12.9345,155.5237 C13.1705,156.0537 13.3925,156.5547 13.6995,157.0397 C13.8735,157.3167 14.0285,157.6097 14.1855,157.9097 C14.3975,158.3137 14.5975,158.6957 14.8465,158.9927 C15.0495,159.2357 15.2415,159.4967 15.4345,159.7637 C15.7145,160.1487 15.9795,160.5147 16.2745,160.7797 C16.4555,160.9427 16.7845,161.1017 17.1325,161.2697 C17.4865,161.4387 17.8865,161.6317 18.2795,161.8957 C18.7285,162.1977 19.0635,162.5767 19.3585,162.9107 C19.5865,163.1667 19.8205,163.4327 19.9885,163.5157 C20.0475,163.5207 20.3525,163.5037 20.5585,163.4907 C21.0865,163.4617 21.7405,163.4227 22.4115,163.6527 C23.1465,163.9057 23.8975,164.0857 24.5995,164.2427 C25.4085,164.4227 25.9185,165.2247 25.7375,166.0327 C25.5825,166.7317 24.9615,167.2067 24.2745,167.2067" id="Fill-68" fill="#000"/><path d="M7.9014,127.5162 C7.9014,127.5162 49.2404,127.1332 59.5484,125.8032 L59.8814,121.8132 L9.3354,122.0932 L7.9014,127.5162 Z" id="Fill-70" fill="#000"/><path d="M163.4839,79.5397 C163.4839,79.5397 165.2289,83.9797 169.5089,82.4627 C174.6639,80.6347 192.0669,69.1047 198.3299,52.4777 C198.3299,52.4777 188.2419,44.7737 177.6009,57.3007 C169.3959,66.9577 163.4839,79.5397 163.4839,79.5397" id="Fill-72" fill="#8C72CB"/><path d="M171.6212,82.1344 C171.0522,82.1344 170.5072,81.8084 170.2562,81.2554 C169.9122,80.5014 170.2452,79.6134 170.9992,79.2694 C171.1502,79.1994 186.3112,72.1284 196.0192,54.5784 C196.4202,53.8544 197.3342,53.5914 198.0582,53.9924 C198.7832,54.3934 199.0462,55.3064 198.6442,56.0304 C188.4342,74.4874 172.8962,81.7014 172.2402,81.9994 C172.0392,82.0914 171.8282,82.1344 171.6212,82.1344" id="Fill-74" fill="#190202"/><path d="M172.3355,94.653 L172.6155,104.017 C172.6785,106.133 175.1305,107.268 176.7845,105.946 L192.2675,93.573 C193.7875,92.359 194.6715,90.519 194.6715,88.575 L194.6715,78.389 C194.6715,76.674 192.6915,75.716 191.3465,76.78 L174.4245,90.166 C173.0585,91.247 172.2835,92.911 172.3355,94.653" id="Fill-76" fill="#B02D1C"/><path d="M102.5743,0.9342 L91.1753,0.9342 C86.0213,0.9342 81.6353,4.6282 80.7193,9.6692 C80.7093,9.7322 80.7003,9.7932 80.6903,9.8562 L80.6853,9.8902 C80.6483,10.1352 80.6103,10.3862 80.5723,10.6352 C79.2463,19.3762 77.6083,30.0862 77.6083,30.0862 L113.0413,30.0862 L113.1133,22.3222 L113.2113,11.6702 C113.2663,5.7572 108.4873,0.9342 102.5743,0.9342" id="Fill-78" fill="#ef9e89"/><path d="M113.0411,30.0865 C99.1661,29.1105 95.3751,26.1365 95.5091,23.6595 C95.6281,21.4405 97.7131,21.7495 98.6241,21.7705 C102.6381,21.8605 113.1131,22.3215 113.1131,22.3215" id="Fill-80" fill="#000"/></g></g></g></g><g id="Head" transform="translate(204.000000, 145.000000) scale(1 1)"><g id="Head/Short Slick" stroke="none" stroke-width="1" fill="none" fill-rule="evenodd"><g id="Group-183" transform="translate(95.000000, 78.000000)"><g id="Group-62" transform="translate(0.000000, 0.738000)"><path d="M57.5267,44.234 C56.6657,41.283 50.6257,39.08 47.5357,38.13 C46.2107,32.49 44.7797,27.428 43.4827,25.001 C40.7777,19.943 32.5307,14.629 19.3417,16.67 C10.5847,18.025 1.2587,26.194 7.3167,40.415 C7.3167,40.415 9.0487,43.862 8.2197,49.546 C8.1277,50.172 7.9977,51.047 7.8417,52.088 L7.8407,52.096 C7.5777,53.856 7.2367,56.113 6.8637,58.577 C6.8537,58.639 6.8447,58.7 6.8357,58.763 L6.8307,58.797 L6.8297,58.797 C6.7927,59.043 6.7557,59.293 6.7167,59.542 C6.4877,62.131 7.1937,70.607 26.2717,70.704 L39.2577,71.229 L39.4557,71.237 C39.4557,71.237 43.8067,71.189 46.4407,71.189 C51.9147,71.189 52.8547,65.97 52.2407,62.107 C51.9807,60.477 51.3877,56.696 50.0897,50.176 C53.6197,48.64 58.3127,46.927 57.5267,44.234" id="Fill-58" fill="#ef9e89"/><path d="M3.8353,23.2077 C3.8353,23.2077 0.5253,31.5227 0.8293,42.2757 L0.8043,42.2637 L0.8533,42.9437 C0.8913,43.8447 0.9573,44.7617 1.0503,45.6897 L2.2303,62.1197 C2.2303,62.1197 2.4493,66.5497 5.6143,66.8147 C8.7793,67.0817 11.2593,66.8147 11.2593,66.8147 C11.2593,66.8147 14.2053,66.6507 16.0223,62.9137 C17.8393,59.1767 19.6163,56.7467 20.3493,51.9917 C20.4383,51.5307 20.5213,51.0547 20.5953,50.5617 C20.7943,49.2537 19.6903,48.9517 18.7183,48.8857 C17.7463,48.8177 14.8973,47.5447 15.0313,43.8567 C15.1653,40.1697 17.4923,38.5267 20.6193,38.3257 C20.6193,38.3257 27.3983,38.6707 27.0423,29.7587 C27.0423,29.7587 56.5643,28.7557 59.6803,18.6277 C68.1483,-8.8903 12.8153,-3.9633 3.8353,23.2077" id="Fill-60" fill="#150656"/></g></g></g></g><g id="Expression" transform="translate(315.000000, 246.000000) scale(1 1)"><g id="Expression/Surprisedd" stroke="none" stroke-width="1" fill="none" fill-rule="evenodd"><g id="Group-77" transform="translate(20.400000, 11.300000)"><g id="Group-29" transform="translate(0.000000, 0.116900)"><path d="M2.725,4.1232 C2.956,6.3522 6.315,6.0812 6.343,3.9372 C6.374,1.5152 2.451,1.4882 2.725,4.1232" id="Fill-23" fill="#000"/><path d="M4.4872,0.133 C3.3802,0.133 2.3422,0.579 1.6402,1.359 C0.9392,2.137 0.6172,3.193 0.7362,4.33 C0.9402,6.299 2.4782,7.675 4.4742,7.675 C6.6172,7.675 8.3162,6.044 8.3422,3.963 C8.3562,2.931 7.9822,1.976 7.2892,1.274 C6.5732,0.549 5.5522,0.133 4.4872,0.133 M4.4872,2.133 C5.4162,2.133 6.3582,2.745 6.3432,3.938 C6.3282,5.066 5.3922,5.675 4.4742,5.675 C3.6472,5.675 2.8352,5.179 2.7252,4.123 C2.5852,2.785 3.5292,2.133 4.4872,2.133" id="Fill-25" fill="#FFF"/><path d="M15.8003,24.8291785 C15.8003,28.1427865 14.4572387,30.8288 12.8003,30.8288 C11.1433613,30.8288 9.8003,28.1427865 9.8003,24.8291785 C9.8003,21.5148135 11.1433613,18.8288 12.8003,18.8288 C14.4572387,18.8288 15.8003,21.5148135 15.8003,24.8291785" id="Fill-27" fill="#000" transform="translate(12.800300, 24.828800) scale(-1, 1) translate(-12.800300, -24.828800)"/></g></g></g></g><g id="Facial Hair" transform="translate(311.300000, 250.950000) scale(1 1)"><g id="Facial Hair/Long Beard" stroke="none" stroke-width="1" fill="none" fill-rule="evenodd"><g id="Group-10" transform="translate(5.000000, 2.609100)"><path d="M29.5077,17.642 C28.0297,17.746 26.4527,18.182 24.4227,19.513 C21.4647,21.451 19,19.513 16.1730762,17.513 C10.6738664,13.6224036 11.526534,3.70703468e-13 4.026834,1 C-1.17470161,1.69356582 0.57362263,9.23269694 1.42102116,18.1499811 C2.43151192,28.783506 3.42681544,41.3767179 7.26866369,46.6588483 C14.3322896,56.3705782 32.0747,54.106 33.9987,53.984 C47.0357,53.155 38.2567,29.014 35.5627,21.286 C34.5707,18.441 32.0557,17.463 29.5077,17.642 Z" id="Fill-6" fill="#150656"/><path d="M26.1775,28.8124 C22.5835,29.5534 20.8215,28.7854 20.7735,28.7774 C19.9545,28.6494 19.3945,27.8824 19.5225,27.0634 C19.6495,26.2524 20.4055,25.6964 21.2145,25.8104 C22.0855,25.9074 26.6115,26.5174 29.5435,24.2884 C30.2015,23.7844 31.1435,23.9144 31.6455,24.5744 C32.1475,25.2334 32.0195,26.1734 31.3595,26.6754 C29.9135,27.7754 28.0325,28.4294 26.1775,28.8124" id="Fill-8" fill="#000"/></g></g></g><g id="Accesories" transform="translate(311.300000, 250.950000) scale(1 1)"><g id="Accesories/Shades" stroke="none" stroke-width="1" fill="none" fill-rule="evenodd"><g id="Group-88" transform="translate(3.000000, 4.000000)"><g id="Group-68" transform="translate(0.000000, 0.609100)"><path d="M35.4573,0.4647 L11.9853,1.0267 L1.8143,1.0267 C0.9853,1.0267 0.3143,1.6977 0.3143,2.5267 C0.3143,3.3547 0.9853,4.0267 1.8143,4.0267 L11.3063,4.0267 L24.9973,12.4327 C25.5673,12.7817 26.3013,12.7047 26.7853,12.2447 L36.5083,3.0087 C37.4873,2.0787 36.8073,0.4327 35.4573,0.4647" id="Fill-64" fill="#000"/><path d="M22.5808,8.6747 C22.1588,8.6747 21.9328,8.4907 21.7228,8.2467 C21.5258,8.0177 21.1618,7.4017 21.8648,6.4987 C21.5298,6.4727 21.2538,6.3657 21.0548,6.1047 C20.7198,5.6647 20.8048,5.0377 21.2438,4.7027 C24.6038,2.1447 25.4388,2.4767 25.7958,2.6197 C26.1608,2.7657 26.4258,3.0787 26.5058,3.4587 C26.5998,3.9077 26.4478,4.3457 26.0228,4.9247 C26.3948,4.6997 26.8078,4.4467 27.2628,4.1617 C30.0648,2.4017 31.2778,1.7857 31.9928,2.7847 C32.2368,3.1277 32.9808,4.1677 28.3408,7.9267 C27.9118,8.2727 27.2808,8.2067 26.9348,7.7787 C26.7058,7.4957 26.6558,7.1267 26.7708,6.8087 C24.4088,8.2137 23.2488,8.6747 22.5808,8.6747" id="Fill-66" fill="#F8FBF8"/></g></g></g></g></g></g></g></svg>