<svg viewBox="89.25 -12.75 892.5000000000002 943.5000000000002" xmlns="http://www.w3.org/2000/svg" xmlns:xlink="http://www.w3.org/1999/xlink" overflow="visible" width="892.5000000000002px" height="943.5000000000002px"><defs><polygon id="masterspot-illustrationui-design-path-1" points="0 0.855728366 369.150131 0.855728366 369.150131 383.471976 0 383.471976"/><polygon id="masterspot-illustrationui-design-path-3" points="0.44031893 0.957161388 516.594 0.957161388 516.594 167.536028 0.44031893 167.536028"/></defs><g id="Master/Spot Illustration/UI Design" stroke="none" stroke-width="1" fill="none" fill-rule="evenodd"><g id="UI" transform="translate(-28.000000, -17.000000) scale(1 1)"><defs><polygon id="uiscreen-4-path-1" points="0.893544023 0.147 220.732 0.147 220.732 247.360969 0.893544023 247.360969"/><polygon id="uiscreen-4-path-3" points="0 0.0994539059 218.162719 0.0994539059 218.162719 234.375871 0 234.375871"/></defs><g id="UI/Screen 4" stroke="none" stroke-width="1" fill="none" fill-rule="evenodd"><g id="Group-45" transform="translate(128.000000, 19.000000)"><path d="M833.529,108.9145 C781.68,106.4885 171.65,108.9185 171.65,108.9185 C171.65,108.9185 110.89,107.2985 103.599,170.4885 C102.837,177.1005 101.611,187.2175 100.031,200.0135 L867.427,200.0135 C870.033,177.5805 871.605,164.0075 871.605,164.0075 C871.605,164.0075 885.378,111.3415 833.529,108.9145" id="Fill-1" fill="#B2C7B2"/><path d="M146.6676,160.9897 C147.5646,173.0177 166.7746,171.2227 167.6726,160.4727 C168.8656,146.1807 145.5646,146.2157 146.6676,160.9897" id="Fill-3" fill="#FE5C4F"/><path d="M207.7175,160.9897 C208.6145,173.0177 227.8245,171.2227 228.7225,160.4727 C229.9155,146.1807 206.6145,146.2157 207.7175,160.9897" id="Fill-5" fill="#FEF864"/><path d="M270.6647,160.9897 C271.5617,173.0177 290.7717,171.2227 291.6697,160.4727 C292.8627,146.1807 269.5617,146.2157 270.6647,160.9897" id="Fill-7" fill="#DDF77D"/><path d="M100.0309,200.0131 C86.5069,309.5201 46.8899,616.0621 46.8899,616.0621 C46.8899,616.0621 37.9789,660.6181 89.8269,658.9981 C91.1679,658.9561 92.9089,658.9171 94.9869,658.8791 C135.8479,658.1411 315.3069,658.2171 477.6079,658.4591 C626.3239,658.6811 760.6169,659.0411 760.6169,659.0411 C760.6169,659.0411 811.6549,664.2201 818.9459,609.9421 C824.8809,565.7651 856.0359,298.1131 867.4269,200.0131 L100.0309,200.0131 Z" id="Fill-9" fill="#D5E1D5"/><polygon id="Fill-11" fill="#4947D9" points="660.3347 457.1244 767.8137 457.1244 785.2207 358.4024 677.2277 356.3054"/><polygon id="Fill-13" fill="#00DEB8" points="692.8659 262.9731 677.2269 356.3051 785.2199 358.4031 802.0469 262.9731"/><path d="M686.4704,262.9731 L188.9114,262.9731 C182.0854,262.9731 176.2444,267.8741 175.0604,274.5961 L127.5254,544.1821 C126.4134,550.4811 131.2594,556.2551 137.6554,556.2551 L636.5594,556.2551 L643.7244,556.2551 L660.3344,457.1241 L677.2274,356.3051 L692.8664,262.9731 L686.4704,262.9731 Z" id="Fill-15" fill="#AFDCFD"/><polygon id="Fill-17" fill="#FF0048" points="643.7243 556.2553 750.3333 556.2553 767.8133 457.1243 660.3343 457.1243"/><path d="M660.3347,457.1244 L692.1057,439.9724 C696.2897,437.7134 698.6307,433.0604 697.7767,428.9434 C696.8357,424.4034 696.3407,417.4944 698.1267,408.0154 C701.6977,389.0574 710.1637,377.2194 724.5507,376.0374 C741.2377,374.6674 747.7587,384.5254 744.9507,408.0154 C743.7067,418.4294 740.6047,425.4714 737.9027,429.8394 C735.6837,433.4304 736.3257,437.6304 739.3877,439.5824 L766.8987,457.1244 L660.3347,457.1244 Z" id="Fill-19" fill="#FE5C4F"/><path d="M678.6559,356.3051 L710.4269,339.1541 C714.6099,336.8951 716.9509,332.2411 716.0969,328.1241 C715.1569,323.5851 714.6619,316.6751 716.4469,307.1971 C720.0179,288.2381 728.4849,276.4001 742.8719,275.2181 C759.5589,273.8481 766.0789,283.7061 763.2719,307.1971 C762.0269,317.6111 758.9249,324.6531 756.2239,329.0211 C754.0039,332.6121 754.6459,336.8111 757.7079,338.7631 L785.2199,358.4031 L678.6559,356.3051 Z" id="Fill-21" fill="#FEF864"/><path d="M643.7243,556.2553 L675.4953,539.1043 C679.6793,536.8443 682.0203,532.1913 681.1663,528.0743 C680.2253,523.5343 679.7313,516.6253 681.5163,507.1473 C685.0873,488.1883 693.5533,476.3503 707.9413,475.1683 C724.6273,473.7983 731.1483,483.6563 728.3413,507.1473 C727.0963,517.5613 723.9943,524.6023 721.2923,528.9713 C719.0733,532.5613 719.7153,536.7613 722.7773,538.7133 L750.2893,556.2553 L643.7243,556.2553 Z" id="Fill-23" fill="#7D7AF9"/><path d="M195.1139,518.7953 L196.8299,518.7953 C205.0439,518.7953 212.0719,512.8983 213.4979,504.8093 L220.1759,466.9393 C222.0029,456.5743 214.0309,447.0733 203.5079,447.0733 L201.7919,447.0733 C193.5779,447.0733 186.5499,452.9713 185.1229,461.0603 L178.4449,498.9313 C176.6179,509.2943 184.5909,518.7953 195.1139,518.7953" id="Fill-25" fill="#FEF864"/><path d="M235.8014,499.1879 C233.8214,509.5269 241.6584,519.1179 252.1834,519.2959 C252.3884,519.2989 252.5944,519.3029 252.7994,519.3059 C264.9794,519.4749 275.4864,510.7879 277.6014,498.7919 L297.0724,388.3649 C298.9004,378.0009 290.9274,368.4999 280.4044,368.4999 L274.8224,368.4999 C266.7024,368.4999 259.7264,374.2659 258.1984,382.2419 L235.8014,499.1879 Z" id="Fill-27" fill="#7D7AF9"/><path d="M322.0407,517.9037 L325.9767,518.0667 C335.9617,518.4817 344.6647,511.3287 346.1907,501.4517 L369.0917,353.2107 C370.9287,341.3147 361.7277,330.5837 349.6917,330.5837 C340.2007,330.5837 332.0687,337.3737 330.3767,346.7127 L303.5407,494.7907 C301.4167,506.5117 310.1387,517.4097 322.0407,517.9037" id="Fill-29" fill="#FE5C4F"/><g id="Group-33" transform="translate(657.000000, 0.853000)"><mask id="uiscreen-4-mask-2" fill="#ffffff"><use xlink:href="#uiscreen-4-path-1" fill="#ffffff"/></mask><g id="Clip-32"/><path d="M42.6042,0.1806 C42.6042,0.1806 11.1832,-2.0104 8.2602,28.6796 C5.3372,59.3696 0.9532,117.8276 0.9532,117.8276 C0.9532,117.8276 -1.9698,141.9426 33.1052,144.1346 L78.0442,144.1346 C78.0442,144.1346 89.7362,143.4046 89.0052,157.6536 C88.2752,171.9026 91.1982,242.7836 91.1982,242.7836 C91.1982,242.7836 93.7552,255.5716 102.1592,238.3986 C110.5622,221.2266 134.6762,152.9036 134.6762,152.9036 C134.6762,152.9036 135.4072,141.9426 154.0412,143.0386 C172.6742,144.1346 188.3842,144.1346 188.3842,144.1346 C188.3842,144.1346 207.7502,145.7796 209.9412,127.6936 C212.3992,107.4166 220.3542,34.5076 220.3542,34.5076 C220.3542,34.5076 226.0172,4.2006 193.5002,3.1046 C160.9822,2.0076 42.6042,0.1806 42.6042,0.1806" id="Fill-31" fill="#FF00BF" mask="url(#uiscreen-4-mask-2)"/></g><g id="Group-36" transform="translate(0.000000, 224.853000)"><mask id="uiscreen-4-mask-4" fill="#ffffff"><use xlink:href="#uiscreen-4-path-3" fill="#ffffff"/></mask><g id="Clip-35"/><path d="M40.0348,0.1337 C40.0348,0.1337 8.6128,-2.0583 5.6898,28.6317 C2.7668,59.3217 0.0588,103.9627 0.0588,103.9627 C0.0588,103.9627 -2.8632,128.0757 32.2118,130.2687 L93.9208,131.1507 C93.9208,131.1507 105.6118,130.4187 104.8818,144.6677 C104.2078,157.8037 106.6388,219.0617 107.0228,228.5597 C107.0758,229.8737 107.3668,231.1757 107.9748,232.3427 C109.3208,234.9237 112.3318,237.0667 118.0338,225.4137 C126.4368,208.2417 150.5518,139.9187 150.5518,139.9187 C150.5518,139.9187 154.0218,129.8397 169.9158,130.0537 C188.1878,130.3007 187.4918,130.2687 187.4918,130.2687 C187.4918,130.2687 206.8558,131.9127 209.0488,113.8267 C211.5058,93.5507 217.7848,34.4597 217.7848,34.4597 C217.7848,34.4597 223.4478,4.1527 190.9308,3.0567 C158.4128,1.9597 40.0348,0.1337 40.0348,0.1337" id="Fill-34" fill="#00DEB8" mask="url(#uiscreen-4-mask-4)"/></g><path d="M227.5036,653.933 C227.1636,686.242 239.2046,723.936 302.7456,721.244 C366.2876,718.551 366.2876,687.857 405.5976,714.244 C433.2426,732.8 477.7746,738.254 515.4476,702.935 C532.6806,686.781 565.2096,698.785 590.8366,707.782 C641.4546,725.551 691.9276,691.254 692.072048,648.547 C692.2576,593.703 634.4536,570.009 561.7586,593.703 C537.0156,601.767 523.9756,593.43 508.9866,588.776 C479.9376,579.755 455.5316,567.932 408.2896,599.545 C408.2896,599.545 384.5966,621.084 340.4406,596.853 C296.2836,572.62 228.1456,593.114 227.5036,653.933" id="Fill-37" fill="#FE5C4F"/><path d="M618.533142,407.3129 C618.5369,404.8429 618.4919,402.3439 618.3489,399.7859 C611.7959,282.5999 407.1109,277.7829 410.1489,409.1339 C411.1239,451.2809 431.8779,479.7059 459.9279,494.8799 C474.1609,474.5889 514.4029,409.5839 514.4029,409.5839 L618.533142,407.3129 Z" id="Fill-39" fill="#DDF77D"/><path d="M592.7214,475.7914 C608.4184,459.2364 618.4794,436.3554 618.5334,407.3124 L514.4034,409.5834 L592.7214,475.7914 Z" id="Fill-41" fill="#7D7AF9"/><path d="M592.7214,475.7914 L514.4034,409.5834 C514.4034,409.5834 474.1604,474.5894 459.9274,494.8804 C501.7004,517.4784 559.6634,510.6564 592.7214,475.7914" id="Fill-43" fill="#FE5C4F"/></g></g></g><g transform="translate(198.000000, 174.000000) scale(1 1)" id="Master/Character/Standing"><g id="Master/Character/Standing" stroke="none" stroke-width="1" fill="none" fill-rule="evenodd"><g id="Standing/Lower Body" transform="translate(14.000000, 442.000000) scale(1 1)"><g id="Standing/Lower Body/Circles" stroke="none" stroke-width="1" fill="none" fill-rule="evenodd"><g id="Group-332" transform="translate(93.000000, -1.000000)"><g id="Group-207" transform="translate(0.000000, 0.142000)"><path d="M329.297,293.9017 C329.75,293.8997 330.192,293.8977 330.628,293.8957 C330.193,293.8977 329.75,293.8997 329.297,293.9017 L329.297,293.9017 Z M326.787,293.9127 C324.875,293.9197 322.856,293.9267 320.768,293.9347 C322.855,293.9267 324.875,293.9207 326.787,293.9127 L326.787,293.9127 Z M328.6,293.9047 C328.289,293.9057 327.975,293.9067 327.657,293.9087 C327.974,293.9067 328.29,293.9057 328.6,293.9047 L328.6,293.9047 Z M316.432,293.9487 C316.835,293.9467 317.236,293.9457 317.636,293.9447 C317.236,293.9457 316.835,293.9467 316.432,293.9487 L316.432,293.9487 Z M311.08,293.9617 C312.554,293.9587 314.026,293.9557 315.484,293.9507 C314.026,293.9557 312.554,293.9587 311.08,293.9617 L311.08,293.9617 Z M308.9,293.9657 C309.41,293.9647 309.922,293.9637 310.433,293.9637 C309.921,293.9637 309.41,293.9647 308.9,293.9657 L308.9,293.9657 Z M318.586,293.9417 C319.003,293.9407 319.418,293.9387 319.832,293.9377 C319.418,293.9387 319.003,293.9407 318.586,293.9417 L318.586,293.9417 Z M296.917,293.9707 C297.578,293.9717 298.25,293.9717 298.929,293.9727 C298.249,293.9717 297.578,293.9717 296.917,293.9707 L296.917,293.9707 Z M299.173,293.9727 L301.36,293.9727 C303.575,293.9727 305.858,293.9707 308.156,293.9667 C305.857,293.9707 303.576,293.9727 301.36,293.9727 L299.173,293.9727 Z M281.503,293.8617 C281.425,293.8597 281.346,293.8577 281.273,293.8557 C281.346,293.8577 281.425,293.8597 281.503,293.8617 L281.503,293.8617 Z M282.341,293.8787 C282.238,293.8767 282.138,293.8747 282.039,293.8727 C282.138,293.8747 282.238,293.8767 282.341,293.8787 L282.341,293.8787 Z M283.22,293.8927 C283.155,293.8917 283.096,293.8907 283.032,293.8897 C283.096,293.8907 283.155,293.8917 283.22,293.8927 L283.22,293.8927 Z M284.536,293.9097 C284.42,293.9087 284.3,293.9077 284.188,293.9057 C284.3,293.9077 284.42,293.9087 284.536,293.9097 L284.536,293.9097 Z M285.735,293.9227 C285.578,293.9217 285.422,293.9197 285.27,293.9177 C285.423,293.9197 285.578,293.9217 285.735,293.9227 L285.735,293.9227 Z M286.916,293.9317 C286.742,293.9307 286.576,293.9297 286.406,293.9277 C286.575,293.9297 286.742,293.9307 286.916,293.9317 L286.916,293.9317 Z M288.744,293.9447 C288.386,293.9427 288.036,293.9407 287.694,293.9377 C288.036,293.9407 288.386,293.9427 288.744,293.9447 L288.744,293.9447 Z M290.152,293.9527 C289.879,293.9507 289.607,293.9497 289.341,293.9477 C289.608,293.9497 289.879,293.9507 290.152,293.9527 L290.152,293.9527 Z M291.499,293.9577 C291.201,293.9567 290.91,293.9557 290.619,293.9547 C290.909,293.9557 291.201,293.9567 291.499,293.9577 L291.499,293.9577 Z M293.967,293.9647 C293.253,293.9637 292.557,293.9617 291.877,293.9597 C292.556,293.9617 293.253,293.9637 293.967,293.9647 L293.967,293.9647 Z M295.419,293.9677 C295.003,293.9677 294.589,293.9667 294.183,293.9657 C294.59,293.9667 295.003,293.9677 295.419,293.9677 L295.419,293.9677 Z M296.79,293.9707 C296.357,293.9697 295.929,293.9687 295.505,293.9687 C295.928,293.9687 296.358,293.9697 296.79,293.9707 L296.79,293.9707 Z M332.827,293.8857 C332.318,293.8877 331.792,293.8897 331.252,293.8927 C331.79,293.8897 332.32,293.8877 332.827,293.8857 C330.194,283.1067 316.128,279.3577 303.131,274.9567 C292.104,271.2227 281.845,267.0197 279.992,257.6557 L226.713,259.1827 L228.064,293.2817 L228.086,293.8377 C228.086,293.8377 227.629,306.2037 243.658,306.6617 C259.688,307.1197 319.533,307.5777 319.533,307.5777 C319.533,307.5777 333.273,308.2277 333.273,297.6547 C333.273,296.3067 333.113,295.0567 332.827,293.8857 L332.827,293.8857 Z" id="Fill-165" fill="#FF0048"/><path d="M227.0778,268.3939 L285.9038,266.8309 C285.9038,266.8309 284.2468,265.3469 283.6328,264.4599 C283.2998,263.9789 282.6898,262.2159 282.6898,262.2159 L226.8408,262.4089 L227.0778,268.3939 Z" id="Fill-167" fill="#000"/><path d="M101.5643,296.6565 C101.6903,296.6915 101.8143,296.7265 101.9363,296.7625 C101.8143,296.7265 101.6903,296.6915 101.5643,296.6565 L101.5643,296.6565 Z M104.1043,297.3815 C104.1933,297.4065 104.2803,297.4325 104.3663,297.4575 C104.2803,297.4325 104.1933,297.4065 104.1043,297.3815 L104.1043,297.3815 Z M100.3403,296.3115 C100.3753,296.3215 100.4093,296.3315 100.4443,296.3415 C100.4093,296.3315 100.3753,296.3215 100.3403,296.3115 L100.3403,296.3115 Z M98.5753,295.8195 C98.7233,295.8605 98.8713,295.9015 99.0173,295.9425 C98.8713,295.9015 98.7233,295.8605 98.5753,295.8195 L98.5753,295.8195 Z M97.1803,295.4325 C97.2173,295.4425 97.2523,295.4525 97.2893,295.4625 C97.2523,295.4525 97.2173,295.4425 97.1803,295.4325 L97.1803,295.4325 Z M95.2053,294.8875 C95.3413,294.9255 95.4783,294.9625 95.6133,294.9995 C95.4783,294.9625 95.3423,294.9255 95.2053,294.8875 L95.2053,294.8875 Z M93.4713,294.4105 C93.6653,294.4645 93.8553,294.5165 94.0473,294.5685 C93.8553,294.5165 93.6663,294.4645 93.4713,294.4105 L93.4713,294.4105 Z M91.3633,293.8335 C91.5803,293.8925 91.7973,293.9525 92.0123,294.0115 C91.7973,293.9525 91.5793,293.8925 91.3633,293.8335 L91.3633,293.8335 Z M89.6703,293.3705 C89.7653,293.3965 89.8573,293.4225 89.9513,293.4475 C89.8573,293.4225 89.7653,293.3965 89.6703,293.3705 L89.6703,293.3705 Z M87.2023,292.6985 C87.4473,292.7655 87.6933,292.8315 87.9343,292.8975 C87.6923,292.8315 87.4473,292.7655 87.2023,292.6985 L87.2023,292.6985 Z M84.2803,291.9035 C84.9233,292.0785 85.5583,292.2515 86.1853,292.4215 C85.5573,292.2505 84.9233,292.0785 84.2803,291.9035 L84.2803,291.9035 Z M82.6263,291.4545 C82.9793,291.5505 83.3323,291.6455 83.6823,291.7405 C83.3323,291.6455 82.9793,291.5505 82.6263,291.4545 L82.6263,291.4545 Z M80.7363,290.9415 C81.0813,291.0355 81.4233,291.1285 81.7643,291.2215 C81.4223,291.1285 81.0813,291.0355 80.7363,290.9415 L80.7363,290.9415 Z M23.1933,274.9725 C23.0013,274.9125 22.8203,274.8555 22.6383,274.7985 C22.8203,274.8555 23.0013,274.9125 23.1933,274.9725 L23.1933,274.9725 Z M24.0543,275.2365 C23.8673,275.1795 23.6893,275.1245 23.5113,275.0695 C23.6893,275.1245 23.8673,275.1805 24.0543,275.2365 L24.0543,275.2365 Z M24.9913,275.5205 C24.8013,275.4635 24.6183,275.4075 24.4343,275.3515 C24.6183,275.4075 24.8013,275.4635 24.9913,275.5205 L24.9913,275.5205 Z M26.0093,275.8255 C25.7773,275.7565 25.5533,275.6885 25.3293,275.6225 C25.5533,275.6885 25.7773,275.7565 26.0093,275.8255 L26.0093,275.8255 Z M27.0443,276.1325 C26.7813,276.0545 26.5253,275.9775 26.2713,275.9025 C26.5243,275.9775 26.7813,276.0545 27.0443,276.1325 L27.0443,276.1325 Z M28.1473,276.4555 C27.8803,276.3775 27.6193,276.3015 27.3613,276.2255 C27.6193,276.3015 27.8803,276.3775 28.1473,276.4555 L28.1473,276.4555 Z M29.3033,276.7925 C29.0143,276.7085 28.7303,276.6255 28.4493,276.5435 C28.7303,276.6255 29.0143,276.7085 29.3033,276.7925 L29.3033,276.7925 Z M30.5403,277.1495 C30.2173,277.0575 29.9003,276.9655 29.5863,276.8745 C29.9003,276.9655 30.2173,277.0575 30.5403,277.1495 L30.5403,277.1495 Z M31.7763,277.5045 C31.4303,277.4055 31.0883,277.3075 30.7513,277.2105 C31.0883,277.3075 31.4303,277.4055 31.7763,277.5045 L31.7763,277.5045 Z M33.0873,277.8785 C32.7213,277.7745 32.3603,277.6725 32.0043,277.5695 C32.3613,277.6725 32.7213,277.7745 33.0873,277.8785 L33.0873,277.8785 Z M22.3803,274.7185 C22.1723,274.6525 21.9753,274.5905 21.7823,274.5275 C21.9753,274.5905 22.1723,274.6525 22.3803,274.7185 L22.3803,274.7185 Z M35.8083,278.6495 C35.4073,278.5365 35.0103,278.4245 34.6183,278.3125 C35.0103,278.4245 35.4073,278.5365 35.8083,278.6495 L35.8083,278.6495 Z M37.2523,279.0555 C36.8273,278.9355 36.4073,278.8175 35.9923,278.7015 C36.4073,278.8175 36.8273,278.9355 37.2523,279.0555 L37.2523,279.0555 Z M38.7003,279.4615 C38.2573,279.3375 37.8193,279.2145 37.3863,279.0935 C37.8193,279.2145 38.2573,279.3375 38.7003,279.4615 L38.7003,279.4615 Z M80.6503,290.9185 C67.1633,287.2615 51.2423,282.9675 38.8233,279.4955 C51.2433,282.9675 67.1643,287.2615 80.6503,290.9185 L80.6503,290.9185 Z M34.4283,278.2595 C34.0443,278.1505 33.6643,278.0435 33.2903,277.9365 C33.6643,278.0435 34.0443,278.1505 34.4283,278.2595 L34.4283,278.2595 Z M67.0113,252.2075 C62.4513,255.7165 47.7763,255.4465 33.3953,256.3325 C19.1043,257.2135 5.1033,259.2355 1.6043,267.2405 C2.3493,267.5485 8.4493,269.9165 11.1873,270.9015 C13.9263,271.8865 17.1703,273.0115 20.9443,274.2565 C21.1633,274.3285 21.3933,274.4025 21.6333,274.4805 C21.3933,274.4035 21.1623,274.3285 20.9443,274.2565 C17.1703,273.0115 13.9263,271.8865 11.1873,270.9015 C8.4493,269.9165 2.3493,267.5485 1.6043,267.2405 C1.5253,267.4205 1.4463,267.5995 1.3783,267.7845 C-3.0707,279.9645 14.0443,284.3395 14.0443,284.3395 C28.6043,288.4345 90.0373,306.6255 90.0373,306.6255 C90.0373,306.6255 100.8783,310.8605 104.9733,298.6765 C105.0763,298.3695 105.1823,298.0525 105.2903,297.7265 C108.8693,286.9715 115.0393,266.7935 115.0393,266.7935 L67.0113,252.2075 Z" id="Fill-169" fill="#FF0048"/><path d="M67.0114,252.2074 L115.0394,266.7934 L114.0144,270.1314 L62.8894,253.9644 C62.8894,253.9644 65.0064,253.2964 65.6174,253.0364 C66.0374,252.8564 67.0114,252.2074 67.0114,252.2074" id="Fill-171" fill="#000"/><path d="M47.5866,267.5658 C46.8046,267.5658 46.1446,266.9578 46.0916,266.1658 C45.8136,261.9718 43.0486,256.5338 43.0206,256.4788 C42.6426,255.7418 42.9346,254.8378 43.6716,254.4608 C44.4076,254.0838 45.3126,254.3738 45.6906,255.1108 C45.8156,255.3558 48.7656,261.1628 49.0856,265.9658 C49.1406,266.7928 48.5146,267.5068 47.6886,267.5618 C47.6536,267.5648 47.6206,267.5658 47.5866,267.5658" id="Fill-173" fill="#F8FBF8"/><path d="M56.0817,267.1615 C55.4337,267.1615 54.8357,266.7375 54.6437,266.0845 C53.6727,262.7825 50.6867,256.0665 50.6567,255.9995 C50.3197,255.2425 50.6597,254.3555 51.4167,254.0185 C52.1737,253.6825 53.0607,254.0215 53.3967,254.7785 C53.5227,255.0615 56.4947,261.7445 57.5217,265.2385 C57.7557,266.0325 57.3007,266.8665 56.5057,267.0995 C56.3647,267.1415 56.2227,267.1615 56.0817,267.1615" id="Fill-175" fill="#F8FBF8"/><path d="M62.3503,265.6703 C61.6513,265.6703 61.0253,265.1783 60.8813,264.4653 C59.9173,259.6713 57.9733,255.3193 57.9543,255.2753 C57.6143,254.5213 57.9513,253.6333 58.7063,253.2923 C59.4613,252.9513 60.3493,253.2903 60.6893,254.0443 C60.7753,254.2323 62.7893,258.7363 63.8233,263.8733 C63.9863,264.6863 63.4603,265.4773 62.6483,265.6403 C62.5483,265.6603 62.4493,265.6703 62.3503,265.6703" id="Fill-177" fill="#F8FBF8"/><path d="M87.6237,276.35 C84.3487,285.673 97.3347,291.368 102.0777,282.109 C107.1437,272.218 91.0107,266.708 87.6237,276.35" id="Fill-179" fill="#F8FBF8"/><path d="M236.3805,276.7611 C233.1055,286.0851 246.0915,291.7801 250.8345,282.5201 C255.9005,272.6291 239.7675,267.1191 236.3805,276.7611" id="Fill-181" fill="#F8FBF8"/><path d="M290.7419,285.2816 C290.4009,285.2816 290.0589,285.1666 289.7779,284.9296 C289.1429,284.3966 289.0609,283.4506 289.5949,282.8166 L297.7249,273.1426 C298.2589,272.5106 299.2059,272.4276 299.8389,272.9596 C300.4729,273.4926 300.5549,274.4386 300.0219,275.0736 L291.8909,284.7476 C291.5949,285.0996 291.1699,285.2816 290.7419,285.2816" id="Fill-183" fill="#F8FBF8"/><path d="M285.235,281.9232 C284.888,281.9232 284.541,281.8042 284.257,281.5602 C283.63,281.0192 283.558,280.0722 284.099,279.4442 L292.047,270.2112 C292.588,269.5842 293.534,269.5122 294.162,270.0532 C294.79,270.5942 294.861,271.5402 294.32,272.1682 L286.373,281.4022 C286.076,281.7462 285.657,281.9232 285.235,281.9232" id="Fill-185" fill="#F8FBF8"/><path d="M281.4303,275.6078 C281.0223,275.6078 280.6153,275.4418 280.3193,275.1158 C279.7623,274.5028 279.8093,273.5528 280.4223,272.9978 L287.5933,266.4938 C288.2053,265.9378 289.1563,265.9828 289.7123,266.5958 C290.2693,267.2108 290.2223,268.1588 289.6093,268.7148 L282.4383,275.2188 C282.1513,275.4798 281.7893,275.6078 281.4303,275.6078" id="Fill-187" fill="#F8FBF8"/><path d="M253.0763,34.9066 L253.0803,34.9066 C253.0803,34.9066 239.5353,0.5496 218.3803,0.5496 L180.3723,0.5496 C162.2473,0.5496 139.4863,34.8306 139.4863,34.8306 L139.4873,34.8306 C121.4323,61.5686 67.7873,145.2616 39.3673,235.4866 C38.0183,239.7686 40.4183,244.3316 44.7143,245.6366 L120.4043,268.6246 C123.9643,269.7056 127.7493,267.8186 129.0303,264.3246 L194.1503,110.6596 L207.3903,259.3796 C207.5553,262.8886 210.4933,265.6236 214.0063,265.5366 L308.6253,263.1846 C312.0893,263.0986 314.8503,260.2646 314.832388,256.8006 C314.7073,232.8956 300.8013,150.5036 253.0763,34.9066" id="Fill-189" fill="#232E68"/><path d="M101.6798,141.7572 C105.4448,128.3422 102.8038,114.9592 98.3168,102.2232 C86.4948,123.5182 73.9098,148.1192 62.4098,174.4972 C63.9758,174.2342 65.5508,173.9042 67.1268,173.5252 C83.6438,169.5402 97.0078,158.4042 101.6798,141.7572" id="Fill-191" fill="#4947D9"/><path d="M168.8087,67.4467 C181.6517,67.6107 194.6367,67.0757 207.3007,64.7837 C220.8987,62.3227 236.1827,52.4337 237.5177,37.7307 C239.1257,20.0247 231.0187,8.0807 218.3807,0.5497 L180.3717,0.5497 C162.0817,0.5497 139.4867,34.8307 139.4867,34.8307 L139.4867,34.8307 C135.7287,40.3957 130.4247,48.4367 124.1307,58.4837 C125.4977,59.3087 126.9067,60.0577 128.3517,60.7197 C141.1557,66.5947 154.9237,67.2697 168.8087,67.4467" id="Fill-193" fill="#4947D9"/><path d="M212.946,107.7728 C211.064,103.7978 208.57,100.0728 205.686,96.7508 C198.072,87.9788 186.581,84.1018 175.354,86.3328 C173.378,86.2408 171.34,86.4368 169.282,86.9638 C145.493,93.0578 136.677,119.2968 138.804,141.4678 C140.113,155.1088 149.196,166.2128 161.603,171.8248 C163.49,172.6778 165.411,173.3548 167.351,173.8988 L194.15,110.6598 L199.454,170.2378 C199.894,170.0168 200.336,169.8048 200.771,169.5718 C221.769,158.2968 227.356,126.4518 212.946,107.7728" id="Fill-195" fill="#4947D9"/><path d="M259.3273,61.3285 C251.8333,69.8885 248.4233,81.6955 248.8143,92.9885 C249.2513,105.5795 254.3703,117.8075 265.6363,124.4345 C272.3073,128.3585 279.9323,129.7665 287.5713,129.7285 C280.7823,108.0045 272.4843,84.0645 262.4283,58.2295 C261.3483,59.1795 260.3103,60.2055 259.3273,61.3285" id="Fill-197" fill="#4947D9"/><path d="M314.508,258.8236 C314.718,258.1866 314.836,257.5086 314.833056,256.8006 C314.763,243.5706 310.469,212.4206 298.561,167.6486 C296.996,167.9466 295.43,168.2346 293.858,168.4936 C293.439,168.5626 287.26,169.4266 291.697,168.8616 C281.7,170.1336 272.348,171.1636 264.611,178.3246 C252.893,189.1716 249.45,208.7046 249.651,224.0006 C249.872,240.8696 258.098,258.1796 274.392,264.0356 L305.566,263.2606 C305.699,263.2176 305.836,263.1756 305.967,263.1306 C309.133,262.0396 311.955,260.5806 314.508,258.8236" id="Fill-199" fill="#4947D9"/><path d="M124.9572,191.2445 C108.1352,197.0975 96.8042,214.7065 93.1392,231.5745 C91.1352,240.7955 91.0762,249.4525 92.4992,258.7215 C92.5782,259.2365 92.6872,259.7355 92.7902,260.2375 L120.4042,268.6245 C123.9642,269.7055 127.7492,267.8185 129.0302,264.3245 L158.8832,193.8795 C156.6162,192.4375 154.1442,191.3155 151.6222,190.6185 C143.6912,188.4275 132.6652,188.5625 124.9572,191.2445" id="Fill-201" fill="#4947D9"/><path d="M203.1169,211.3773 L207.3899,259.3793 C207.4919,261.5353 208.6419,263.3963 210.3269,264.4913 C212.8879,258.8533 214.0849,252.6683 214.088918,246.2423 C214.0969,234.7203 211.4549,220.0643 203.1169,211.3773" id="Fill-203" fill="#4947D9"/><path d="M42.7599,238.0609 C50.5259,229.1599 51.4249,217.5869 49.5699,206.3979 C49.5569,206.3189 49.5369,206.2449 49.5239,206.1659 C45.8889,215.8179 42.4769,225.6129 39.3669,235.4869 C38.7599,237.4149 38.9179,239.3979 39.6609,241.1169 C40.7519,240.1829 41.7919,239.1699 42.7599,238.0609" id="Fill-205" fill="#4947D9"/></g></g></g></g><g id="Upper Body" transform="translate(-1.000000, 0.000000) scale(1 1)"><defs><polygon id="upper-bodysuperhero-path-1" points="0.606828676 0.9535 32.904 0.9535 32.904 6.2565 0.606828676 6.2565"/><polygon id="upper-bodysuperhero-path-3" points="0 0.0324 255.9499 0.0324 255.9499 196.950829 0 196.950829"/></defs><g id="Upper Body/Superhero" stroke="none" stroke-width="1" fill="none" fill-rule="evenodd"><g id="Group-691" transform="translate(81.500000, 271.500000)"><g id="Group-551" transform="translate(0.000000, 0.095000)"><path d="M477.6802,48.0172 L486.0642,48.0172 C486.0642,48.0172 491.1622,60.7632 510.3382,58.5202 C530.8462,56.1212 536.7052,40.6352 534.4042,25.7782 C532.4802,13.3622 525.2272,-6.1348 479.4722,2.0272 L477.6802,48.0172 Z" id="Fill-509" fill="#8c72cb"/><path d="M532.4048,19.4283 C532.2308,19.4283 532.0538,19.3973 531.8818,19.3333 C522.2468,15.7453 505.3498,16.5203 505.1798,16.5293 C504.3248,16.5813 503.6488,15.9303 503.6088,15.1043 C503.5688,14.2763 504.2068,13.5733 505.0338,13.5323 C505.7498,13.4983 522.7128,12.7173 532.9278,16.5223 C533.7048,16.8113 534.0988,17.6743 533.8098,18.4503 C533.5858,19.0553 533.0128,19.4283 532.4048,19.4283" id="Fill-511" fill="#000"/><g id="Group-515" transform="translate(503.000000, 23.000000)"><mask id="upper-bodysuperhero-mask-2" fill="#ffffff"><use xlink:href="#upper-bodysuperhero-path-1" fill="#ffffff"/></mask><g id="Clip-514"/><path d="M31.4039,6.2565 C31.2569,6.2565 31.1049,6.2345 30.9569,6.1875 C24.5469,4.1845 2.3169,3.9555 2.0929,3.9535 C1.2649,3.9455 0.5989,3.2685 0.606828676,2.4405 C0.6149,1.6165 1.2849,0.9535 2.1069,0.9535 L2.1209,0.9535 C3.0519,0.9625 25.0219,1.1905 31.8509,3.3235 C32.6419,3.5705 33.0829,4.4125 32.8359,5.2025 C32.6349,5.8455 32.0429,6.2565 31.4039,6.2565" id="Fill-513" fill="#000" mask="url(#upper-bodysuperhero-mask-2)"/></g><path d="M534.107,40.3912 C534.015,40.3912 533.922,40.3822 533.829,40.3652 C521.855,38.1202 506.431,38.0932 506.277,38.0932 C505.449,38.0932 504.777,37.4222 504.777,36.5932 C504.777,35.7652 505.449,35.0932 506.277,35.0932 C506.434,35.0932 522.129,35.1202 534.381,37.4162 C535.196,37.5692 535.732,38.3522 535.58,39.1662 C535.444,39.8872 534.814,40.3912 534.107,40.3912" id="Fill-516" fill="#000"/><g id="Group-520" transform="translate(0.000000, 31.000000)"><mask id="upper-bodysuperhero-mask-4" fill="#ffffff"><use xlink:href="#upper-bodysuperhero-path-3" fill="#ffffff"/></mask><g id="Clip-519"/><path d="M121.6539,38.1364 C121.6539,38.1364 0.6689,70.1704 0.0039,106.3624 C-0.3241,124.2184 19.0699,124.3194 19.0699,124.3194 C19.0699,124.3194 32.2119,124.3194 34.6989,130.5264 C37.4979,137.5094 35.6969,145.4904 27.3829,150.9224 C19.0699,156.3534 -2.1711,163.1694 4.5489,184.9514 C10.9779,205.7914 49.6639,193.1554 49.6639,193.1554 L144.3269,164.7784 L255.9499,129.7504 L254.8409,0.0324 L121.6539,38.1364 Z" id="Fill-518" fill="#E2334F" mask="url(#upper-bodysuperhero-mask-4)"/></g><path d="M148.6109,195.778 L311.1579,195.778 C312.8769,195.778 314.2779,194.399 314.3049,192.68 L316.9159,31.032 L195.8709,31.032 L145.6059,191.69 C144.9719,193.717 146.4859,195.778 148.6109,195.778" id="Fill-521" fill="#4947D9"/><path d="M171.3184,108.5416 L162.4244,108.6006 L151.9554,152.0336 C158.1284,152.3516 164.7264,152.3456 164.7264,152.3456 C164.7264,152.3456 211.6664,155.3746 215.1844,130.2046 C218.8464,104.0016 196.3694,92.4796 171.3184,108.5416" id="Fill-523" fill="#8c72cb"/><path d="M141.9991,108.3199 C141.9991,108.3199 130.5261,108.9849 130.5341,98.9049 C130.5401,91.7549 136.5951,88.7829 141.5001,88.8659 C146.4051,88.9489 183.766543,90.0351673 183.766543,90.0351673 L195.8711,31.0319 C195.8711,31.0319 118.2781,23.7439 84.8021,57.7729 C51.8071,91.3139 64.2501,147.6069 110.0751,159.1989 C120.3361,161.7939 136.0701,163.4069 143.9221,164.0959 C146.7231,164.3419 149.3111,162.5979 150.1451,159.9129 L166.1041,108.4949 L141.9991,108.3199 Z" id="Fill-525" fill="#4947D9"/><path d="M309.691728,92.5131662 C310.705728,92.2201662 441.7927,70.752 471.4697,65.766 C475.1297,65.152 477.8487,62.054 477.9937,58.346 L480.1937,1.907 L316.9157,31.032 L309.691728,92.5131662 Z" id="Fill-527" fill="#4947D9"/><path d="M203.6026,31.0319 C203.6026,31.0319 213.4126,37.0729 223.2226,39.9819 C233.0326,42.8919 255.0716,53.3509 255.0716,53.3509 L254.8416,45.9959 L235.1936,31.0319 L203.6026,31.0319 Z" id="Fill-529" fill="#E2334F"/><path d="M254.8414,45.9957 L272.6874,31.0317 L293.4714,31.0317 C293.4714,31.0317 272.3714,48.5127 255.0714,53.3507 L254.8414,45.9957 Z" id="Fill-531" fill="#E2334F"/><path d="M254.8414,45.9957 C254.8414,45.9957 246.9994,45.5607 244.7964,53.3507 C242.5924,61.1407 247.4564,64.3417 252.6524,64.5487 C257.8484,64.7567 264.3324,62.5537 263.5844,54.6557 C262.8364,46.7587 254.8414,45.9957 254.8414,45.9957" id="Fill-533" fill="#E2334F"/><path d="M247.6363,62.8727 C247.6363,62.8727 234.0483,77.6097 235.6653,85.8177 C237.1063,93.1337 243.4243,101.2817 246.0843,101.1707 C248.7443,101.0607 256.2923,92.9967 258.2783,87.7017 C260.2733,82.3817 252.4033,61.9857 252.4033,61.9857 L247.6363,62.8727 Z" id="Fill-535" fill="#E2334F"/><path d="M256.8585,60.5905 C256.8585,60.5905 269.1655,66.8985 271.6665,74.1025 C274.1565,81.2735 273.3795,90.7825 271.0255,92.0255 C268.6715,93.2685 260.5885,92.0835 256.5585,89.0615 C252.5085,86.0235 252.3405,62.2955 252.3405,62.2955 L256.8585,60.5905 Z" id="Fill-537" fill="#E2334F"/><path d="M315.4468,93.5172 L315.4218,93.5172 C314.5928,93.5032 313.9328,92.8222 313.9458,91.9942 C313.9628,90.9602 314.3478,90.3602 314.5788,90.0002 C314.7268,89.7692 314.7328,89.7602 314.7358,89.5812 C314.7438,89.1302 314.7068,88.9392 314.6558,88.6732 C314.5918,88.3352 314.5108,87.9142 314.5228,87.1542 C314.5298,86.7652 314.4898,86.6232 314.4188,86.3662 C314.3238,86.0222 314.1928,85.5492 314.2058,84.7282 C314.2218,83.7002 314.6038,83.1012 314.8318,82.7442 C314.9788,82.5112 314.9848,82.5022 314.9878,82.3222 C314.9978,81.7032 315.0088,81.3942 315.0188,81.0842 C315.0298,80.7892 315.0398,80.4942 315.0498,79.9032 C315.0518,79.7592 315.0518,79.7592 314.9048,79.5342 C314.6618,79.1612 314.2548,78.5382 314.2708,77.4742 C314.2838,76.6762 314.4068,76.2402 314.5058,75.8892 C314.5778,75.6312 314.6208,75.4752 314.6278,75.0662 C314.6418,74.1522 314.8818,73.6212 315.0408,73.2702 C315.1468,73.0322 315.1828,72.9522 315.1878,72.6572 C315.1918,72.4152 315.1678,72.3662 315.0518,72.1302 C314.8688,71.7582 314.5918,71.1972 314.6068,70.2302 C314.6198,69.4452 314.7328,69.0142 314.8238,68.6682 C314.8908,68.4122 314.9348,68.2422 314.9418,67.8192 C314.9468,67.5402 314.9158,67.4682 314.8108,67.2302 C314.6538,66.8692 314.4158,66.3232 314.4298,65.3932 C314.4428,64.5912 314.5688,64.1532 314.6698,63.8002 C314.7428,63.5432 314.7868,63.3892 314.7938,62.9832 C314.8068,62.1242 314.9858,61.6402 315.1158,61.2862 C315.2048,61.0442 315.2488,60.9232 315.2548,60.5742 C315.2588,60.3292 315.2348,60.2812 315.1198,60.0432 C314.9388,59.6732 314.6658,59.1132 314.6808,58.1512 C314.6898,57.6192 314.6688,57.3522 314.6468,57.0852 C314.6208,56.7472 314.5928,56.4092 314.6038,55.7332 C314.6148,55.0862 314.6378,54.7632 314.6628,54.4412 C314.6828,54.1612 314.7038,53.8812 314.7128,53.3212 C314.7258,52.5002 315.3948,51.8452 316.2128,51.8452 L316.2368,51.8452 C317.0648,51.8592 317.7258,52.5402 317.7128,53.3702 C317.7018,54.0152 317.6778,54.3382 317.6538,54.6622 C317.6338,54.9412 317.6128,55.2212 317.6038,55.7822 C317.5948,56.3142 317.6168,56.5792 317.6378,56.8462 C317.6648,57.1852 317.6918,57.5242 317.6808,58.2002 C317.6768,58.4442 317.7008,58.4932 317.8158,58.7302 C317.9968,59.1002 318.2698,59.6612 318.2548,60.6222 C318.2408,61.4812 318.0618,61.9662 317.9318,62.3212 C317.8428,62.5612 317.7998,62.6822 317.7938,63.0322 C317.7808,63.8332 317.6548,64.2722 317.5538,64.6242 C317.4808,64.8812 317.4368,65.0362 317.4298,65.4422 C317.4258,65.7202 317.4568,65.7922 317.5608,66.0312 C317.7178,66.3922 317.9568,66.9382 317.9418,67.8682 C317.9288,68.6532 317.8158,69.0832 317.7248,69.4292 C317.6578,69.6862 317.6138,69.8562 317.6068,70.2792 C317.6028,70.5202 317.6278,70.5702 317.7428,70.8052 C317.9258,71.1772 318.2038,71.7392 318.1878,72.7052 C318.1738,73.6202 317.9338,74.1512 317.7748,74.5022 C317.6688,74.7402 317.6328,74.8202 317.6278,75.1152 C317.6148,75.9132 317.4918,76.3492 317.3928,76.7002 C317.3208,76.9572 317.2778,77.1142 317.2708,77.5232 C317.2678,77.6662 317.2678,77.6662 317.4158,77.8922 C317.6588,78.2652 318.0658,78.8882 318.0498,79.9522 C318.0398,80.5712 318.0288,80.8792 318.0178,81.1892 C318.0078,81.4842 317.9978,81.7802 317.9878,82.3712 C317.9708,83.3992 317.5898,83.9972 317.3618,84.3552 C317.2148,84.5872 317.2088,84.5962 317.2058,84.7772 C317.1988,85.1652 317.2388,85.3072 317.3098,85.5652 C317.4048,85.9102 317.5358,86.3812 317.5228,87.2032 C317.5148,87.6542 317.5518,87.8452 317.6028,88.1112 C317.6678,88.4492 317.7478,88.8702 317.7358,89.6302 C317.7188,90.6632 317.3338,91.2632 317.1028,91.6222 C316.9548,91.8542 316.9488,91.8632 316.9458,92.0412 C316.9318,92.8622 316.2628,93.5172 315.4468,93.5172" id="Fill-539" fill="#000"/><path d="M187.0669,140.6842 C186.3799,140.6842 185.7609,140.2102 185.6039,139.5132 C185.4219,138.7052 185.9299,137.9022 186.7389,137.7202 L214.2499,131.5352 C215.0609,131.3502 215.8599,131.8622 216.0429,132.6692 C216.2239,133.4772 215.7159,134.2802 214.9079,134.4612 L187.3969,140.6472 C187.2869,140.6722 187.1749,140.6842 187.0669,140.6842" id="Fill-541" fill="#000"/><path d="M185.9576,128.3151 C185.2456,128.3151 184.6136,127.8061 184.4826,127.0811 C184.3366,126.2651 184.8786,125.4851 185.6936,125.3381 L215.0116,120.0621 C215.8236,119.9161 216.6056,120.4571 216.7536,121.2721 C216.8996,122.0871 216.3576,122.8681 215.5426,123.0141 L186.2256,128.2911 C186.1356,128.3071 186.0456,128.3151 185.9576,128.3151" id="Fill-543" fill="#000"/><path d="M185.9576,116.9635 C185.2616,116.9635 184.6376,116.4765 184.4906,115.7675 C184.3226,114.9555 184.8446,114.1615 185.6546,113.9935 L211.2526,108.6885 C212.0536,108.5195 212.8576,109.0395 213.0256,109.8535 C213.1936,110.6635 212.6726,111.4575 211.8616,111.6255 L186.2646,116.9315 C186.1616,116.9525 186.0596,116.9635 185.9576,116.9635" id="Fill-545" fill="#000"/><path d="M247.107,1.9069 L235.708,1.9069 C230.554,1.9069 226.168,5.6009 225.252,10.6419 C225.242,10.7049 225.233,10.7649 225.224,10.8289 L225.218,10.8619 L225.218,10.8629 C225.181,11.1079 225.143,11.3579 225.106,11.6069 C223.779,20.3479 222.141,31.0589 222.141,31.0589 L257.574,31.0589 L257.646,23.2939 L257.744,12.6419 C257.799,6.7289 253.021,1.9069 247.107,1.9069" id="Fill-547" fill="#8c72cb"/><path d="M257.5738,31.0592 C243.6988,30.0832 239.9078,27.1082 240.0418,24.6312 C240.1608,22.4132 242.2458,22.7222 243.1568,22.7432 C247.1708,22.8322 257.6458,23.2932 257.6458,23.2932" id="Fill-549" fill="#000"/></g></g></g></g><g id="Head" transform="translate(204.000000, 145.000000) scale(1 1)"><g id="Head/Hat" stroke="none" stroke-width="1" fill="none" fill-rule="evenodd"><g id="Group-183" transform="translate(87.000000, 77.000000)"><g id="Group-13" transform="translate(0.000000, 0.738000)"><path d="M15.8334,53.0514 C15.8334,53.0544 15.8324,53.0564 15.8324,53.0594 L15.8334,53.0514 Z" id="Fill-1" fill="#8c72cb"/><path d="M62.9301,41.1676 C61.3891,38.1196 56.8201,38.7496 55.4921,38.9466 C54.1771,33.3646 52.7601,28.3696 51.4731,25.9636 C48.7691,20.9056 40.5221,15.5916 27.3331,17.6326 C18.5761,18.9876 9.2501,27.1566 15.3071,41.3776 C15.3071,41.3776 17.0401,44.8246 16.2101,50.5096 C16.1191,51.1356 15.9891,52.0106 15.8331,53.0516 L15.8321,53.0596 C15.5691,54.8186 15.2281,57.0746 14.8551,59.5396 C14.8451,59.6026 14.8361,59.6626 14.8261,59.7266 L14.8211,59.7606 C14.7841,60.0056 14.7461,60.2556 14.7081,60.5046 C14.4791,63.0946 15.1851,71.5696 34.2631,71.6666 L47.2481,72.1916 L47.4461,72.1996 C47.4461,72.1996 51.7981,72.1506 54.4311,72.1506 C59.9061,72.1506 60.8461,66.9326 60.2311,63.0696 C59.9791,61.4816 59.0561,56.0546 57.8101,49.7506 C63.9221,47.7976 64.1571,43.5926 62.9301,41.1676" id="Fill-3" fill="#8c72cb"/><path d="M11.9735,25.2038 C11.9735,25.2038 6.5095,39.1608 13.6855,48.1808 C13.6855,48.1808 13.8495,48.7068 13.3235,49.5958 C12.7965,50.4838 11.1505,52.8538 15.1335,53.0188 C19.1175,53.1828 26.0625,53.2828 26.0625,53.2828 C26.0625,53.2828 28.2355,53.3488 28.4325,52.0638 C28.6305,50.7808 27.5435,50.4838 26.5895,50.4188 C25.6345,50.3528 22.8365,49.1018 22.9685,45.4808 C23.0995,41.8598 25.3855,40.2468 28.4555,40.0498 L30.9015,39.9508 C30.9015,39.9508 35.2465,33.7628 36.0695,28.8248 C36.0695,28.8248 30.9345,22.2408 11.9735,25.2038" id="Fill-5" fill="#860a0c"/><path d="M5.9808,29.8122 L60.4568,29.8122 C60.4568,29.8122 65.3428,29.9252 65.3428,25.9012 C65.3428,21.3672 61.0828,21.2532 61.0828,21.2532 L52.1258,21.0272 C52.1258,21.0272 51.5618,9.1252 51.4368,7.1412 C51.3118,5.1582 50.0588,1.6432 47.7408,2.2102 C45.4228,2.7772 38.7828,8.6712 36.2148,10.8812 C36.2148,10.8812 35.0868,12.2982 33.8978,10.8812 C32.7078,9.4642 28.4478,4.2502 22.6218,1.1902 C22.6218,1.1902 19.1768,-0.4538 18.1118,3.4002 C17.0468,7.2542 15.6688,15.4162 15.4188,20.6302 L6.3978,20.7442 C6.3978,20.7442 1.9558,21.0682 1.0118,23.6912 C-0.4502,27.7522 2.4108,29.8122 5.9808,29.8122" id="Fill-7" fill="#E0B40C"/><polygon id="Fill-9" fill="#D5E1D5" points="20.1791 20.6491 52.1251 21.0271 51.8901 16.1131 25.2741 16.1131 15.8151 16.1131 15.4181 20.6301"/><path d="M55.4911,47.028 C55.6541,48.809 58.8161,48.309 58.5531,46.534 C58.2441,44.457 55.3001,44.939 55.4911,47.028" id="Fill-11" fill="#000"/></g></g></g></g><g id="Expression" transform="translate(315.000000, 246.000000) scale(1 1)"><g id="Expression/Makeup" stroke="none" stroke-width="1" fill="none" fill-rule="evenodd"><g id="Group-77" transform="translate(6.400000, 7.300000)"><g id="Group-71" transform="translate(0.000000, 0.116900)"><path d="M12.7445,14.1984 C12.2225,12.5104 10.5655,11.6894 8.8075,11.1694 C8.5875,11.0364 8.3635,10.9114 8.1475,10.7704 C7.4735,10.3294 6.6515,10.2604 5.8975,10.4674 C5.8575,10.4584 5.8155,10.4484 5.7765,10.4384 C4.4785,10.1264 3.0735,10.6454 2.3885,11.8174 C2.2255,12.0954 2.1135,12.4224 2.0495,12.7644 C1.0345,13.5454 0.4755,14.9034 0.8845,16.2904 C1.3675,17.9274 2.7785,18.9854 4.1325,19.9014 C5.8085,21.0374 7.4395,21.5414 9.4555,21.2544 C11.0605,21.0254 11.9405,18.9834 11.5505,17.5634 C11.5425,17.5364 11.5295,17.5134 11.5205,17.4864 C12.5155,16.7494 13.1185,15.4084 12.7445,14.1984" id="Fill-55" fill="#FF00BF"/><path d="M15.9305,6.4221 C15.9385,6.3601 15.9305,6.3011 15.9275,6.2381 C15.9245,6.1871 15.9305,6.1351 15.9205,6.0851 C15.9165,6.0681 15.9105,6.0511 15.9065,6.0331 C15.8925,5.9831 15.8635,5.9381 15.8415,5.8891 C15.8185,5.8361 15.8035,5.7811 15.7715,5.7351 C15.7595,5.7171 15.7455,5.7021 15.7325,5.6861 C15.7245,5.6761 15.7225,5.6631 15.7145,5.6531 C15.6875,5.6201 15.6495,5.6051 15.6185,5.5761 C15.5795,5.5381 15.5465,5.4951 15.5005,5.4651 C15.4825,5.4521 15.4615,5.4441 15.4415,5.4331 C15.3875,5.4011 15.3305,5.3851 15.2725,5.3651 C15.2325,5.3511 15.2005,5.3231 15.1575,5.3151 C12.7535,4.7951 11.9365,1.7061 11.9215,1.6451 C11.7875,1.1091 11.2455,0.7761 10.7115,0.9151 C10.1755,1.0471 9.8475,1.5881 9.9795,2.1241 C10.0125,2.2581 10.6335,4.6821 12.5105,6.1951 C12.4635,6.1921 12.4165,6.1991 12.3695,6.1931 C11.1685,6.0251 10.0985,4.8061 9.7875,4.3511 C9.4775,3.8941 8.8585,3.7731 8.4015,4.0831 C7.9435,4.3921 7.8225,5.0131 8.1305,5.4711 C8.1955,5.5681 9.7485,7.8371 12.0785,8.1711 C12.1115,8.1751 12.1425,8.1741 12.1755,8.1781 C11.5195,8.3191 10.9175,8.2181 10.8885,8.2131 C10.3505,8.1051 9.8245,8.4521 9.7125,8.9911 C9.6015,9.5321 9.9495,10.0621 10.4905,10.1731 C10.5765,10.1911 10.9435,10.2601 11.4565,10.2601 C12.1865,10.2601 13.2115,10.1191 14.1315,9.4911 C15.0795,8.8431 15.6765,7.8421 15.9155,6.5211 C15.9175,6.5141 15.9215,6.5091 15.9235,6.5031 C15.9245,6.4991 15.9225,6.4951 15.9235,6.4911 C15.9255,6.4811 15.9295,6.4711 15.9315,6.4601 C15.9335,6.4461 15.9285,6.4351 15.9305,6.4221" id="Fill-57" fill="#FD2118"/><path d="M24.1605,27.1066 C23.0215,26.7066 21.9945,26.7266 21.1925,26.8836 C20.9975,26.5866 20.7545,26.3146 20.4665,26.0756 C18.9285,24.7966 16.5885,24.6986 14.9165,25.0376 C13.6475,25.2916 12.3745,24.9986 11.6905,24.7876 C10.8395,24.4886 10.3045,24.2986 10.2795,24.2906 C9.4945,24.0116 8.6705,24.4326 8.3645,25.2036 C8.0815,25.9176 8.4625,26.7626 8.7155,27.0306 C8.9535,27.2836 14.0105,32.5436 21.5445,32.5436 C22.5565,32.5436 25.9105,32.5436 26.5345,31.0746 C26.9975,29.9816 26.5805,27.9606 24.1605,27.1066" id="Fill-59" fill="#00DEB8"/><path d="M24.0931,30.8127 C16.1611,30.8127 8.4501,25.8557 8.0921,25.6227 C7.8601,25.4717 7.7951,25.1627 7.9461,24.9307 C8.0951,24.6987 8.4051,24.6337 8.6371,24.7847 C8.7311,24.8457 18.1551,30.8977 26.5321,29.6357 C26.8041,29.5927 27.0601,29.7827 27.1011,30.0547 C27.1421,30.3287 26.9541,30.5837 26.6811,30.6247 C25.8221,30.7537 24.9561,30.8127 24.0931,30.8127" id="Fill-61" fill="#00A378"/><polygon id="Fill-63" fill="#FEF864" points="12.9125 16.1975 12.7675 15.7925 12.2165 14.2525 11.7665 15.8335 11.6765 16.1475 11.3535 16.2635 9.7995 16.8225 11.3855 17.1925 11.6605 17.2575 11.7645 17.5215 12.4015 19.1425 12.9835 17.4635 13.0685 17.2185 13.4105 17.1285 15.1655 16.6675 13.2925 16.2765"/><polygon id="Fill-65" fill="#F8FBF8" points="16.4891 13.302 16.3691 12.968 15.9151 11.698 15.5441 13.001 15.4701 13.262 15.2041 13.358 13.9231 13.818 15.2301 14.123 15.4571 14.176 15.5431 14.395 16.0681 15.731 16.5481 14.346 16.6181 14.144 16.9001 14.07 18.3471 13.69 16.8031 13.367"/><polygon id="Fill-67" fill="#8c72cb" points="8.5243 13.302 8.4043 12.968 7.9493 11.698 7.5793 13.001 7.5043 13.262 7.2383 13.358 5.9573 13.818 7.2643 14.123 7.4913 14.176 7.5773 14.395 8.1023 15.731 8.5833 14.346 8.6533 14.144 8.9353 14.07 10.3813 13.69 8.8373 13.367"/><path d="M16.1527,8.1926 C16.4587,11.1286 20.8827,10.7726 20.9197,7.9486 C20.9607,4.7556 15.7917,4.7216 16.1527,8.1926" id="Fill-69" fill="#000"/></g></g></g></g><g id="Facial Hair" transform="translate(311.300000, 250.950000) scale(1 1)"><g id="Facial Hair/None" stroke="none" stroke-width="1" fill="none" fill-rule="evenodd" fill-opacity="0"/></g><g id="Accesories" transform="translate(311.300000, 250.950000) scale(1 1)"><g id="Accesories/None" stroke="none" stroke-width="1" fill="none" fill-rule="evenodd" fill-opacity="0"/></g></g></g></g></svg>