<svg viewBox="102.00000000000011 102.00000000000011 917.9999999999997 828.7499999999999" xmlns="http://www.w3.org/2000/svg" xmlns:xlink="http://www.w3.org/1999/xlink" overflow="visible" width="917.9999999999997px" height="828.7499999999999px"><defs><polygon id="masterspot-illustrationui-design-path-1" points="0 0.855728366 369.150131 0.855728366 369.150131 383.471976 0 383.471976"/><polygon id="masterspot-illustrationui-design-path-3" points="0.44031893 0.957161388 516.594 0.957161388 516.594 167.536028 0.44031893 167.536028"/></defs><g id="Master/Spot Illustration/UI Design" stroke="none" stroke-width="1" fill="none" fill-rule="evenodd"><g id="UI" transform="translate(-28.000000, -17.000000) scale(1 1)"><defs><polygon id="uiscreen-2-path-1" points="0 0.5154 868.1945 0.5154 868.1945 485.99996 0 485.99996"/></defs><g id="UI/Screen 2" stroke="none" stroke-width="1" fill="none" fill-rule="evenodd"><g id="Group-40" transform="translate(141.000000, 121.000000)"><path d="M832.3518,1.1391 C777.5308,-1.4259 132.5288,1.1441 132.5288,1.1441 C132.5288,1.1441 68.2858,-0.5699 60.5768,66.2431 C59.7698,73.2341 58.4748,83.9301 56.8038,97.4601 L868.1948,97.4601 C870.9488,73.7421 872.6118,59.3911 872.6118,59.3911 C872.6118,59.3911 887.1728,3.7051 832.3518,1.1391" id="Fill-1" fill="#70A0E6"/><path d="M106.114,56.1996 C107.063,68.9176 127.374,67.0186 128.323,55.6526 C129.585,40.5426 104.948,40.5786 106.114,56.1996" id="Fill-3" fill="#3164CF"/><path d="M170.6643,56.1996 C171.6133,68.9176 191.9243,67.0186 192.8733,55.6526 C194.1353,40.5426 169.4983,40.5786 170.6643,56.1996" id="Fill-5" fill="#3164CF"/><path d="M237.22,56.1996 C238.169,68.9176 258.48,67.0186 259.429,55.6526 C260.691,40.5426 236.054,40.5786 237.22,56.1996" id="Fill-7" fill="#3164CF"/><g id="Group-11" transform="translate(0.000000, 96.945000)"><mask id="uiscreen-2-mask-2" fill="#ffffff"><use xlink:href="#uiscreen-2-path-1" fill="#ffffff"/></mask><g id="Clip-10"/><path d="M56.8035,0.5154 C42.5045,116.3004 0.6165,440.4144 0.6165,440.4144 C0.6165,440.4144 -8.8055,487.5274 46.0145,485.8144 C47.4325,485.7694 49.2735,485.7274 51.4705,485.6884 C94.6745,484.9074 284.4215,484.9874 456.0265,485.2434 C613.2685,485.4784 755.2605,485.8594 755.2605,485.8594 C755.2605,485.8594 809.2245,491.3344 816.9335,433.9444 C823.2085,387.2354 856.1495,104.2394 868.1945,0.5154 L56.8035,0.5154 Z" id="Fill-9" fill="#AFDCFD" mask="url(#uiscreen-2-mask-2)"/></g><path d="M54.4299,536.1752 C53.8369,549.9062 52.4609,579.4582 51.4709,582.6332 C94.6729,581.8522 284.4129,581.9322 456.0159,582.1882 C456.0219,582.1882 456.0269,582.1832 456.0269,582.1772 L456.0269,542.2832 C456.0269,538.3642 452.8809,535.1712 448.9629,535.1132 L61.7009,529.3262 C57.8199,529.2692 54.5969,532.2972 54.4299,536.1752" id="Fill-12" fill="#70A0E6"/><polygon id="Fill-14" fill="#232E68" points="57.2908 452.559 154.2978 455.129 461.0098 461.97 484.0998 155.755 379.1488 155.755 370.3188 263.376 270.2568 260.472 266.0808 322.146 169.0738 318.933 163.2918 373.481 66.2088 373.481"/><path d="M533.2737,176.1176 L507.7997,405.6636 C507.7997,405.6636 498.5987,466.3046 566.6707,466.1166 C636.3777,465.9246 817.0427,469.3066 817.0427,469.3066 C817.0427,469.3066 872.1297,472.6266 876.2597,412.9366 C880.8517,346.5866 901.3027,185.9006 901.3027,185.9006 C901.3027,185.9006 912.6987,123.1916 846.7207,124.7066 C778.8817,126.2636 590.0367,126.1186 590.0367,126.1186 C590.0367,126.1186 536.7187,120.0076 533.2737,176.1176" id="Fill-16" fill="#F8FBF8"/><polygon id="Fill-18" fill="#FECB72" points="545.9358 393.6879 544.2558 409.7819 559.9608 409.4209 561.6418 393.3269"/><polygon id="Fill-20" fill="#FEF864" points="548.3547 365.1264 546.6737 381.2214 562.3797 380.8594 564.0607 364.7664"/><polygon id="Fill-22" fill="#FF00BF" points="543.5325 419.6489 541.8515 435.7439 557.5575 435.3819 559.2375 419.2889"/><path d="M57.2908,492.7407 L57.2908,501.2417 C57.2908,505.1327 60.3938,508.3137 64.2838,508.4107 L222.8138,512.3447 C226.7368,512.4407 230.0098,509.3677 230.1578,505.4457 L230.4738,497.0737 C230.6238,493.0817 227.4838,489.7367 223.4918,489.6347 L64.6448,485.5717 C60.6138,485.4697 57.2908,488.7087 57.2908,492.7407" id="Fill-24" fill="#70A0E6"/><path d="M249.5921,497.9526 L249.5921,505.5246 C249.5921,509.4156 252.6951,512.5976 256.5841,512.6936 L448.6781,517.4756 C452.7061,517.5766 456.0271,514.3376 456.0271,510.3066 L456.0271,500.7426 C456.0271,496.8226 452.8791,493.6296 448.9601,493.5726 L256.8671,490.7826 C252.8661,490.7236 249.5921,493.9516 249.5921,497.9526" id="Fill-26" fill="#70A0E6"/><path d="M541.2561,497.9662 L541.2561,508.9642 C541.2561,512.8502 544.3511,516.0282 548.2351,516.1322 L742.4701,521.3172 C746.5041,521.4242 749.8321,518.1842 749.8321,514.1492 L749.8321,501.1562 C749.8321,497.2422 746.6931,494.0512 742.7791,493.9872 L548.5441,490.7962 C544.5381,490.7312 541.2561,493.9602 541.2561,497.9662" id="Fill-28" fill="#70A0E6"/><path d="M541.2561,543.0248 L541.2561,552.2068 C541.2561,556.0978 544.3601,559.2798 548.2501,559.3758 L742.4851,564.1618 C746.5131,564.2598 749.8321,561.0218 749.8321,556.9928 L749.8321,545.7168 C749.8321,541.7958 746.6821,538.6008 742.7611,538.5468 L548.5271,535.8548 C544.5271,535.7988 541.2561,539.0258 541.2561,543.0248" id="Fill-30" fill="#70A0E6"/><path d="M840.352113,285.9916 C840.3568,283.0176 840.3028,280.0086 840.1308,276.9276 C832.2388,135.8046 585.7448,130.0036 589.4038,288.1846 C590.5768,338.9406 615.5698,373.1716 649.3498,391.4456 C666.4908,367.0106 714.9528,288.7256 714.9528,288.7256 L840.352113,285.9916 Z" id="Fill-32" fill="#FECB72"/><path d="M809.2688,368.4584 C828.1718,348.5214 840.2878,320.9674 840.3518,285.9914 L714.9528,288.7264 L809.2688,368.4584 Z" id="Fill-34" fill="#FEF864"/><path d="M809.2688,368.4584 L714.9528,288.7264 C714.9528,288.7264 666.4908,367.0104 649.3498,391.4454 C699.6548,418.6594 769.4578,410.4454 809.2688,368.4584" id="Fill-36" fill="#FF00BF"/><path d="M61.1091,85.0463 C61.1091,85.0463 30.1241,82.8853 27.2421,113.1493 C24.3591,143.4133 20.0361,201.0593 20.0361,201.0593 C20.0361,201.0593 17.1541,224.8383 51.7421,227.0003 L96.0571,227.0003 C96.0571,227.0003 107.5861,226.2793 106.8661,240.3303 C106.1451,254.3823 109.0271,324.2773 109.0271,324.2773 C109.0271,324.2773 111.5491,336.8883 119.8361,319.9543 C128.1231,303.0213 151.9011,235.6473 151.9011,235.6473 C151.9011,235.6473 152.6221,224.8383 170.9971,225.9193 C189.3721,227.0003 204.8641,227.0003 204.8641,227.0003 C204.8641,227.0003 223.9601,228.6213 226.1211,210.7873 C228.5451,190.7923 236.3901,118.8973 236.3901,118.8973 C236.3901,118.8973 241.9741,89.0093 209.9081,87.9293 C177.8421,86.8483 61.1091,85.0463 61.1091,85.0463" id="Fill-38" fill="#FE5C4F"/></g></g></g><g transform="translate(198.000000, 174.000000) scale(1 1)" id="Master/Character/Standing"><g id="Master/Character/Standing" stroke="none" stroke-width="1" fill="none" fill-rule="evenodd"><g id="Standing/Lower Body" transform="translate(14.000000, 442.000000) scale(1 1)"><g id="Standing/Lower Body/Green Pants" stroke="none" stroke-width="1" fill="none" fill-rule="evenodd"><g id="Group-332" transform="translate(187.000000, -1.000000)"><g id="Group-139" transform="translate(0.000000, 0.142000)"><path d="M161.5988,264.0726 C161.5988,264.0726 164.0338,290.4566 168.5818,299.8206 C172.3508,307.5796 177.7268,307.3156 177.7268,307.3156 L185.0968,307.3156 C185.0968,307.3156 191.8598,307.9686 192.5248,303.3116 C193.1898,298.6566 193.6888,294.9986 193.6888,294.9986 C193.6888,294.9986 194.1878,291.0086 196.3488,291.0086 C198.5658,291.0086 201.7368,296.7296 201.7368,296.7296 C201.7368,296.7296 207.8208,307.3156 215.8028,307.3156 C225.1138,307.3156 263.3558,307.8016 270.6718,303.4776 C277.9878,299.1556 280.9808,288.1806 265.3508,284.5236 C249.7218,280.8656 226.5908,279.0366 219.1188,264.0726 L161.5988,264.0726 Z" id="Fill-127" fill="#000"/><path d="M6.3669,264.0726 C6.3669,264.0726 0.8699,289.1786 3.6559,299.8206 C5.8389,308.1656 12.7999,307.3156 12.7999,307.3156 L20.1699,307.3156 C20.1699,307.3156 26.9329,307.9686 27.5979,303.3116 C28.2629,298.6566 27.6399,291.7566 31.4229,291.0086 C34.3419,290.4306 36.8099,296.7296 36.8099,296.7296 C36.8099,296.7296 40.9409,307.3156 47.0099,307.3156 C56.3209,307.3156 96.4459,307.8006 104.9559,305.1406 C114.2669,302.2316 113.6019,290.5096 99.9679,287.0176 C84.4179,283.0356 66.5749,284.1906 58.7329,264.0726 L6.3669,264.0726 Z" id="Fill-129" fill="#000"/><path d="M248.6134,285.7094 C248.6134,285.7094 263.7854,287.0594 270.0074,290.4534 C273.4984,292.3584 273.3464,297.9084 266.3634,297.5754 C259.3794,297.2434 254.7654,289.5534 249.8604,290.9254 C242.9014,292.8714 241.9624,285.1054 248.6134,285.7094" id="Fill-131" fill="#F8FBF8"/><path d="M84.0929,288.2103 C84.0929,288.2103 97.8009,289.3703 103.4219,292.2873 C106.5759,293.9253 106.4389,298.6943 100.1299,298.4093 C93.8199,298.1233 89.6509,291.5143 85.2189,292.6923 C78.9319,294.3653 78.0839,287.6903 84.0929,288.2103" id="Fill-133" fill="#F8FBF8"/><path d="M241.047,253.2416 C232.499,215.1706 196.802,82.7256 154.107,25.8826 C154.108,25.8826 154.107,25.8826 154.107,25.8826 C154.107,25.8826 155.797,0.5496 130.201,0.5496 L81.496,0.5496 C68.788,0.5496 58.258,9.8736 56.374,22.0536 L56.373,22.0536 L56.368,22.0846 C56.367,22.0946 56.365,22.1026 56.364,22.1116 L55.135,29.9066 L0.171,260.7586 C-0.717,264.4846 2.11,268.0626 5.94,268.0626 L78.237,268.0626 C83.896,268.0626 88.753,264.0336 89.797,258.4716 L116.227,117.7326 C132.805,161.2626 149.213,213.2346 153.488,257.1906 C153.867,261.0886 157.113,264.0726 161.028,264.0726 L232.37,264.0726 C238.065,264.0726 242.295,258.7976 241.047,253.2416" id="Fill-135" fill="#3D6C48"/><path d="M104.9328,178.4721 C104.8378,178.4721 104.7418,178.4631 104.6448,178.4451 C103.8318,178.2861 103.3008,177.4991 103.4578,176.6861 C103.5978,175.9661 103.7458,175.5811 103.8638,175.2731 C103.9588,175.0221 104.0358,174.8241 104.1248,174.3601 C104.1298,174.2341 104.0728,174.1161 104.0348,174.0371 C103.8278,173.6151 103.4818,172.9081 103.6928,171.8231 C103.8998,170.7601 104.4548,170.2351 104.7878,169.9201 C104.9758,169.7431 104.9758,169.7431 104.9978,169.6261 C105.0878,169.1631 105.0918,168.9511 105.0978,168.6831 C105.1038,168.3531 105.1118,167.9431 105.2508,167.2251 C105.2978,166.9841 105.2838,166.9321 105.2118,166.6801 C105.1008,166.2841 104.9318,165.6871 105.1158,164.7451 C105.3148,163.7241 105.8148,163.2011 106.1138,162.8891 C106.3038,162.6911 106.3038,162.6911 106.3338,162.5321 C106.4268,162.0571 106.4348,161.8401 106.4458,161.5651 C106.4568,161.2251 106.4718,160.8391 106.6088,160.1341 C106.6518,159.9151 106.6388,159.8771 106.5608,159.6251 C106.4328,159.2211 106.2418,158.6091 106.4288,157.6451 C106.6388,156.5641 107.2208,156.0371 107.5688,155.7231 C107.7558,155.5531 107.7558,155.5531 107.7758,155.4521 C107.8008,155.3241 107.8008,155.3241 107.6958,155.0831 C107.5138,154.6711 107.2098,153.9831 107.4138,152.9311 C107.5828,152.0661 107.8668,151.6141 108.0738,151.2841 C108.2108,151.0651 108.2678,150.9741 108.3288,150.6571 C108.3978,150.3081 108.3798,150.1801 108.3448,149.9241 C108.2948,149.5551 108.2258,149.0501 108.3878,148.2161 C108.4998,147.6421 108.5498,147.3541 108.5988,147.0651 C108.6518,146.7601 108.7038,146.4541 108.8218,145.8471 C108.9888,144.9921 109.2628,144.5421 109.4618,144.2141 C109.5958,143.9951 109.6568,143.8961 109.7198,143.5691 C109.8628,142.8351 110.0198,142.4461 110.1468,142.1331 C110.2478,141.8801 110.3228,141.6991 110.4098,141.2481 C110.5428,140.5641 110.6598,140.2091 110.7628,139.8981 C110.8488,139.6371 110.9228,139.4111 111.0198,138.9131 C111.1288,138.3521 111.1738,138.0681 111.2188,137.7841 C111.2688,137.4721 111.3188,137.1611 111.4388,136.5411 C111.5508,135.9671 111.5988,135.6811 111.6468,135.3921 C111.6968,135.0861 111.7478,134.7791 111.8658,134.1721 C111.9828,133.5731 112.0468,133.2711 112.1108,132.9731 C112.1728,132.6821 112.2348,132.3941 112.3478,131.8111 C112.4068,131.5121 112.3868,131.4181 112.3348,131.1661 C112.2548,130.7741 112.1448,130.2351 112.3168,129.3511 C112.3968,128.9431 112.3868,128.7711 112.3708,128.5101 C112.3518,128.1511 112.3268,127.7021 112.4768,126.9271 C112.6898,125.8391 113.2798,125.3141 113.6328,124.9991 C113.6978,124.9421 113.7948,124.8551 113.8138,124.8261 L113.8468,124.6701 C113.8378,124.6431 113.7798,124.5331 113.7378,124.4521 C113.5088,124.0211 113.1248,123.2981 113.3418,122.1861 C113.5088,121.3301 113.7848,120.8801 113.9848,120.5521 C114.1188,120.3331 114.1788,120.2341 114.2428,119.9081 C114.3908,119.1471 114.5708,118.7451 114.7158,118.4231 C114.8258,118.1791 114.8978,118.0171 114.9798,117.5971 C115.0468,117.2511 115.0298,117.1231 114.9948,116.8681 C114.9428,116.4971 114.8708,115.9901 115.0348,115.1531 C115.1848,114.3841 115.3708,113.9811 115.5218,113.6571 C115.6318,113.4181 115.7048,113.2601 115.7858,112.8491 C115.9338,112.0871 116.1138,111.6881 116.2578,111.3661 C116.3678,111.1211 116.4408,110.9601 116.5218,110.5401 C116.5758,110.2671 116.5578,110.1911 116.4978,109.9381 C116.4098,109.5581 116.2748,108.9841 116.4508,108.0771 C116.5368,107.6361 116.5348,107.4431 116.5308,107.1751 C116.5268,106.8321 116.5218,106.4071 116.6648,105.6651 C116.8028,104.9581 116.9348,104.5961 117.0498,104.2761 C117.1438,104.0171 117.2178,103.8121 117.3108,103.3351 C117.4368,102.6921 117.5238,102.3741 117.6098,102.0571 C117.6818,101.7921 117.7538,101.5281 117.8588,100.9911 C117.9338,100.6071 117.9198,100.4511 117.8968,100.1941 C117.8668,99.8411 117.8238,99.3591 117.9788,98.5591 C118.1868,97.4941 118.7438,96.9681 119.0768,96.6551 C119.2658,96.4761 119.2658,96.4761 119.2878,96.3581 C119.3818,95.8811 119.3898,95.6631 119.4008,95.3881 C119.4128,95.0481 119.4278,94.6621 119.5648,93.9571 C119.6758,93.3881 119.7228,93.1021 119.7698,92.8161 C119.8198,92.5061 119.8708,92.1981 119.9898,91.5831 C120.0888,91.0751 120.1088,90.8331 120.1298,90.5541 C120.1568,90.2311 120.1848,89.8661 120.3158,89.1931 C120.3928,88.7951 120.3818,88.6361 120.3628,88.3711 C120.3358,88.0051 120.3028,87.5491 120.4558,86.7611 C120.6408,85.8131 121.0298,85.3221 121.2858,84.9951 C121.4468,84.7911 121.4798,84.7491 121.5258,84.5141 C121.6018,84.1211 121.5898,83.9621 121.5698,83.7011 C121.5408,83.3311 121.5058,82.8731 121.6598,82.0811 C121.7158,81.7901 121.6978,81.7041 121.6438,81.4491 C121.5628,81.0751 121.4418,80.5081 121.6158,79.6151 C121.8218,78.5581 122.3688,78.0341 122.6948,77.7191 C122.8818,77.5381 122.8818,77.5381 122.9068,77.4131 C122.9408,77.2411 122.9368,77.2311 122.8398,76.9771 C122.6888,76.5791 122.4368,75.9141 122.6328,74.9031 C122.7948,74.0711 123.0458,73.6281 123.2288,73.3051 C123.3578,73.0771 123.4218,72.9631 123.4908,72.6111 C123.6298,71.8921 123.7768,71.5081 123.8938,71.1991 C123.9908,70.9471 124.0658,70.7461 124.1568,70.2811 C124.1938,70.0901 124.1868,70.0691 124.0968,69.8151 C123.9498,69.3981 123.7258,68.7691 123.9188,67.7751 C124.1178,66.7571 124.6078,66.2341 124.9008,65.9201 C125.0898,65.7181 125.0928,65.7141 125.1258,65.5441 C125.1668,65.3341 125.1568,65.3021 125.0738,65.0461 C124.9398,64.6371 124.7368,64.0181 124.9268,63.0411 C125.0858,62.2281 125.8828,61.7001 126.6868,61.8571 C127.4998,62.0151 128.0308,62.8031 127.8718,63.6161 C127.8298,63.8261 127.8408,63.8601 127.9248,64.1151 C128.0588,64.5241 128.2608,65.1421 128.0718,66.1181 C127.8728,67.1351 127.3828,67.6591 127.0898,67.9711 C126.9008,68.1731 126.8978,68.1771 126.8648,68.3471 C126.8278,68.5381 126.8338,68.5591 126.9238,68.8141 C127.0718,69.2301 127.2948,69.8601 127.1018,70.8541 C126.9618,71.5731 126.8158,71.9561 126.6988,72.2651 C126.6018,72.5181 126.5268,72.7181 126.4358,73.1841 C126.2738,74.0161 126.0228,74.4591 125.8398,74.7831 C125.7108,75.0091 125.6468,75.1231 125.5788,75.4761 C125.5438,75.6491 125.5478,75.6591 125.6448,75.9121 C125.7958,76.3101 126.0478,76.9751 125.8518,77.9871 C125.6468,79.0431 125.0998,79.5691 124.7738,79.8821 C124.5848,80.0641 124.5848,80.0641 124.5608,80.1891 C124.5038,80.4801 124.5228,80.5661 124.5778,80.8221 C124.6578,81.1961 124.7788,81.7621 124.6048,82.6551 C124.5278,83.0471 124.5398,83.2051 124.5608,83.4681 C124.5888,83.8361 124.6248,84.2951 124.4708,85.0861 C124.2868,86.0341 123.8988,86.5281 123.6418,86.8531 C123.4808,87.0581 123.4468,87.1001 123.4018,87.3341 C123.3248,87.7311 123.3348,87.8911 123.3548,88.1561 C123.3808,88.5221 123.4138,88.9781 123.2608,89.7651 C123.1618,90.2721 123.1428,90.5131 123.1208,90.7911 C123.0948,91.1151 123.0658,91.4811 122.9348,92.1571 C122.8238,92.7261 122.7768,93.0131 122.7298,93.2991 C122.6798,93.6081 122.6288,93.9161 122.5098,94.5311 C122.4158,95.0081 122.4088,95.2261 122.3978,95.5011 C122.3848,95.8411 122.3698,96.2261 122.2338,96.9321 C122.0258,97.9961 121.4688,98.5221 121.1358,98.8361 C120.9468,99.0141 120.9468,99.0141 120.9238,99.1331 C120.8488,99.5161 120.8628,99.6721 120.8858,99.9291 C120.9158,100.2821 120.9588,100.7641 120.8038,101.5641 C120.6778,102.2101 120.5908,102.5281 120.5038,102.8471 C120.4318,103.1111 120.3598,103.3751 120.2558,103.9091 C120.1188,104.6151 119.9868,104.9771 119.8708,105.2971 C119.7778,105.5561 119.7038,105.7611 119.6108,106.2381 C119.5248,106.6761 119.5278,106.8701 119.5308,107.1381 C119.5358,107.4811 119.5398,107.9081 119.3958,108.6511 C119.3418,108.9251 119.3598,109.0011 119.4188,109.2541 C119.5078,109.6341 119.6428,110.2081 119.4668,111.1151 C119.3188,111.8751 119.1388,112.2751 118.9948,112.5961 C118.8848,112.8401 118.8118,113.0011 118.7308,113.4211 C118.5808,114.1911 118.3938,114.5941 118.2438,114.9181 C118.1328,115.1581 118.0598,115.3161 117.9798,115.7271 C117.9118,116.0721 117.9298,116.2001 117.9648,116.4541 C118.0168,116.8261 118.0878,117.3331 117.9248,118.1711 C117.7768,118.9321 117.5958,119.3311 117.4518,119.6541 C117.3418,119.8981 117.2698,120.0591 117.1878,120.4801 C117.0208,121.3371 116.7458,121.7871 116.5448,122.1161 C116.4118,122.3341 116.3508,122.4341 116.2868,122.7601 C116.2868,122.8571 116.3448,122.9661 116.3878,123.0461 C116.6168,123.4781 116.9988,124.2001 116.7838,125.3111 C116.5708,126.4001 115.9808,126.9261 115.6268,127.2401 C115.5628,127.2971 115.4648,127.3851 115.4468,127.4131 C115.3418,127.9091 115.3518,128.0801 115.3678,128.3411 C115.3868,128.7011 115.4118,129.1491 115.2618,129.9241 C115.2038,130.2201 115.2228,130.3141 115.2748,130.5661 C115.3558,130.9591 115.4648,131.4981 115.2928,132.3841 C115.1738,132.9941 115.1098,133.2961 115.0438,133.6011 C114.9838,133.8861 114.9218,134.1731 114.8108,134.7451 C114.7008,135.3101 114.6538,135.5971 114.6058,135.8821 C114.5548,136.1921 114.5038,136.4991 114.3838,137.1161 C114.2728,137.6841 114.2278,137.9691 114.1818,138.2551 C114.1328,138.5641 114.0838,138.8731 113.9648,139.4871 C113.8308,140.1711 113.7148,140.5251 113.6118,140.8371 C113.5258,141.0981 113.4518,141.3241 113.3548,141.8221 C113.2118,142.5541 113.0548,142.9441 112.9278,143.2571 C112.8268,143.5091 112.7518,143.6921 112.6648,144.1411 C112.4988,144.9961 112.2248,145.4471 112.0248,145.7751 C111.8908,145.9931 111.8298,146.0941 111.7668,146.4211 C111.6548,146.9941 111.6048,147.2831 111.5558,147.5721 C111.5028,147.8761 111.4518,148.1821 111.3328,148.7891 C111.2658,149.1361 111.2838,149.2641 111.3178,149.5201 C111.3688,149.8891 111.4368,150.3961 111.2748,151.2301 C111.1068,152.0941 110.8228,152.5461 110.6158,152.8771 C110.4778,153.0961 110.4208,153.1871 110.3598,153.5041 C110.3338,153.6321 110.3338,153.6321 110.4408,153.8731 C110.6218,154.2851 110.9258,154.9741 110.7208,156.0271 C110.5098,157.1081 109.9278,157.6341 109.5808,157.9491 C109.3938,158.1181 109.3938,158.1181 109.3738,158.2171 C109.3308,158.4371 109.3438,158.4751 109.4218,158.7271 C109.5498,159.1311 109.7418,159.7431 109.5538,160.7071 C109.4608,161.1831 109.4538,161.4011 109.4428,161.6751 C109.4308,162.0151 109.4158,162.4011 109.2798,163.1061 C109.0788,164.1291 108.5788,164.6511 108.2818,164.9631 C108.0908,165.1611 108.0908,165.1611 108.0608,165.3201 C108.0138,165.5601 108.0288,165.6131 108.0998,165.8651 C108.2108,166.2601 108.3798,166.8571 108.1968,167.7981 C108.1068,168.2601 108.1018,168.4721 108.0968,168.7411 C108.0908,169.0701 108.0828,169.4811 107.9438,170.1991 C107.7368,171.2621 107.1808,171.7871 106.8478,172.1021 C106.6608,172.2791 106.6608,172.2791 106.6378,172.3961 C106.6328,172.5241 106.6908,172.6411 106.7288,172.7191 C106.9358,173.1421 107.2818,173.8491 107.0708,174.9341 C106.9298,175.6531 106.7838,176.0361 106.6648,176.3441 C106.5698,176.5961 106.4938,176.7941 106.4038,177.2571 C106.2638,177.9741 105.6358,178.4721 104.9328,178.4721" id="Fill-137" fill="#000"/></g></g></g></g><g id="Upper Body" transform="translate(-1.000000, 0.000000) scale(1 1)"><g id="Upper Body/Laptop" stroke="none" stroke-width="1" fill="none" fill-rule="evenodd"><g id="Group-691" transform="translate(152.500000, 272.500000)"><g id="Group-453" transform="translate(0.000000, 0.095000)"><path d="M241.5489,174.4264 L262.3799,74.3814 C262.3799,74.3814 252.8759,47.1744 212.0979,39.9614 C212.0979,39.9614 211.5509,15.4834 160.0019,15.4834 C108.4529,15.4834 106.8899,38.6954 106.8899,38.6954 C106.8899,38.6954 -4.3451,56.6524 0.2789,139.0164 C0.2789,139.0164 6.1749,190.7654 71.0239,182.9044 C70.9179,185.7814 71.5209,189.0814 73.9719,191.7894 C79.9819,198.4274 91.6929,197.6654 98.3559,196.5624 C101.1019,196.1074 103.8799,196.8674 106.1169,198.5244 C108.6669,200.4134 113.3329,202.5834 121.5689,203.0954 C127.8529,203.4864 132.4689,202.2684 135.7249,200.6984 C139.4069,198.9254 143.7659,199.4444 146.8579,202.1154 C150.5619,205.3184 157.1519,208.6544 168.7689,209.4994 C182.7509,210.5184 189.9819,205.5454 193.5739,201.2484 C196.0219,198.3214 199.8399,196.8864 203.5659,197.7124 C207.7369,198.6374 213.2789,199.0844 218.4979,197.0464 C220.6419,196.2094 223.0059,196.1594 225.1979,196.8604 C230.4509,198.5374 240.5249,200.6714 249.3079,196.2434 C257.8439,191.9404 255.8429,175.1594 241.5489,174.4264" id="Fill-429" fill="#00A378"/><path d="M273.8741,181.274 C273.8741,181.274 301.1821,179.927 301.8441,150.795 C302.5221,120.91 284.6001,114.814 273.8741,114.071 L273.8741,181.274 Z" id="Fill-431" fill="#b02d1c"/><path d="M119.8228,61.6696 C119.6548,61.6696 119.4838,61.6416 119.3168,61.5816 C119.0848,61.4986 118.7918,61.4476 118.4808,61.3946 C117.9548,61.3036 117.3568,61.2006 116.7638,60.8986 C116.5298,60.7806 116.2918,60.6726 116.0558,60.5656 C115.5038,60.3156 114.9328,60.0556 114.3888,59.6776 C114.1598,59.5186 113.9158,59.3746 113.6738,59.2316 C113.1808,58.9396 112.6238,58.6076 112.1398,58.1576 C111.4738,57.5356 110.9048,56.8446 110.3308,56.1316 C109.8228,55.4986 109.6678,54.7816 109.5438,54.2056 C109.4948,53.9796 109.4268,53.6686 109.3678,53.5696 C109.2548,53.3816 109.0548,53.1666 108.8438,52.9396 C108.4708,52.5366 108.0478,52.0806 107.7658,51.4486 C107.4638,50.7696 107.4328,50.0936 107.4078,49.5516 C107.3948,49.2736 107.3828,48.9876 107.3338,48.8346 C107.2928,48.7406 107.0658,48.4956 106.9168,48.3326 C106.5068,47.8896 105.9968,47.3386 105.8268,46.5416 C105.6688,45.8046 105.7738,45.1216 105.8578,44.5726 C105.8978,44.3146 105.9428,44.0216 105.9268,43.8866 C105.8138,42.9666 105.7868,42.1636 105.7628,41.4546 L105.7588,41.3186 C105.7388,40.7736 105.6888,40.5656 105.6348,40.3466 C105.5308,39.9116 105.4568,39.5126 105.5358,38.6786 C105.6128,37.8536 106.3368,37.2416 107.1708,37.3256 C107.9948,37.4036 108.5998,38.1356 108.5218,38.9606 C108.4838,39.3616 108.4998,39.4276 108.5518,39.6426 C108.6428,40.0226 108.7278,40.4286 108.7568,41.2136 L108.7608,41.3526 C108.7828,41.9996 108.8078,42.7326 108.9048,43.5226 C108.9708,44.0676 108.8928,44.5786 108.8228,45.0296 C108.7708,45.3666 108.7178,45.7156 108.7598,45.9126 C108.7828,45.9326 108.9858,46.1516 109.1198,46.2966 C109.4958,46.7036 109.9638,47.2106 110.1908,47.9216 C110.3608,48.4536 110.3848,48.9636 110.4048,49.4136 C110.4198,49.7346 110.4348,50.0666 110.5078,50.2306 C110.5858,50.4046 110.8178,50.6556 111.0438,50.8986 C111.3348,51.2126 111.6648,51.5676 111.9378,52.0216 C112.2548,52.5476 112.3778,53.1156 112.4758,53.5726 C112.5258,53.8066 112.6018,54.1596 112.6708,54.2536 C113.1908,54.8996 113.6658,55.4776 114.1858,55.9646 C114.4318,56.1926 114.8068,56.4156 115.2038,56.6496 C115.5078,56.8306 115.8118,57.0136 116.0998,57.2136 C116.4218,57.4366 116.8468,57.6296 117.2988,57.8346 C117.5718,57.9596 117.8488,58.0856 118.1218,58.2246 C118.3118,58.3206 118.6418,58.3776 118.9908,58.4386 C119.3938,58.5076 119.8508,58.5866 120.3288,58.7576 C121.1078,59.0366 121.5138,59.8956 121.2348,60.6756 C121.0148,61.2876 120.4378,61.6696 119.8228,61.6696" id="Fill-433" fill="#000"/><path d="M202.3526,60.4244 C201.7886,60.4244 201.2476,60.1044 200.9926,59.5584 C200.6416,58.8074 200.9666,57.9144 201.7176,57.5654 C201.9406,57.4604 202.1656,57.3614 202.3886,57.2634 C202.8976,57.0404 203.3766,56.8304 203.7446,56.5864 C203.9586,56.4444 204.1846,56.1544 204.4226,55.8484 C204.6536,55.5524 204.9156,55.2174 205.2426,54.9144 C205.5096,54.6664 205.7946,54.4434 206.0796,54.2234 C206.4166,53.9614 206.7356,53.7144 206.9256,53.4724 C207.1016,53.2484 207.2406,52.8994 207.3886,52.5294 C207.5216,52.1964 207.6716,51.8204 207.8796,51.4514 C208.1536,50.9714 208.4946,50.6014 208.7946,50.2754 C209.0036,50.0484 209.2416,49.7914 209.3006,49.6414 C209.4206,49.3444 209.5536,49.0514 209.6856,48.7604 C209.8926,48.3054 210.0876,47.8754 210.1886,47.5014 C210.2196,47.3834 210.1416,46.9934 210.0946,46.7614 C209.9966,46.2714 209.8846,45.7164 209.9816,45.1084 C210.0636,44.5904 210.2006,44.1354 210.3206,43.7334 C210.4216,43.3934 210.5176,43.0724 210.5306,42.8684 C210.5716,42.1714 210.6306,41.8004 210.6746,41.5294 C210.7196,41.2504 210.7346,41.1554 210.6896,40.6284 C210.6776,40.4924 210.5116,40.1934 210.3786,39.9514 C210.1566,39.5484 209.9036,39.0904 209.7826,38.5264 C209.6616,37.9584 209.6936,37.4174 209.7186,36.9834 C209.7336,36.7274 209.7546,36.3774 209.7116,36.2594 L209.5776,35.8744 C209.3606,35.2564 209.1566,34.6724 208.8986,34.1674 C208.8186,34.0124 208.5716,33.7864 208.3316,33.5704 C208.0116,33.2784 207.6476,32.9474 207.3456,32.5064 C207.1256,32.1844 206.9406,31.8404 206.7576,31.4964 C206.5706,31.1434 206.3936,30.8094 206.1956,30.5794 C205.8216,30.1504 205.5926,29.6754 205.3916,29.2574 C205.2576,28.9824 205.1076,28.6694 204.9916,28.5614 C204.9346,28.5314 204.6316,28.4564 204.4316,28.4064 C203.9176,28.2784 203.2776,28.1194 202.7206,27.6844 C202.4046,27.4364 202.1146,27.1574 201.8266,26.8764 C201.5396,26.5974 201.2676,26.3324 200.9996,26.1554 C200.7706,26.0024 200.4426,25.8764 200.0946,25.7414 C199.7226,25.5984 199.2996,25.4354 198.8836,25.1974 L198.3266,24.8754 C197.8446,24.5954 197.3686,24.3174 196.8656,24.0684 C196.2176,23.7484 195.7966,23.2294 195.4576,22.8124 C195.3276,22.6514 195.1286,22.4064 195.0406,22.3504 C194.8906,22.2874 194.5616,22.2544 194.2426,22.2234 C193.7736,22.1764 193.2416,22.1224 192.6986,21.9184 C192.3556,21.7884 191.9706,21.6934 191.5626,21.5914 C191.1786,21.4954 190.7976,21.3994 190.4266,21.2764 C190.1306,21.1784 189.7736,21.1234 189.3956,21.0674 C189.0016,21.0074 188.5556,20.9394 188.1076,20.8094 C187.7906,20.7174 187.4816,20.6204 187.1746,20.5254 C186.7296,20.3864 186.2906,20.2484 185.8486,20.1364 C185.1716,19.9644 184.6496,19.5904 184.2286,19.2904 C184.0546,19.1654 183.7896,18.9764 183.6886,18.9454 C183.5266,18.9104 183.2046,18.9534 182.8926,18.9974 C182.4066,19.0654 181.8556,19.1404 181.2556,19.0284 C180.5956,18.9034 180.0516,18.6114 179.6156,18.3754 C179.4176,18.2694 179.1206,18.1094 179.0126,18.0914 C178.4136,17.9974 177.8526,17.9354 177.3466,17.8784 L176.6526,17.7984 C176.2116,17.7444 176.1376,17.7744 175.9746,17.8374 C175.5666,17.9984 175.1026,18.1514 174.2786,18.0964 C173.4526,18.0404 172.8276,17.3244 172.8836,16.4984 C172.9386,15.6714 173.6406,15.0434 174.4816,15.1034 C174.6976,15.1164 174.7116,15.1104 174.8726,15.0474 C175.3516,14.8584 175.9146,14.6854 177.0206,14.8204 L177.6806,14.8984 C178.2256,14.9584 178.8306,15.0274 179.4766,15.1274 C180.0916,15.2244 180.5946,15.4954 181.0396,15.7354 C181.3316,15.8934 181.6086,16.0414 181.8106,16.0794 C181.9246,16.1014 182.2486,16.0574 182.4826,16.0254 C183.0016,15.9534 183.6456,15.8644 184.3376,16.0174 C185.0186,16.1664 185.5486,16.5454 185.9746,16.8504 C186.1786,16.9964 186.4576,17.1954 186.5856,17.2284 C187.0796,17.3534 187.5706,17.5064 188.0696,17.6614 C188.3566,17.7514 188.6466,17.8424 188.9416,17.9274 C189.2016,18.0024 189.5136,18.0504 189.8456,18.1004 C190.3076,18.1704 190.8316,18.2504 191.3696,18.4284 C191.6676,18.5274 191.9776,18.6024 192.2886,18.6804 C192.7616,18.7984 193.2506,18.9194 193.7576,19.1114 C193.9316,19.1764 194.2416,19.2074 194.5406,19.2374 C195.0616,19.2894 195.6526,19.3484 196.2536,19.6084 C196.9716,19.9174 197.4226,20.4744 197.7866,20.9214 C197.9176,21.0834 198.1186,21.3284 198.2066,21.3854 C198.7586,21.6574 199.2946,21.9684 199.8346,22.2824 L200.3696,22.5914 C200.5896,22.7174 200.8746,22.8274 201.1756,22.9444 C201.6356,23.1214 202.1576,23.3224 202.6596,23.6554 C203.1596,23.9874 203.5636,24.3814 203.9186,24.7284 C204.1296,24.9334 204.3386,25.1414 204.5696,25.3204 C204.6476,25.3684 204.9546,25.4454 205.1566,25.4954 C205.7346,25.6394 206.4546,25.8194 207.0446,26.3734 C207.5666,26.8624 207.8586,27.4674 208.0926,27.9534 C208.2186,28.2154 208.3496,28.4864 208.4606,28.6134 C208.8846,29.1024 209.1636,29.6274 209.4096,30.0914 C209.5396,30.3374 209.6666,30.5844 209.8236,30.8144 C209.9256,30.9644 210.1316,31.1514 210.3496,31.3494 C210.7466,31.7094 211.2406,32.1584 211.5696,32.8014 C211.9206,33.4884 212.1686,34.1974 212.4096,34.8844 L212.5386,35.2524 C212.7856,35.9454 212.7456,36.6184 212.7136,37.1594 C212.6976,37.4404 212.6796,37.7304 212.7156,37.8994 C212.7446,38.0284 212.8826,38.2794 213.0046,38.5014 C213.2756,38.9904 213.6116,39.6004 213.6776,40.3704 C213.7496,41.2074 213.7106,41.5474 213.6356,42.0084 C213.6016,42.2244 213.5566,42.5024 213.5246,43.0444 C213.4926,43.5974 213.3406,44.1034 213.1946,44.5934 C213.0916,44.9354 212.9956,45.2594 212.9446,45.5784 C212.9356,45.6734 212.9966,45.9724 213.0366,46.1694 C213.1536,46.7554 213.2996,47.4854 213.0846,48.2814 C212.9206,48.8924 212.6656,49.4554 212.4166,50.0004 C212.3026,50.2514 212.1876,50.5044 212.0846,50.7594 C211.8206,51.4194 211.3666,51.9124 211.0006,52.3094 C210.7906,52.5364 210.5916,52.7524 210.4896,52.9324 C210.3656,53.1524 210.2726,53.3974 210.1746,53.6424 C209.9646,54.1664 209.7276,54.7614 209.2856,55.3244 C208.8666,55.8594 208.3616,56.2494 207.9156,56.5944 C207.7016,56.7614 207.4826,56.9284 207.2796,57.1154 C207.1306,57.2534 206.9646,57.4674 206.7896,57.6934 C206.4486,58.1294 206.0256,58.6724 205.4046,59.0854 C204.8206,59.4734 204.1976,59.7464 203.5946,60.0114 C203.3926,60.1004 203.1886,60.1894 202.9856,60.2834 C202.7806,60.3794 202.5646,60.4244 202.3526,60.4244" id="Fill-435" fill="#000"/><path d="M159.5821,72.0865 C159.5451,72.0865 159.5091,72.0845 159.4731,72.0825 C158.6461,72.0235 158.0241,71.3055 158.0841,70.4785 L158.9271,58.7765 C158.9861,57.9495 159.7451,57.3345 160.5301,57.3885 C161.3561,57.4475 161.9781,58.1655 161.9191,58.9925 L161.0761,70.6935 C161.0191,71.4835 160.3611,72.0865 159.5821,72.0865" id="Fill-437" fill="#000"/><path d="M175.6026,72.0865 C174.9206,72.0865 174.3046,71.6195 174.1426,70.9285 L171.4016,59.2275 C171.2126,58.4205 171.7136,57.6125 172.5206,57.4245 C173.3196,57.2345 174.1336,57.7355 174.3236,58.5425 L177.0646,70.2435 C177.2526,71.0505 176.7516,71.8575 175.9456,72.0465 C175.8316,72.0735 175.7156,72.0865 175.6026,72.0865" id="Fill-439" fill="#000"/><path d="M60.378,185.4069 C59.747,185.4069 59.191,185.2019 58.739,185.0359 C58.474,184.9379 58.173,184.8279 58.02,184.8279 L58.018,184.8279 C57.75,184.8289 57.437,184.8689 57.106,184.9119 C56.654,184.9699 56.16,185.0339 55.59,185.0249 L54.933,185.0139 C54.353,185.0059 53.762,184.9959 53.158,184.9689 C52.883,184.9559 52.606,184.9469 52.327,184.9379 C51.799,184.9219 51.265,184.9029 50.723,184.8639 C50.444,184.8449 50.125,184.8609 49.784,184.8789 C49.328,184.9029 48.813,184.9289 48.271,184.8749 C48.048,184.8519 47.745,184.8859 47.424,184.9229 C46.938,184.9769 46.387,185.0389 45.79,184.9589 C45.23,184.8849 44.728,184.7109 44.284,184.5569 C43.964,184.4459 43.661,184.3419 43.404,184.2989 C42.776,184.1919 42.265,183.9349 41.813,183.7089 C41.533,183.5679 41.27,183.4349 41.082,183.3959 C40.819,183.3429 40.506,183.3219 40.174,183.3019 C39.708,183.2709 39.181,183.2379 38.634,183.0999 C38.028,182.9479 37.538,182.6669 37.106,182.4189 C36.834,182.2629 36.577,182.1159 36.377,182.0549 C36.277,182.0339 35.962,182.0679 35.755,182.0909 C35.205,182.1519 34.519,182.2259 33.805,181.9699 C33.152,181.7349 32.665,181.3179 32.274,180.9839 C32.068,180.8079 31.835,180.6089 31.695,180.5499 C31.537,180.4809 31.241,180.4429 30.955,180.4049 C30.452,180.3399 29.827,180.2589 29.224,179.9499 C28.996,179.8339 28.706,179.7329 28.399,179.6269 C27.922,179.4609 27.383,179.2739 26.87,178.9599 C26.164,178.5259 25.942,177.6019 26.376,176.8959 C26.809,176.1899 27.732,175.9699 28.439,176.4019 C28.674,176.5469 29.019,176.6659 29.382,176.7929 C29.755,176.9219 30.178,177.0679 30.59,177.2789 C30.73,177.3509 31.055,177.3929 31.342,177.4299 C31.809,177.4909 32.337,177.5599 32.879,177.7929 C33.438,178.0319 33.873,178.4039 34.223,178.7029 C34.44,178.8879 34.686,179.0979 34.822,179.1479 C34.906,179.1649 35.221,179.1319 35.428,179.1089 C35.941,179.0529 36.578,178.9819 37.244,179.1829 C37.773,179.3429 38.211,179.5949 38.598,179.8159 C38.888,179.9819 39.161,180.1389 39.365,180.1909 C39.646,180.2609 39.995,180.2839 40.365,180.3069 C40.767,180.3329 41.222,180.3619 41.691,180.4589 C42.264,180.5779 42.739,180.8159 43.159,181.0269 C43.435,181.1659 43.72,181.3089 43.902,181.3399 C44.405,181.4249 44.862,181.5829 45.266,181.7219 C45.606,181.8399 45.926,181.9509 46.186,181.9849 C46.419,182.0169 46.746,181.9799 47.09,181.9409 C47.534,181.8919 48.038,181.8359 48.573,181.8899 C48.885,181.9219 49.245,181.9019 49.627,181.8829 C50.044,181.8609 50.478,181.8399 50.94,181.8719 C51.441,181.9089 51.936,181.9239 52.424,181.9399 C52.716,181.9489 53.007,181.9589 53.295,181.9709 C53.867,181.9979 54.428,182.0069 54.979,182.0139 L55.651,182.0259 C55.967,182.0339 56.339,181.9859 56.721,181.9359 C57.129,181.8839 57.551,181.8299 58.005,181.8279 L58.021,181.8279 C58.708,181.8279 59.3,182.0459 59.776,182.2209 C59.975,182.2939 60.274,182.4039 60.377,182.4069 C60.596,182.4009 60.9,182.2939 61.224,182.1809 C61.657,182.0289 62.149,181.8569 62.708,181.8279 C63.194,181.8019 63.653,181.8079 64.082,181.8149 C64.432,181.8209 64.758,181.8279 65.055,181.8039 C65.716,181.7529 66.036,181.7359 66.279,181.7219 C66.576,181.7069 66.747,181.6969 67.379,181.6269 C68.306,181.5219 68.877,181.6999 69.253,181.8179 C69.511,181.8989 69.597,181.9279 69.9,181.8929 C70.151,181.8669 70.198,181.8359 70.427,181.6849 C70.778,181.4529 71.311,181.1019 72.285,180.9979 C72.958,180.9259 73.297,180.9159 73.636,180.9059 C73.916,180.8979 74.197,180.8889 74.754,180.8299 C75.541,180.7469 75.986,180.8019 76.345,180.8469 C76.618,180.8819 76.8,180.9069 77.239,180.8579 C77.783,180.7999 78.052,180.7449 78.321,180.6899 C78.66,180.6209 78.999,180.5519 79.684,180.4779 C80.36,180.4059 80.702,180.3979 81.044,180.3899 C81.322,180.3839 81.601,180.3779 82.152,180.3179 C82.438,180.2879 82.507,180.2469 82.737,180.1079 C83.082,179.9019 83.603,179.5909 84.543,179.4889 C85.197,179.4199 85.527,179.4029 85.857,179.3859 C86.145,179.3709 86.433,179.3559 87.006,179.2949 C88.062,179.1809 88.723,179.5159 89.117,179.7169 C89.374,179.8469 89.382,179.8469 89.55,179.8309 C90.199,179.7609 90.524,179.7409 90.85,179.7209 C91.143,179.7029 91.435,179.6849 92.016,179.6229 L94.474,179.3619 C94.891,179.3169 95.046,179.2569 95.303,179.1559 C95.652,179.0199 96.087,178.8499 96.901,178.7629 C97.171,178.7339 97.232,178.6959 97.46,178.5529 C97.81,178.3309 98.338,177.9969 99.3,177.8939 C100.129,177.8129 100.863,178.4019 100.951,179.2259 C101.04,180.0499 100.443,180.7889 99.62,180.8779 C99.351,180.9059 99.289,180.9449 99.062,181.0889 C98.712,181.3089 98.184,181.6429 97.222,181.7469 C96.805,181.7909 96.649,181.8509 96.393,181.9519 C96.043,182.0879 95.608,182.2579 94.794,182.3439 L92.335,182.6059 C91.686,182.6759 91.36,182.6959 91.035,182.7159 C90.742,182.7339 90.45,182.7519 89.869,182.8139 C88.818,182.9289 88.153,182.5919 87.759,182.3909 C87.502,182.2609 87.496,182.2599 87.325,182.2779 C86.67,182.3479 86.34,182.3649 86.01,182.3819 C85.722,182.3959 85.435,182.4109 84.862,182.4719 C84.578,182.5029 84.509,182.5449 84.278,182.6819 C83.934,182.8879 83.412,183.2009 82.472,183.3019 C81.795,183.3739 81.454,183.3819 81.113,183.3889 C80.834,183.3959 80.556,183.4019 80.003,183.4619 C79.459,183.5199 79.19,183.5749 78.921,183.6299 C78.582,183.6989 78.243,183.7679 77.559,183.8419 C76.772,183.9269 76.324,183.8689 75.968,183.8239 C75.693,183.7899 75.513,183.7659 75.072,183.8129 C74.4,183.8859 74.062,183.8949 73.723,183.9049 C73.442,183.9129 73.161,183.9219 72.605,183.9809 C72.354,184.0079 72.307,184.0389 72.078,184.1889 C71.727,184.4219 71.194,184.7719 70.22,184.8769 C69.298,184.9769 68.731,184.7989 68.357,184.6809 C68.101,184.6009 68.018,184.5739 67.713,184.6079 C66.981,184.6899 66.783,184.6999 66.44,184.7189 C66.211,184.7299 65.91,184.7469 65.29,184.7959 C64.905,184.8259 64.489,184.8209 64.035,184.8149 C63.672,184.8079 63.28,184.8019 62.864,184.8239 C62.735,184.8309 62.459,184.9279 62.215,185.0119 C61.739,185.1789 61.147,185.3859 60.458,185.4059 C60.431,185.4069 60.404,185.4069 60.378,185.4069" id="Fill-441" fill="#000"/><path d="M62.0967,114.5406 C61.2357,114.5406 60.7447,114.3706 60.3877,114.2476 C60.1417,114.1616 60.0177,114.1186 59.6607,114.1186 C59.2727,114.1186 59.1307,114.1616 58.8737,114.2386 C58.5277,114.3436 58.0527,114.4856 57.2227,114.4856 C56.1767,114.4856 55.5647,114.0966 55.1997,113.8636 C54.9637,113.7136 54.9587,113.7106 54.7867,113.7106 C54.2157,113.7106 53.9307,113.7256 53.6447,113.7386 C53.3227,113.7556 52.9987,113.7706 52.3537,113.7706 C52.0637,113.7706 51.9837,113.8076 51.7447,113.9126 C51.3867,114.0726 50.8447,114.3136 49.9167,114.3136 C49.1617,114.3136 48.7437,114.2316 48.4097,114.1656 C48.1387,114.1126 47.9437,114.0736 47.4807,114.0736 C47.1257,114.0736 47.0027,114.1166 46.7577,114.2026 C46.4007,114.3266 45.9097,114.4976 45.0477,114.4976 C44.1707,114.4976 43.6737,114.3126 43.3107,114.1796 C43.0677,114.0886 42.9557,114.0476 42.6177,114.0476 C41.9447,114.0476 41.6087,114.0186 41.2727,113.9896 C40.9997,113.9666 40.7277,113.9426 40.1837,113.9426 C39.7937,113.9426 39.6527,113.9846 39.3947,114.0616 C39.0487,114.1646 38.5757,114.3066 37.7467,114.3066 C36.8787,114.3066 36.3857,114.1316 36.0267,114.0036 C35.7757,113.9136 35.6607,113.8736 35.3107,113.8736 C34.4827,113.8736 33.8107,113.2016 33.8107,112.3736 C33.8107,111.5446 34.4827,110.8736 35.3107,110.8736 C36.1777,110.8736 36.6707,111.0486 37.0307,111.1766 C37.2817,111.2656 37.3967,111.3066 37.7467,111.3066 C38.1377,111.3066 38.2797,111.2636 38.5367,111.1866 C38.8827,111.0836 39.3557,110.9426 40.1837,110.9426 C40.8567,110.9426 41.1927,110.9716 41.5287,111.0006 C41.8007,111.0236 42.0737,111.0476 42.6177,111.0476 C43.4927,111.0476 43.9907,111.2306 44.3527,111.3656 C44.5977,111.4556 44.7087,111.4976 45.0477,111.4976 C45.4027,111.4976 45.5267,111.4546 45.7717,111.3686 C46.1287,111.2446 46.6187,111.0736 47.4807,111.0736 C48.2367,111.0736 48.6547,111.1566 48.9897,111.2226 C49.2597,111.2756 49.4547,111.3136 49.9167,111.3136 C50.2067,111.3136 50.2857,111.2786 50.5247,111.1726 C50.8827,111.0136 51.4247,110.7706 52.3537,110.7706 C52.9247,110.7706 53.2097,110.7576 53.4957,110.7426 C53.8187,110.7276 54.1417,110.7106 54.7867,110.7106 C55.8327,110.7106 56.4457,111.1006 56.8107,111.3336 C57.0457,111.4826 57.0507,111.4856 57.2227,111.4856 C57.6117,111.4856 57.7517,111.4436 58.0087,111.3666 C58.3557,111.2626 58.8297,111.1186 59.6607,111.1186 C60.5227,111.1186 61.0127,111.2886 61.3697,111.4126 C61.6167,111.4976 61.7407,111.5406 62.0967,111.5406 C62.6357,111.5406 62.9057,111.5156 63.1747,111.4896 C63.5147,111.4586 63.8547,111.4266 64.5347,111.4266 C65.1177,111.4266 65.4097,111.4156 65.7007,111.4056 C66.0177,111.3946 66.3357,111.3836 66.9717,111.3836 C67.4397,111.3836 67.6367,111.3456 67.9087,111.2936 C68.2427,111.2286 68.6587,111.1496 69.4107,111.1496 L71.8487,111.1546 C72.2087,111.1546 72.3327,111.1116 72.5817,111.0266 C72.9397,110.9046 73.4287,110.7366 74.2877,110.7366 C75.1347,110.7366 75.6177,110.8936 75.9697,111.0076 C76.2177,111.0876 76.3547,111.1326 76.7287,111.1326 C77.5647,111.1326 78.0417,111.2806 78.3907,111.3896 C78.6437,111.4676 78.7827,111.5116 79.1627,111.5116 C79.4577,111.5116 79.5387,111.4756 79.7807,111.3696 C80.1377,111.2136 80.6777,110.9776 81.6017,110.9776 C82.4507,110.9776 82.9347,111.1346 83.2867,111.2496 C83.5427,111.3326 83.6707,111.3746 84.0417,111.3746 C84.6677,111.3746 84.9807,111.3816 85.2937,111.3886 C85.5907,111.3946 85.8887,111.3996 86.4837,111.3996 C86.6867,111.3996 86.7107,111.3866 86.9467,111.2486 C87.3287,111.0236 87.9087,110.6856 88.9257,110.6856 C90.0017,110.6856 90.6237,111.1116 90.9957,111.3666 C91.2247,111.5226 91.2247,111.5226 91.3707,111.5226 C91.7647,111.5226 91.9077,111.4796 92.1667,111.4026 C92.5137,111.3006 92.9887,111.1586 93.8177,111.1586 C94.6457,111.1586 95.3177,111.8306 95.3177,112.6586 C95.3177,113.4876 94.6457,114.1586 93.8177,114.1586 C93.4247,114.1586 93.2817,114.2016 93.0227,114.2786 C92.6757,114.3816 92.2007,114.5226 91.3707,114.5226 C90.2947,114.5226 89.6727,114.0966 89.3007,113.8416 C89.0727,113.6856 89.0727,113.6856 88.9257,113.6856 C88.7217,113.6856 88.6977,113.6986 88.4617,113.8366 C88.0787,114.0616 87.5007,114.3996 86.4837,114.3996 C85.8577,114.3996 85.5447,114.3946 85.2317,114.3876 C84.9347,114.3816 84.6367,114.3746 84.0417,114.3746 C83.1937,114.3746 82.7097,114.2176 82.3577,114.1026 C82.1017,114.0196 81.9737,113.9776 81.6017,113.9776 C81.3057,113.9776 81.2247,114.0126 80.9837,114.1176 C80.6257,114.2746 80.0867,114.5116 79.1627,114.5116 C78.3257,114.5116 77.8487,114.3616 77.4987,114.2536 C77.2467,114.1756 77.1087,114.1326 76.7287,114.1326 C75.8807,114.1326 75.3987,113.9766 75.0457,113.8616 C74.7977,113.7816 74.6607,113.7366 74.2877,113.7366 C73.9277,113.7366 73.8037,113.7796 73.5547,113.8646 C73.1977,113.9876 72.7077,114.1546 71.8487,114.1546 L69.4107,114.1496 C68.9437,114.1496 68.7457,114.1866 68.4737,114.2396 C68.1397,114.3036 67.7237,114.3836 66.9717,114.3836 C66.3887,114.3836 66.0967,114.3936 65.8057,114.4036 C65.4887,114.4146 65.1697,114.4266 64.5347,114.4266 C63.9947,114.4266 63.7257,114.4516 63.4557,114.4776 C63.1167,114.5096 62.7767,114.5406 62.0967,114.5406" id="Fill-443" fill="#000"/><path d="M88.6358,105.8483 C88.6358,105.8483 63.4068,110.9093 59.4538,135.1013 C55.9698,156.4213 64.5138,178.4283 90.6048,181.2743 L88.6358,105.8483 Z" id="Fill-445" fill="#b02d1c"/><path d="M86.0939984,74.0543 L88.4808,185.8853 C88.5198,187.7163 90.0148,189.1803 91.8468,189.1803 L270.5068,189.1803 C272.3668,189.1803 273.8738,187.6733 273.8738,185.8143 L273.8738,75.5063 C273.8738,73.6583 272.3838,72.1553 270.5358,72.1393 L89.4898,70.6161621 C87.5908,70.5993 86.0538,72.1563 86.0939984,74.0543" id="Fill-447" fill="#F8FBF8"/><path d="M94.8738,74.0543 L97.1490047,185.8853 C97.1861813,187.7163 98.6112813,189.1803 100.357625,189.1803 L270.664227,189.1803 C272.437261,189.1803 273.8738,187.6733 273.8738,185.8143 L273.8738,75.5063 C273.8738,73.6583 272.453466,72.1553 270.691871,72.1393 L98.1108281,70.6161621 C96.3006174,70.5993 94.8354811,72.1563 94.8738,74.0543" id="Fill-447-Copy" fill="#AFDCFD"/><path d="M176.1475,0.9069 L164.7485,0.9069 C159.5945,0.9069 155.2085,4.6009 154.2925,9.6419 C154.2825,9.7049 154.2735,9.7649 154.2635,9.8289 L154.2585,9.8619 L154.2585,9.8629 C154.2215,10.1079 154.1835,10.3579 154.1455,10.6069 C152.8195,19.3479 151.1815,30.0589 151.1815,30.0589 L186.6145,30.0589 L186.6865,22.2939 L186.7845,11.6419 C186.8385,5.7289 182.0605,0.9069 176.1475,0.9069" id="Fill-449" fill="#b02d1c"/><path d="M186.6143,30.0592 C172.7393,29.0832 168.9483,26.1082 169.0823,23.6312 C169.2013,21.4132 171.2863,21.7222 172.1973,21.7432 C176.2113,21.8322 186.6863,22.2932 186.6863,22.2932" id="Fill-451" fill="#430000"/></g></g><circle id="Oval" fill="#F8FBF8" cx="342.5" cy="405.5" r="11.5"/><path d="M223.5,449 L248,449 L248,449 L248,462 L223.5,462 C219.910149,462 217,459.089851 217,455.5 C217,451.910149 219.910149,449 223.5,449 Z" id="Rectangle" fill="#F8FBF8"/></g></g><g id="Head" transform="translate(204.000000, 145.000000) scale(1 1)"><g id="Head/Dreadlocks" stroke="none" stroke-width="1" fill="none" fill-rule="evenodd"><g id="Group-183" transform="translate(44.000000, 49.000000)"><g id="Group-110" transform="translate(0.000000, 0.738000)"><path d="M108.8612,74.1481 C107.8672,71.0971 102.5382,69.3411 98.8292,68.4721 C97.4172,62.2891 95.8602,56.5871 94.4562,53.9631 C91.7522,48.9061 83.5052,43.5911 70.3162,45.6321 C61.5592,46.9881 52.2332,55.1571 58.2902,69.3771 C58.2902,69.3771 60.0232,72.8251 59.1942,78.5091 C59.1022,79.1351 58.9722,80.0101 58.8162,81.0511 L58.8152,81.0591 C58.5522,82.8191 58.2112,85.0751 57.8382,87.5401 C57.8282,87.6021 57.8192,87.6631 57.8092,87.7261 L57.8042,87.7601 C57.7672,88.0051 57.7292,88.2551 57.6912,88.5041 C57.4622,91.0941 58.1682,99.5701 77.2452,99.6671 L90.2322,100.1921 L90.4292,100.2001 C90.4292,100.2001 94.7812,100.1511 97.4152,100.1511 C102.8882,100.1511 103.8292,94.9321 103.2152,91.0701 C102.9972,89.7031 102.2812,85.4831 101.2912,80.3131 C104.7592,79.3551 109.9072,77.3621 108.8612,74.1481" id="Fill-104" fill="#b02d1c"/><path d="M72.1664,65.7428 C72.0704,66.8358 68.1784,67.6938 67.0824,67.7218 C65.1144,67.7738 62.1164,68.2678 60.5604,70.6008 C59.0834,72.8168 59.5084,76.2618 62.4614,78.5928 C64.4224,80.1408 64.2094,83.1678 62.0054,84.3458 L57.9644,86.5058 C57.9644,86.5058 53.5774,75.5898 51.8034,68.6058 C51.8034,68.6058 12.3424,82.7658 7.2434,75.9638 C2.1444,69.1608 25.0854,62.6658 48.5894,60.2928 C48.5894,60.2928 30.1884,59.5158 13.8944,56.9678 C-2.6466,54.3798 -5.1716,40.6708 17.2194,43.9968 C39.6104,47.3238 50.1414,54.6388 50.1414,54.6388 C50.1414,54.6388 33.1814,42.1138 26.5304,28.7008 C19.8794,15.2888 41.3914,20.7408 55.9094,45.3488 C55.9094,45.3488 43.2684,12.9608 50.8064,6.4208 C58.3434,-0.1182 67.0784,30.3988 66.4124,40.7078 C66.4124,40.7078 69.2534,0.6958 85.8334,0.6958 C94.9234,0.6958 98.9664,9.4738 79.9014,40.0678 C79.9014,40.0678 105.6464,5.2018 118.0904,16.2868 C128.5874,25.6368 91.8844,42.5548 91.8844,42.5548 C91.8844,42.5548 131.5104,33.8178 128.9534,47.2128 C126.6254,59.4058 94.5454,51.8168 94.5454,51.8168 C94.5454,51.8168 81.9594,53.5928 74.6484,54.5898 C71.9824,54.9528 72.9244,57.1128 72.6894,59.7928 L72.1664,65.7428 Z" id="Fill-106" fill="#d5e1d5"/><path d="M64.1552,81.8805 L62.8162,80.5415 C62.5412,80.2665 62.5412,79.8215 62.8162,79.5465 L64.1552,78.2075 C64.4292,77.9335 64.8752,77.9335 65.1492,78.2075 L66.4882,79.5465 C66.7632,79.8215 66.7632,80.2665 66.4882,80.5415 L65.1492,81.8805 C64.8752,82.1545 64.4292,82.1545 64.1552,81.8805" id="Fill-108" fill="#F8FBF8"/></g></g></g></g><g id="Expression" transform="translate(315.000000, 246.000000) scale(1 1)"><defs><path d="M2.973,1.055 C-0.453,2.37 -2.944,13.004 10.567,16.001 L10.567,16.001 C16.271,17.266 19.387,14.583 19.536,11.9 L19.536,11.9 C19.665,9.554 17.527,7.208 12.869,7.501 L12.869,7.501 C11.822,7.568 10.572,7.073 9.905,5.972 L9.905,5.972 C8.651,3.902 7.906,0.626 4.999,0.626 L4.999,0.626 C4.417,0.626 3.749,0.757 2.973,1.055" id="expressionlaugh-path-1"/></defs><g id="Expression/Laugh" stroke="none" stroke-width="1" fill="none" fill-rule="evenodd"><g id="Group-77" transform="translate(13.400000, 13.300000)"><g id="Group-3" transform="translate(0.000000, 0.116900)"><g id="Group" transform="translate(0.000000, 15.000000)"><path d="M2.973,1.0549 C-0.453,2.3699 -2.944,13.0039 10.567,15.9999 C21.261,18.3719 22.855,6.8709 12.869,7.5009 C11.822,7.5679 10.571,7.0739 9.904,5.9719 C8.4,3.4879 7.63,-0.7321 2.973,1.0549" id="Fill-37" fill="#000"/><g id="Group-41"><mask id="expressionlaugh-mask-2" fill="#ffffff"><use xlink:href="#expressionlaugh-path-1" fill="#ffffff"/></mask><g id="Clip-40"/><path d="M-3.2101,3.4943 C-3.2101,3.4943 1.3509,2.7393 5.4389,7.3023 C9.5279,11.8643 9.1349,18.8593 9.1349,18.8593 C9.1349,18.8593 -6.6571,11.2823 -3.2101,3.4943" id="Fill-39" fill="#FF71DB" mask="url(#expressionlaugh-mask-2)"/></g></g><g id="Group-46" transform="translate(3.000000, 0.000000)"><path d="M3.1312,6.052 C3.7892,6.555 4.7312,6.427 5.2332,5.769 C7.2772,3.086 9.8032,4.136 10.1002,4.271 C10.8412,4.624 11.7342,4.313 12.0932,3.571 C12.4552,2.825 12.1432,1.928 11.3982,1.566 C10.3642,1.065 8.4892,0.66 6.5312,1.268 C5.2702,1.659 3.9732,2.472 2.8462,3.95 C2.3442,4.61 2.4722,5.55 3.1312,6.052" id="Fill-42" fill="#000"/><path d="M4.6669,6.3596 C4.6669,7.0556 3.7149,7.6196 2.5399,7.6196 C1.3649,7.6196 0.4129,7.0556 0.4129,6.3596 C0.4129,5.6646 1.3649,5.0996 2.5399,5.0996 C3.7149,5.0996 4.6669,5.6646 4.6669,6.3596" id="Fill-44" fill="#F8FBF8"/></g></g></g></g></g><g id="Facial Hair" transform="translate(311.300000, 250.950000) scale(1 1)"><g id="Facial Hair/None" stroke="none" stroke-width="1" fill="none" fill-rule="evenodd" fill-opacity="0"/></g><g id="Accesories" transform="translate(311.300000, 250.950000) scale(1 1)"><g id="Accesories/None" stroke="none" stroke-width="1" fill="none" fill-rule="evenodd" fill-opacity="0"/></g></g></g></g></svg>